<?xml version="1.0" standalone="no"?> <!DOCTYPE svg PUBLIC "-//W3C//DTD SVG 1.0//EN" "http://www.w3.org/TR/2001/REC-SVG-20010904/DTD/svg10.dtd" > <svg xmlns="http://www.w3.org/2000/svg" width="100%" height="100%">
<defs >
<font horiz-adv-x="471" ><font-face
    font-family=""
    units-per-em="1000"
    panose-1="2 4 3 2 6 5 4 6 2 3"
    ascent="803"
    descent="-197"
    alphabetic="0" />
<missing-glyph horiz-adv-x="501" />
<glyph unicode=" " glyph-name="space" horiz-adv-x="206" />
<glyph unicode="!" glyph-name="exclam" horiz-adv-x="240" d="M134 649Q136 676 151 689T189 702Q215 702 230 683T236 629L105 187H95L134 649ZM28 47Q28 68 43 83T79 98Q100 98 115 83T130 47Q130 26 115 11T79 -4Q58 -4 43 11T28 47Z" />
<glyph unicode="&quot;" glyph-name="quotedbl" horiz-adv-x="267" d="M97 642Q94 703 140 703Q166 703 176 682T173 631L112 492H104L97 642ZM211 642Q208 703 254 703Q280 703 290 682T287 631L226 492H218L211 642Z" />
<glyph unicode="#" glyph-name="numbersign" horiz-adv-x="478" d="M281 207H150L95 0H72L127 207H33L50 269H144L186 429H93L110 491H203L257 693H281L226 491H357L411 693H434L380 491H474L457 429H363L321 269H414L397 207H304L249 0H226L281 207ZM167 269H298L340
429H210L167 269Z" />
<glyph unicode="$" glyph-name="dollar" horiz-adv-x="469" d="M175 -9Q129 -7 95 3T38 28T4 60T-8 96Q-8 144 33 144Q58 144 68 130T82 85Q83 70 88 57T103 34T132 18T178 9L231 326Q194 351 167 373T123 417T97 463T88 517Q88 566 108 600T159 657T225 689T291
699H292L304 768H325L313 698Q388 694 426 667T464 602Q464 585 455 573T428 561Q408 561 398 574T385 615Q382 646 367 662T310 680L263 397Q304 369 333 345T381 296T408 246T417 189Q417 150 401 114T356 51T287 7T196 -10L181 -105H160L175 -9ZM200 9Q240 9
269 22T317 58T345 106T355 160Q355 207 328 242T249 313L199 9H200ZM150 538Q150 500 172 472T244 410L289 681Q227 679 189 640T150 538Z" />
<glyph unicode="%" glyph-name="percent" horiz-adv-x="671" d="M624 714H654L52 -50H21L624 714ZM244 702Q267 702 288 694T326 669T353 626T363 564Q363 518 348 480T308 415T252 372T188 356Q136 356 101 389T65 489Q65 537 79 576T119 643T176 686T244 702ZM191
372Q212 372 231 390T264 440T286 510T295 591Q295 636 282 660T238 685Q215 685 196 666T162 617T141 548T133 470Q133 425 146 399T191 372ZM512 334Q535 334 556 326T594 301T621 258T631 196Q631 150 616 112T576 47T520 4T456 -12Q404 -12 369 21T333 121Q333
169 347 208T387 275T444 318T512 334ZM459 4Q480 4 499 22T532 72T554 142T563 223Q563 268 550 292T506 317Q483 317 464 298T430 249T409 180T401 102Q401 57 414 31T459 4Z" />
<glyph unicode="&amp;" glyph-name="ampersand" horiz-adv-x="604" d="M601 352L583 347Q565 342 554 337T535 325T521 306T508 276Q492 238 477 203T431 124Q444 104 458 83T484 47Q495 33 502 27T526 16L550 9L548 0H420Q410 14 398 31T375 66Q348 39 304 15T195
-10Q103 -10 55 32T7 148Q7 224 59 279T199 378Q184 418 177 450T169 516Q169 553 181 587T216 647T270 688T340 703Q406 703 438 672T471 589Q471 557 457 530T417 479T355 436T275 396Q299 340 338 271T421 135Q433 153 444 174T465 218T481 262T487 302Q487
321 478 330T438 347L416 352L417 361H603L601 352ZM233 19Q270 19 301 32T367 77Q344 113 321 151T276 228T236 301T205 367Q153 338 122 292T90 179Q90 101 127 60T233 19ZM239 549Q239 511 247 477T270 407Q342 443 373 490T405 591Q405 636 387 659T336 683Q314
683 296 673T266 644T246 601T239 549Z" />
<glyph unicode="&apos;" glyph-name="quotesingle" horiz-adv-x="153" d="M97 642Q94 703 140 703Q166 703 176 682T173 631L112 492H104L97 642Z" />
<glyph unicode="(" glyph-name="parenleft" horiz-adv-x="288" d="M209 -141Q175 -103 145 -62T93 27T57 126T44 240Q44 326 68 400T133 536T229 650T346 741L354 732Q300 685 255 634T177 521T126 385T108 219Q108 160 117 109T143 14T178 -66T219 -134L209 -141V-141Z" />
<glyph unicode=")" glyph-name="parenright" horiz-adv-x="288" d="M99 741Q133 703 163 662T215 573T251 474T264 360Q264 274 240 200T175 64T78 -50T-38 -141L-46 -132Q8 -85 53 -34T131 79T182 215T200 381Q200 440 191 491T166 585T131 665T90 733L99 741V741Z" />
<glyph unicode="*" glyph-name="asterisk" horiz-adv-x="301" d="M125 456Q114 456 107 462T97 478T97 496T110 512L199 568L110 578Q95 580 90 588T84 606Q84 626 100 634T134 629L201 572L189 660Q185 686 195 694T219 702Q235 702 243 690T243 657L205 572L277
612Q300 625 315 619T330 593Q330 579 322 571T293 564L206 567L270 502Q278 494 280 485T279 467T268 454T249 448Q239 448 231 455T221 475L202 563L155 477Q148 465 141 461T125 456Z" />
<glyph unicode="+" glyph-name="plus" horiz-adv-x="430" d="M215 328H48V352H215V546H241V352H408V328H241V135H215V328Z" />
<glyph unicode="," glyph-name="comma" horiz-adv-x="204" d="M-39 -102Q8 -86 44 -58T89 13Q84 6 75 3T55 0Q34 0 22 13T9 46Q9 65 22 80T62 95Q89 95 106 78T123 34Q123 -14 82 -54T-36 -111L-39 -102Z" />
<glyph unicode="-" glyph-name="hyphen" horiz-adv-x="263" d="M43 319H242L234 259H35L43 319Z" />
<glyph unicode="." glyph-name="period" horiz-adv-x="204" d="M12 47Q12 68 27 83T63 98Q84 98 99 83T114 47Q114 26 99 11T63 -4Q42 -4 27 11T12 47Z" />
<glyph unicode="/" glyph-name="slash" horiz-adv-x="314" d="M365 734H391L-41 -130H-66L365 734Z" />
<glyph unicode="0" glyph-name="zero" horiz-adv-x="590" d="M249 -10Q207 -10 169 4T101 50T54 131T36 249Q36 343 63 425T135 569T241 667T367 703Q409 703 447 688T514 641T561 558T578 438Q578 344 552 263T481 121T376 25T249 -10ZM252 10Q300 10 343 40T418
130T470 276T489 476Q489 579 458 631T364 683Q315 683 272 649T196 554T144 409T125 224Q125 121 155 66T252 10Z" />
<glyph unicode="1" glyph-name="one" horiz-adv-x="307" d="M-16 9L26 18Q40 21 49 24T63 31T72 44T77 64L172 605L79 611L80 618Q115 625 140 632T185 649T224 671T263 701L268 699L157 64Q152 40 158 32T192 18L238 9L236 0H-18L-16 9Z" />
<glyph unicode="2" glyph-name="two" horiz-adv-x="467" d="M-30 47Q-2 67 30 91T95 141T156 189T205 230Q246 266 280 304T339 381T378 461T392 543Q392 617 360 650T279 683Q241 683 225 670T202 622Q197 596 185 585T151 573Q129 573 119 584T108 613Q108 634
121 651T158 679T211 697T276 703Q321 703 357 692T420 659T460 605T474 530Q474 470 441 414T349 301T207 188T26 68V66H298Q320 66 333 68T358 78T380 101T409 144H416L380 0H-38L-30 47Z" />
<glyph unicode="3" glyph-name="three" horiz-adv-x="462" d="M156 -10Q121 -10 91 -5T38 12T2 40T-11 80Q-11 100 1 112T33 125Q56 125 66 111T81 70Q88 33 108 22T165 10Q212 10 243 24T294 64T322 129T330 217Q330 243 324 267T304 311T264 341T202 353H158L161
374H212Q240 374 266 383T313 413T346 471T358 561Q358 596 350 619T328 657T294 677T251 683Q215 683 200 669T177 619Q172 593 159 582T127 571Q108 571 97 581T86 612Q86 631 97 647T130 676T180 696T246 703Q339 703 390 661T442 546Q442 477 396 427T266 364V362Q342
351 380 312T418 210Q418 158 397 117T339 48T256 5T156 -10Z" />
<glyph unicode="4" glyph-name="four" horiz-adv-x="501" d="M172 9L214 18Q226 21 234 24T247 32T255 45T261 65L287 208H-4L3 244L412 693H453L376 253H478L468 208H369L343 66Q339 41 345 31T377 16L413 9L412 0H170L172 9ZM295 253L355 596H352L42 254V253H295Z" />
<glyph unicode="5" glyph-name="five" horiz-adv-x="470" d="M172 -10Q97 -10 55 15T12 78Q12 96 23 109T56 123Q74 123 86 112T103 74Q105 62 109 50T121 29T142 15T176 9Q218 9 252 24T311 66T348 127T361 203Q361 278 320 318T196 359Q151 359 125 353T80 338L74
343L166 693H430Q439 693 445 694T457 701T469 716T485 742H494L457 624H172L116 412Q140 420 167 423T228 427Q273 427 310 415T376 379T419 319T435 236Q435 185 416 140T361 62T277 10T172 -10Z" />
<glyph unicode="6" glyph-name="six" horiz-adv-x="521" d="M242 -10Q191 -10 153 7T88 55T49 131T36 230Q36 340 71 427T161 576T286 670T423 703Q490 703 521 682T553 628Q553 606 541 594T508 582Q487 582 475 596T457 644Q452 669 442 676T406 683Q365 683
325 663T249 602T184 501T137 361Q172 385 213 403T303 421Q391 421 438 374T485 241Q485 187 465 141T412 62T334 9T242 -10ZM239 10Q318 10 359 69T400 234Q400 267 394 295T374 345T336 378T275 390Q234 390 201 379T134 345Q129 317 126 277T122 194Q122 111
149 61T239 10Z" />
<glyph unicode="7" glyph-name="seven" horiz-adv-x="451" d="M74 0Q98 93 141 179T237 344T351 492T471 622H155Q144 622 136 619T121 608T106 587T87 552H77L111 693H526L520 658Q457 586 401 509T298 349T217 179T164 0H74V0Z" />
<glyph unicode="8" glyph-name="eight" horiz-adv-x="492" d="M213 -10Q178 -10 142 -2T76 26T27 75T8 147Q8 185 22 215T63 271T125 316T205 355V358Q151 405 128 442T105 525Q105 559 119 591T159 648T224 688T312 703Q346 703 378 694T435 666T475 623T490
565Q490 532 477 505T441 455T385 412T313 372V371Q345 346 369 324T410 280T435 233T444 178Q444 142 428 108T383 48T310 6T213 -10ZM221 10Q289 10 329 49T370 151Q370 184 357 211T323 262T274 307T219 348Q191 330 166 310T123 266T94 212T83 147Q83 77 122
44T221 10ZM418 564Q418 622 388 653T305 684Q242 684 209 648T175 560Q175 537 179 517T197 477T236 433T302 379Q328 398 349 417T386 458T409 506T418 564Z" />
<glyph unicode="9" glyph-name="nine" horiz-adv-x="520" d="M133 -10Q70 -10 37 10T4 64Q4 83 15 96T47 109Q70 109 82 95T100 49Q104 29 112 20T148 10Q239 10 306 89T410 332Q382 310 338 292T247 273Q199 273 164 287T105 326T71 384T60 455Q60 509 79 554T131
633T208 684T301 703Q407 703 457 636T508 451Q508 335 474 249T386 105T266 19T133 -10ZM275 304Q320 304 351 316T413 349Q417 373 421 414T425 502Q425 584 397 633T304 683Q232 683 190 623T147 457Q147 383 181 344T275 304Z" />
<glyph unicode=":" glyph-name="colon" horiz-adv-x="214" d="M64 346Q64 367 79 382T115 397Q136 397 151 382T166 346Q166 325 151 310T115 295Q94 295 79 310T64 346ZM12 47Q12 68 27 83T63 98Q84 98 99 83T114 47Q114 26 99 11T63 -4Q42 -4 27 11T12 47Z" />
<glyph unicode=";" glyph-name="semicolon" horiz-adv-x="214" d="M-39 -102Q8 -86 44 -58T89 13Q84 6 75 3T55 0Q34 0 22 13T9 46Q9 65 22 80T62 95Q89 95 106 78T123 34Q123 -14 82 -54T-36 -111L-39 -102ZM64 346Q64 367 79 382T115 397Q136 397 151 382T166
346Q166 325 151 310T115 295Q94 295 79 310T64 346Z" />
<glyph unicode="&lt;" glyph-name="less" horiz-adv-x="438" d="M42 315V333L397 509V481L80 324L397 165V138L42 315Z" />
<glyph unicode="=" glyph-name="equal" horiz-adv-x="462" d="M51 413H433V389H51V413ZM51 265H433V240H51V265Z" />
<glyph unicode="&gt;" glyph-name="greater" horiz-adv-x="437" d="M61 138V165L378 324L61 481V509L416 333V315L61 138Z" />
<glyph unicode="?" glyph-name="question" horiz-adv-x="374" d="M141 384Q247 398 295 445T343 559Q343 592 333 615T306 654T270 676T230 684Q207 684 198 676T180 642Q172 618 160 609T134 599Q116 599 105 609T93 637Q93 647 99 658T118 680T154 696T209 703Q245
703 278 692T336 660T377 606T392 531Q392 481 373 443T320 377T244 332T152 308L130 186H108L141 384ZM55 47Q55 68 70 83T106 98Q127 98 142 83T157 47Q157 26 142 11T106 -4Q85 -4 70 11T55 47Z" />
<glyph unicode="@" glyph-name="at" horiz-adv-x="793" d="M338 -120Q260 -120 201 -99T101 -40T39 53T18 175Q18 264 54 348T154 497T301 602T482 642Q561 642 619 621T714 563T770 479T788 378Q788 301 765 240T704 135T623 68T536 44Q508 44 491 53T465 79T455
119T458 173H456Q421 116 383 80T298 44Q282 44 267 50T239 71T220 107T212 159Q212 228 235 287T293 389T371 458T453 483Q482 483 503 473T537 448H541L576 483L584 480Q579 467 575 451Q571 437 567 418T558 375L526 187Q521 159 519 136T518 97T529 71T557
62Q589 62 615 77T661 119T695 177T718 244T731 310T736 368Q736 417 723 463T680 544T601 601T478 623Q391 623 318 587T191 489T107 350T76 187Q76 121 95 69T150 -20T241 -77T365 -97Q435 -97 490 -83T596 -40L593 -50Q550 -80 487 -100T338 -120ZM329 87Q362
87 393 118T456 196L503 427Q498 443 483 453T448 464Q419 464 390 439T338 371T301 273T286 159Q286 127 297 107T329 87Z" />
<glyph unicode="A" glyph-name="A" horiz-adv-x="577" d="M-54 9L-39 13Q-24 17 -15 21T5 37T26 69T57 126L352 693H389L467 111Q471 82 474 66T482 40T497 25T521 14L535 9L533 0H317L319 9L342 15Q359 20 368 24T382 39Q387 49 387 65T384 107L365 261H155L82
119Q57 70 57 49Q57 32 68 26T95 15L119 9L117 0H-56L-54 9ZM166 282H362L325 587H322L166 282Z" />
<glyph unicode="B" glyph-name="B" horiz-adv-x="541" d="M-30 8L9 16Q32 21 40 30T54 62L154 630Q159 655 153 663T124 676L90 684L92 693H313Q373 693 413 680T477 646T511 597T522 543Q522 506 508 476T468 423T409 385T337 362V359Q419 348 465 313T512 209Q512
162 493 124T438 58T355 15T250 0H-32L-30 8ZM253 19Q289 19 320 31T374 69T410 130T423 214Q423 277 384 312T258 348H186L141 103Q136 73 139 57T156 32T193 21T253 19ZM266 369Q344 369 389 410T434 544Q434 603 402 638T307 673Q284 673 271 672T241 666L191
369H266Z" />
<glyph unicode="C" glyph-name="C" horiz-adv-x="569" d="M292 -10Q165 -10 97 61T28 258Q28 352 57 433T138 575T259 669T407 703Q470 703 510 694T581 668L564 505H554Q547 531 540 556T523 607Q514 631 504 645T479 668T446 680T402 683Q334 683 281 647T191
549T135 408T116 241Q116 124 164 67T296 9Q348 9 382 29T442 78Q463 103 480 132T519 201H529L485 22Q456 8 407 -1T292 -10Z" />
<glyph unicode="D" glyph-name="D" horiz-adv-x="625" d="M224 17Q308 17 367 52T463 146T518 281T535 439Q535 495 525 539T491 613T429 660T333 676Q294 676 276 674T242 667L140 85Q136 62 138 49T150 28T178 19T224 17ZM91 693H339Q401 693 453 679T543 634T602
554T623 433Q623 334 593 254T510 117T383 31T224 0H-31L-30 8L9 16Q32 21 40 30T54 62L154 630Q159 655 153 663T124 676L90 684L91 693Z" />
<glyph unicode="E" glyph-name="E" horiz-adv-x="533" d="M-30 8L9 16Q32 21 40 30T54 62L154 630Q159 655 153 663T124 676L90 684L91 693H531L533 535H524Q516 557 507 579T490 617Q479 637 470 648T445 665T405 672T343 674Q301 674 278 672T241 665L190 370H244Q275
370 294 372T326 378T346 390T359 407Q367 423 373 436T389 474H398L357 247H348Q346 271 346 281T343 306Q341 322 336 330T319 343T284 349T226 350H186L146 123Q139 84 138 63T147 33T184 21T258 19Q298 19 323 21T364 29T392 45T415 70Q425 82 436 98T459 130T479
163T497 192H507L454 0H-31L-30 8Z" />
<glyph unicode="F" glyph-name="F" horiz-adv-x="506" d="M244 360Q275 360 294 363T326 371T346 384T359 402Q369 419 376 435T391 474H400L357 227H348Q346 247 345 263T341 294Q338 310 334 319T317 332T284 338T226 340H187L139 65Q134 40 141 31T174 17L218
9L216 0H-31L-29 8L9 16Q32 21 40 30T54 62L155 630Q160 655 154 663T125 676L91 684L92 693H540L534 521H525Q515 553 508 572T492 610Q483 629 474 641T448 661T406 671T341 674Q282 674 244 663L190 360H244Z" />
<glyph unicode="G" glyph-name="G" horiz-adv-x="618" d="M306 -10Q252 -10 203 4T115 51T54 136T31 263Q31 368 65 450T155 588T281 673T422 703Q527 703 600 675L583 504H573Q555 576 539 614Q524 650 498 666T415 683Q357 683 304 656T209 575T144 440T119
249Q119 199 129 156T161 80T220 28T308 9Q346 9 379 18T435 41L465 211Q468 224 468 232T464 245T453 252T435 257L396 265L398 274H620L618 265L589 257Q578 254 571 251T558 243T549 230T543 208L511 23Q477 9 429 0T306 -10Z" />
<glyph unicode="H" glyph-name="H" horiz-adv-x="661" d="M-29 9L9 17Q21 20 28 22T41 29T49 42T54 63L154 630Q159 656 153 663T124 676L90 684L91 693H325L323 684L280 676Q268 674 261 671T248 664T240 651T235 630L188 364H508L555 630Q560 656 555 663T526
676L486 684L488 693H722L720 684L682 676Q659 671 650 664T637 630L537 64Q532 38 538 30T570 16L602 9L600 0H365L367 9L410 18Q422 21 429 24T442 31T450 43T455 64L505 343H184L136 64Q132 41 136 32T169 16L204 9L203 0H-31L-29 9Z" />
<glyph unicode="I" glyph-name="I" horiz-adv-x="265" d="M159 630Q164 656 159 663T130 676L90 684L92 693H326L324 684L286 676Q263 671 254 664T241 630L141 64Q136 38 142 30T174 16L206 9L204 0H-31L-29 9L14 18Q26 21 33 24T46 31T54 43T59 64L159 630Z" />
<glyph unicode="J" glyph-name="J" horiz-adv-x="321" d="M53 -10Q11 -10 -11 6T-34 47Q-34 64 -24 75T7 86Q29 86 38 74T51 39Q55 8 76 8Q97 8 111 40T134 118L224 630Q229 655 224 663T195 676L155 684L157 693H391L389 684L351 676Q340 673 333 671T320 664T311
651T306 630L227 190Q220 150 207 114T172 50T122 6T53 -10Z" />
<glyph unicode="K" glyph-name="K" horiz-adv-x="573" d="M405 0Q380 37 356 81T309 171T265 265T225 356L226 362L463 603Q477 617 484 628T492 650Q492 663 481 668T451 678L427 684L429 693H629L627 684L613 679Q590 671 576 665T549 650T522 628T485 592L293
399Q335 301 381 210T470 53Q481 35 492 27T524 14L544 9L542 0H405ZM154 630Q159 656 154 663T125 676L85 684L87 693H321L319 684L281 676Q258 671 249 664T236 630L136 64Q131 38 137 30T169 16L201 9L199 0H-31L-29 9L9 18Q21 21 28 23T41 31T49 43T54 64L154
630Z" />
<glyph unicode="L" glyph-name="L" horiz-adv-x="513" d="M-30 8L9 16Q32 21 40 30T54 62L154 630Q159 655 153 663T124 676L89 684L91 693H326L323 682L280 673Q257 668 248 660T235 628L143 100Q139 76 141 61T154 36T186 24T243 20Q280 20 304 21T343 28T370
43T395 71Q415 97 434 130T475 202H487L436 0H-31L-30 8Z" />
<glyph unicode="M" glyph-name="M" horiz-adv-x="756" d="M-30 9L2 16Q14 19 23 23T38 34T49 52T57 82L154 630Q159 655 153 663T124 676L89 684L91 693H254L352 133H354L654 693H814L812 684L775 676Q752 671 744 663T732 630L632 64Q627 38 633 30T665 16L696
9L694 0H470L472 9L505 17Q517 20 525 22T538 30T547 42T552 64L651 626H647L318 16H292L184 630H180L84 86Q81 67 81 56T85 37T99 25T124 16L150 9L148 0H-32L-30 9Z" />
<glyph unicode="N" glyph-name="N" horiz-adv-x="626" d="M574 607Q577 626 577 637T571 656T555 668T527 678L504 684L506 693H685L683 684L656 677Q641 673 632 669T616 657T607 639T600 611L490 -5H461L183 630H180L84 86Q81 67 81 55T87 36T103 24T131 15L156
9L154 0H-32L-30 9L2 16Q25 21 38 35T57 82L154 630Q159 655 153 663T124 676L89 684L91 693H244L488 136H490L574 607Z" />
<glyph unicode="O" glyph-name="O" horiz-adv-x="636" d="M286 -10Q233 -10 187 10T106 68T52 158T32 275Q32 369 62 447T141 583T254 671T386 703Q443 703 488 681T566 619T615 527T632 411Q632 319 603 242T526 108T416 21T286 -10ZM290 10Q345 10 392 42T472
133T525 272T544 450Q544 490 538 531T515 607T467 662T386 683Q329 683 280 650T196 558T140 420T119 248Q119 204 126 161T152 85T204 31T290 10Z" />
<glyph unicode="P" glyph-name="P" horiz-adv-x="527" d="M-30 9L8 17Q20 20 28 23T41 31T49 44T54 65L154 630Q158 655 153 663T125 676L89 684L91 693H317Q377 693 420 681T492 645T535 590T549 519Q549 468 531 427T481 356T402 310T300 294Q269 294 247 297T214
305L216 314Q283 304 330 317T408 361T452 435T466 530Q466 603 426 638T318 674Q275 674 243 667L136 64Q131 37 137 29T173 17L218 9L216 0H-32L-30 9Z" />
<glyph unicode="Q" glyph-name="Q" horiz-adv-x="636" d="M494 -161Q451 -161 417 -149T347 -111Q310 -85 282 -56T230 -4Q187 5 151 29T89 90T47 173T32 275Q32 369 62 447T141 583T254 671T386 703Q443 703 489 681T566 619T615 527T632 411Q632 328 609 257T545
131T450 41T334 -4V-7Q348 -21 368 -38T403 -66Q441 -92 476 -106T554 -120Q575 -120 593 -115T622 -104L621 -113Q605 -131 571 -146T494 -161ZM289 10Q345 10 392 42T472 133T525 273T544 450Q544 491 538 532T515 607T467 662T386 683Q329 683 280 650T195 557T139
419T119 248Q119 203 126 160T153 84T205 31T289 10Z" />
<glyph unicode="R" glyph-name="R" horiz-adv-x="568" d="M-30 9L8 17Q30 22 40 31T54 63L154 630Q159 655 154 663T125 676L89 684L91 693H332Q435 693 482 651T530 535Q530 497 516 465T478 408T419 367T345 343V340Q361 300 379 260T416 182T453 111T487 50Q498
33 506 26T536 13L553 9L552 0H421Q373 81 337 163T269 334H184L137 70Q135 56 135 48T138 33T150 24T172 17L210 9L208 0H-32L-30 9ZM250 353Q303 353 340 368T401 409T435 469T446 542Q446 609 418 641T324 674Q302 674 280 673T243 667L188 358Q196 356 206
355Q214 354 225 354T250 353Z" />
<glyph unicode="S" glyph-name="S" horiz-adv-x="475" d="M201 -10Q129 -10 83 5T6 43L21 207H30Q36 177 44 149T61 91Q67 71 76 56T100 30T139 14T197 9Q239 9 268 21T316 53T344 101T353 159Q353 183 346 204T323 245T282 287T221 334Q153 380 124 423T95 517Q95
560 113 594T160 653T229 690T310 703Q369 703 409 692T469 669L460 518H451Q442 551 434 574T417 617Q401 655 375 670T302 685Q273 685 248 676T204 648T175 605T164 547Q164 530 168 514T185 480T218 443T273 400Q317 370 346 344T394 294T419 245T427 194Q427
148 409 111T360 46T288 5T201 -10Z" />
<glyph unicode="T" glyph-name="T" horiz-adv-x="555" d="M117 9L157 17Q182 22 191 31T205 65L313 672H293Q254 672 228 670T184 661T152 640T124 602Q110 578 99 557T72 505H60L103 693H607L591 505H579Q574 534 570 556T560 604Q555 626 548 639T525 660T485
669T417 672H394L287 66Q282 41 289 31T323 16L359 9L357 0H115L117 9Z" />
<glyph unicode="U" glyph-name="U" horiz-adv-x="622" d="M584 607Q587 626 587 637T582 656T566 668T537 678L513 684L515 693H694L692 684L664 677Q638 670 627 658T609 611L537 206Q529 162 514 123T471 54T402 7T300 -10Q29 -10 72 238L140 628Q145 654 139
662T110 676L76 684L78 693H311L309 684L266 676Q243 671 234 662T221 628L153 243Q142 183 148 141T175 71T231 32T317 20Q366 20 400 35T458 77T494 140T515 220L584 607Z" />
<glyph unicode="V" glyph-name="V" horiz-adv-x="571" d="M124 586Q120 612 117 628T110 653T99 667T80 676L58 684L60 693H270L269 684L245 678Q226 673 218 669T204 656Q199 646 199 632T202 594L275 114H278L527 586Q538 608 542 624T547 649Q547 668 517 676L487
684L488 693H660L658 684L640 677Q626 672 616 665T596 647T576 618T550 573L245 0H217L124 586Z" />
<glyph unicode="W" glyph-name="W" horiz-adv-x="833" d="M115 586Q112 610 109 625T102 650T91 665T74 675L52 684L54 693H270L268 684L235 676Q202 669 194 651Q189 641 190 628T194 589L246 121H248L456 526L449 580Q445 609 442 626T433 654T421 668T402 677L380
684L382 693H595L593 684L572 678Q555 673 545 668T529 652Q524 641 524 626T525 589L580 126H583L786 576Q798 604 802 619T807 644Q807 668 775 678L756 684L758 693H923L921 684L898 675Q881 669 871 663T853 646T836 619T814 574L551 0H519L462 479H459L212
0H184L115 586Z" />
<glyph unicode="X" glyph-name="X" horiz-adv-x="574" d="M-39 9L-22 14Q-10 17 -1 21T18 34T40 57T71 95L263 342L149 618Q142 634 138 644T129 661T118 671T102 678L81 684L83 693H299L296 684L268 678Q251 674 244 671T233 659Q228 643 247 594L324 393H326L476
601Q500 634 500 652Q500 669 472 678L450 684L452 693H616L614 684L594 678Q582 674 573 669T554 656T534 634T508 601L335 367L448 93Q456 73 462 60T474 38T488 24T509 15L529 9L527 0H312L314 9L343 15Q361 18 368 23T376 40Q376 48 372 61T356 103L274 317H273L93
82Q79 64 74 53T68 35Q68 20 95 14L117 9L115 0H-41L-39 9Z" />
<glyph unicode="Y" glyph-name="Y" horiz-adv-x="537" d="M104 9L144 17Q169 22 177 30T191 63L230 277L126 611Q120 629 116 640T107 658T94 670T77 677L54 684L56 693H280L278 684L238 674Q226 671 216 666T205 644Q205 630 214 600L300 309H303L468 573Q498
621 500 644Q500 656 493 662T471 674L439 684L441 693H624L622 684L605 678Q587 672 576 666T553 650T530 621T497 571L311 276L273 64Q268 39 275 30T310 16L346 9L345 0H102L104 9Z" />
<glyph unicode="Z" glyph-name="Z" horiz-adv-x="526" d="M-20 22L472 667V671H396Q333 671 293 669T228 660T189 644T165 619Q149 597 133 567T99 505H89L124 693H568L562 671L72 25V21H146Q221 21 266 23T338 30T379 44T406 67Q422 85 440 116T480 192H490L453
0H-26L-20 22Z" />
<glyph unicode="[" glyph-name="bracketleft" horiz-adv-x="285" d="M364 725L279 715Q264 713 255 711T241 702T233 685T226 655L102 -49Q99 -66 98 -77T100 -95T113 -105T139 -111L216 -121L214 -130H26L178 734H366L364 725Z" />
<glyph unicode="\" glyph-name="backslash" horiz-adv-x="332" d="M84 734H109L275 -130H250L84 734Z" />
<glyph unicode="]" glyph-name="bracketright" horiz-adv-x="285" d="M-49 -121L36 -111Q51 -110 60 -107T74 -98T82 -81T89 -51L213 653Q216 670 217 681T215 699T202 709T176 715L99 725L101 734H289L137 -130H-51L-49 -121Z" />
<glyph unicode="^" glyph-name="asciicircum" horiz-adv-x="380" d="M72 494L235 706H265L370 491L363 487L238 609L79 488L72 494Z" />
<glyph unicode="_" glyph-name="underscore" horiz-adv-x="334" d="M-74 -147H270L266 -170H-79L-74 -147Z" />
<glyph unicode="`" glyph-name="grave" horiz-adv-x="450" d="M201 627Q184 632 177 643T170 667Q170 681 180 693T209 705Q223 705 240 690L362 582L358 575L201 627Z" />
<glyph unicode="a" glyph-name="a" horiz-adv-x="516" d="M118 -10Q70 -10 45 21T19 106Q19 196 49 272T125 403T225 490T326 521Q365 521 396 510T446 486H449L489 522L497 519Q491 507 485 486Q479 468 472 439T455 364L403 102Q401 89 399 78T397 54Q397 37
411 38T460 59L488 75L493 68Q448 26 414 9T355 -8Q336 -8 325 4T314 40Q314 49 316 63T321 92T328 122T336 151H333Q316 126 293 98T242 45T183 6T118 -10ZM158 30Q177 30 200 42T247 76T294 124T338 182L398 459Q390 479 373 491T330 504Q289 504 248 471T174
382T121 257T100 114Q100 30 158 30Z" />
<glyph unicode="b" glyph-name="b" horiz-adv-x="513" d="M203 -10Q146 -10 105 2T26 38V40L157 667Q162 689 156 699T125 719L89 734L90 741L248 755L252 752Q248 736 244 717Q240 700 236 678T227 631L191 460Q184 425 178 398T164 346H166Q188 376 214 407T268
463T327 505T390 521Q440 521 466 484T493 378Q493 292 467 221T399 99T306 19T203 -10ZM199 7Q245 7 284 36T351 116T396 231T412 369Q412 481 359 481Q337 481 313 467T263 429T212 377T162 316L104 52Q118 32 142 20T199 7Z" />
<glyph unicode="c" glyph-name="c" horiz-adv-x="416" d="M159 -10Q90 -10 54 29T18 139Q18 216 45 285T116 406T214 490T321 521Q371 521 397 502T424 453Q424 435 413 422T383 408Q358 408 348 422T332 474Q327 501 305 501Q267 501 230 470T163 387T116 271T98
138Q98 78 120 51T187 23Q213 23 234 29T274 46T311 73T348 107L355 99Q319 54 272 22T159 -10Z" />
<glyph unicode="d" glyph-name="d" horiz-adv-x="532" d="M409 102Q407 91 404 78T401 53Q401 39 415 39T466 59L494 75L499 68Q454 25 421 9T364 -8Q344 -8 333 3T322 39Q322 48 324 62T330 92T338 123T346 151H343Q321 119 297 90T246 39T188 4T122 -10Q74 -10
47 24T19 116Q19 198 48 271T122 400T222 488T329 521Q357 521 377 518T413 509H417Q418 519 420 530Q422 540 424 553T429 581L447 667Q452 690 446 699T415 719L374 734L375 741L535 755L539 752Q535 734 531 715Q527 698 523 676T514 631L409 102ZM163 30Q185
30 209 42T257 76T304 124T348 182L405 463Q382 504 330 504Q289 504 248 471T174 382T121 257T100 114Q100 67 116 49T163 30Z" />
<glyph unicode="e" glyph-name="e" horiz-adv-x="432" d="M164 -10Q91 -10 55 31T19 141Q19 187 31 233T64 321T113 399T175 463T243 505T315 521Q375 521 403 495T432 431Q432 402 414 373T356 318T256 269T110 232Q105 209 102 186T99 138Q99 83 123 53T189
22Q237 22 274 43T354 103L361 95Q345 75 325 57T279 23T225 -1T164 -10ZM307 503Q284 503 256 483T200 428T150 347T113 248Q185 262 231 282T306 329Q330 351 341 382T353 439Q353 474 340 488T307 503Z" />
<glyph unicode="f" glyph-name="f" horiz-adv-x="284" d="M-62 -205Q-101 -205 -120 -191T-139 -156Q-139 -139 -129 -127T-98 -115Q-78 -115 -70 -127T-54 -158Q-49 -171 -46 -178T-34 -185Q-26 -185 -17 -176T2 -141T23 -66T47 61L113 474H49L51 483L118 506L122
525Q145 636 197 695T324 755Q366 755 385 737T404 698Q404 680 394 670T366 659Q344 659 335 672T318 711Q314 725 310 731T294 737Q284 737 272 728T248 698T224 640T203 549L196 505H313L306 474H191L131 128Q103 -34 57 -119T-62 -205Z" />
<glyph unicode="g" glyph-name="g" horiz-adv-x="461" d="M148 -203Q109 -203 73 -196T9 -173T-36 -135T-53 -81Q-53 -30 -15 1T89 49V51Q44 70 44 113Q44 145 67 168T128 208V210Q98 227 81 255T64 322Q64 368 81 404T125 467T188 507T258 521Q291 521 317 512T363
485Q386 506 409 521T458 537Q480 537 492 525T505 493Q505 476 494 465T467 453Q441 453 429 483Q425 494 419 496T406 497T391 488T373 474V472Q391 455 400 431T410 374Q410 329 394 295T350 236T288 200T216 187Q178 187 144 200Q127 190 114 174T100 141Q100
119 114 113T155 104L265 95Q404 83 404 -16Q404 -51 387 -84T337 -144T257 -187T148 -203ZM160 -184Q204 -184 237 -174T292 -145T326 -104T338 -56Q338 -16 318 4T249 30L110 43Q93 36 77 25T47 -1T27 -35T19 -76Q19 -125 54 -154T160 -184ZM217 205Q245 205
267 219T305 258T329 320T338 399Q338 450 320 476T256 503Q227 503 205 487T168 442T144 378T136 302Q136 205 217 205Z" />
<glyph unicode="h" glyph-name="h" horiz-adv-x="516" d="M353 -8Q314 -8 314 33Q314 50 317 69T326 109L377 335Q386 376 390 403T392 445T383 467T362 474Q342 474 318 460T268 423T216 373T166 319L95 0H19L158 667Q163 690 156 699T126 719L90 734L91 740L246
755L250 752Q246 736 242 717Q238 700 234 679T225 631L192 460Q184 422 178 395T165 344H167Q197 380 227 412T285 468T342 507T396 521Q433 521 451 499T469 436Q469 420 464 393T451 329L400 103Q398 92 395 78T392 53Q392 39 406 39T457 59L485 75L490 68Q464
45 444 30T408 7T379 -5T353 -8Z" />
<glyph unicode="i" glyph-name="i" horiz-adv-x="250" d="M81 -8Q58 -8 49 5T39 37Q39 54 41 67T51 109L118 407Q124 434 124 452Q124 465 112 467T67 448L39 429L34 436Q60 462 80 478T117 504T145 517T166 521Q184 521 195 510T207 481Q207 465 201 439T188
380L125 103Q123 92 120 79T117 53Q117 39 132 38T182 58L210 75L215 68Q136 -8 81 -8ZM187 605Q164 605 150 620T136 655Q136 675 150 689T186 704Q209 704 223 690T238 654Q238 635 224 620T187 605Z" />
<glyph unicode="j" glyph-name="j" horiz-adv-x="242" d="M183 605Q160 605 146 620T131 655Q131 675 145 689T182 704Q204 704 218 690T233 654Q233 635 219 620T183 605ZM113 -12Q93 -116 47 -162T-57 -208Q-105 -208 -128 -192T-151 -148Q-151 -130 -140 -118T-105
-105Q-67 -105 -61 -155Q-59 -173 -55 -182T-38 -191Q-19 -191 -1 -162T31 -62L113 407Q115 421 117 432T119 452Q119 465 107 467T62 448L34 429L29 436Q55 462 75 478T112 504T140 517T161 521Q179 521 190 510T202 481Q202 464 197 438T186 380L113 -12Z" />
<glyph unicode="k" glyph-name="k" horiz-adv-x="468" d="M319 -8Q295 -8 281 7T249 61Q232 101 216 149T179 267V270Q211 316 243 361T308 441T371 499T431 521Q458 521 470 507T483 477Q483 457 472 445T440 432Q425 432 417 438T404 451T395 465T384 471Q374
471 357 458T320 424T278 375T235 317Q247 279 257 249T277 193T297 143T318 92Q326 73 333 62T351 46T374 45T408 61L434 76L439 69Q404 34 372 13T319 -8ZM158 667Q163 690 157 699T126 719L90 734L91 740L246 755L250 752Q247 736 243 717Q239 700 235 679T225
631L94 0H19L158 667Z" />
<glyph unicode="l" glyph-name="l" horiz-adv-x="242" d="M156 667Q161 690 155 699T124 719L88 734L89 740L244 755L248 752Q244 736 240 717Q236 700 232 679T223 631L120 103Q118 92 116 80T114 57Q114 40 129 39T186 64L214 81L219 74Q179 36 142 14T74 -8Q52
-8 43 4T34 33Q34 48 37 68T46 109L156 667Z" />
<glyph unicode="m" glyph-name="m" horiz-adv-x="781" d="M618 -8Q579 -8 579 33Q579 50 582 69T591 109L641 327Q660 409 659 441T631 474Q613 474 591 462T545 431T497 386T449 334L374 0H299L372 327Q390 409 389 441T362 474Q346 474 324 461T277 426T227
378T178 324L106 0H30L116 407Q118 418 120 429T122 449Q122 466 110 468T65 448L37 429L32 436Q80 486 112 503T164 521Q178 521 189 512T200 483Q200 470 198 453T192 418T184 381T177 347H179Q211 384 239 416T294 471T345 508T394 521Q434 521 449 498T464
439Q464 422 462 403T454 364H456Q482 395 508 423T561 474T612 508T660 521Q698 521 715 500T733 439Q733 423 729 394T716 329L665 103Q663 92 660 78T657 53Q657 39 671 39T722 59L750 75L755 68Q729 45 709 30T673 7T644 -5T618 -8Z" />
<glyph unicode="n" glyph-name="n" horiz-adv-x="527" d="M364 -8Q325 -8 325 33Q325 50 328 69T337 109L388 335Q397 376 401 403T403 446T394 468T373 475Q353 475 329 461T279 424T227 373T177 319L106 0H30L116 407Q118 418 120 430T122 452Q122 464 111 467T65
448L37 429L32 436Q80 486 112 503T164 521Q178 521 189 512T200 483Q200 470 198 453T192 416T184 378T176 344H178Q208 380 238 412T296 468T353 507T407 521Q444 521 462 499T480 436Q480 420 475 393T462 329L411 103Q409 92 406 78T403 53Q403 39 417 39T468
59L496 75L501 68Q475 45 455 30T419 7T390 -5T364 -8Z" />
<glyph unicode="o" glyph-name="o" horiz-adv-x="491" d="M197 -10Q158 -10 126 5T70 48T34 111T21 191Q21 270 47 331T113 435T201 499T293 521Q332 521 365 506T421 463T457 400T470 320Q470 239 444 177T379 74T291 11T197 -10ZM197 8Q237 8 272 35T333 110T374
220T390 351Q390 430 366 466T293 503Q255 503 220 477T159 404T117 295T101 160Q101 81 125 45T197 8Z" />
<glyph unicode="p" glyph-name="p" horiz-adv-x="519" d="M-72 -188L-34 -179Q-13 -174 -6 -164T7 -124L109 402Q112 416 114 430T116 452Q116 465 104 467T59 448L31 429L26 436Q75 486 106 503T157 521Q196 521 196 472Q196 464 194 450T189 418T181 381T171
345H173Q193 373 218 404T271 461T332 504T397 521Q448 521 474 484T500 378Q500 288 474 216T407 94T314 17T210 -10Q172 -10 148 -5T106 9Q106 5 104 -17T96 -62L84 -124Q78 -155 82 -165T109 -179L151 -188L150 -196H-74L-72 -188ZM212 7Q255 7 292 35T358 112T402
227T419 369Q419 424 407 452T366 481Q342 481 316 465T265 425T215 372T169 316L119 61Q147 7 212 7Z" />
<glyph unicode="q" glyph-name="q" horiz-adv-x="516" d="M199 -188L246 -178Q265 -174 272 -164T286 -124L314 15Q323 60 331 93T346 151H343Q321 120 297 91T246 40T189 4T122 -10Q77 -10 48 23T19 116Q19 198 48 271T122 400T222 488T329 521Q368 521 399 511T453
486H456L496 522L504 519Q499 505 492 484Q486 465 478 436T462 364L363 -122Q356 -154 361 -165T388 -181L419 -188L418 -196H197L199 -188ZM163 30Q185 30 209 43T258 77T305 126T348 182L405 463Q395 482 376 493T330 504Q289 504 248 471T174 382T121 257T100
114Q100 67 116 49T163 30Z" />
<glyph unicode="r" glyph-name="r" horiz-adv-x="390" d="M116 407Q118 417 120 430T122 452Q122 466 110 468T65 448L37 429L32 436Q77 482 109 501T164 521Q180 521 190 511T200 483Q200 466 197 443T188 395T177 346T166 300H169Q193 340 218 379T268 450T319
501T366 521Q391 521 403 509T416 474Q416 454 404 440T372 425Q358 425 350 429T335 438T324 448T312 452Q305 452 291 439T256 400T213 341T165 265L106 0H30L116 407Z" />
<glyph unicode="s" glyph-name="s" horiz-adv-x="365" d="M131 -10Q57 -10 24 12T-9 65Q-9 82 1 93T31 105Q48 105 59 96T78 57Q86 30 99 20T142 9Q163 9 181 16T212 37T234 69T242 108Q242 126 238 140T224 169T199 198T160 232Q109 274 90 306T70 372Q70 405
83 432T120 479T174 510T239 521Q296 521 328 502T360 454Q360 435 350 425T322 414Q301 414 291 426T273 463Q266 484 258 493T226 502Q205 502 187 494T157 473T137 441T130 404Q130 389 134 377T148 351T175 321T219 284Q264 249 286 217T308 145Q308 112 295
84T259 34T204 2T131 -10Z" />
<glyph unicode="t" glyph-name="t" horiz-adv-x="294" d="M90 -8Q65 -8 51 6T36 47Q36 61 38 78T45 112L122 474H52L54 483L128 504L146 588L219 616H227L204 505H318L310 474H197L122 117Q119 104 117 91T115 69Q115 33 139 36T229 84L251 99L258 91Q210 43 167
18T90 -8Z" />
<glyph unicode="u" glyph-name="u" horiz-adv-x="511" d="M119 -10Q89 -10 65 9T41 74Q41 94 44 116T56 176L110 413Q112 422 113 430T115 449Q115 464 101 465T58 448L30 429L25 436Q50 461 69 477T104 503T130 517T153 521Q194 521 194 476Q194 453 190 435T180
388L133 178Q124 136 121 108T121 63T132 39T153 32Q188 32 237 75T342 187L410 505H485L400 103Q397 88 395 77T393 57Q393 23 456 59L484 75L489 68Q441 23 410 8T354 -8Q337 -8 326 3T314 37Q314 63 322 95T339 156H337Q272 73 222 32T119 -10Z" />
<glyph unicode="v" glyph-name="v" horiz-adv-x="445" d="M120 0Q120 81 119 140T117 244T113 323T107 387Q100 445 88 458T43 450L13 429L8 436Q47 481 73 501T125 521Q154 521 166 495T183 405Q186 374 188 341T191 268T194 183T195 79H198Q238 122 274 170T338
261T382 340T398 394Q398 410 392 419T378 436T364 453T358 478Q358 497 370 509T400 521Q421 521 434 509T448 471Q448 405 377 285T152 0H120V0Z" />
<glyph unicode="w" glyph-name="w" horiz-adv-x="679" d="M429 403Q430 373 431 340T433 267T433 182T430 81H432Q472 124 508 171T572 262T616 341T632 394Q632 410 626 419T612 436T598 453T592 478Q592 497 604 509T634 521Q655 521 668 509T682 471Q682 405
611 285T386 0H359Q360 53 360 95T361 173T361 237T360 290H359Q341 259 318 224T268 151T211 75T149 0H116Q116 81 116 140T114 244T112 323T107 387Q102 444 89 458T43 450L13 429L8 436Q46 478 71 499T123 521Q154 521 165 492T182 407Q188 344 190 265T189
80H191Q237 138 281 201T358 327Q358 332 358 340T358 357T357 374T356 386Q352 445 340 458T298 450L268 429L263 436Q301 479 326 500T374 521Q402 521 414 492T429 403Z" />
<glyph unicode="x" glyph-name="x" horiz-adv-x="450" d="M195 244Q187 285 177 328T158 408Q152 432 147 446T135 466T115 467T81 448L53 429L48 436Q92 481 121 501T170 521Q196 521 206 504T227 446Q232 425 235 408T242 374T249 342T256 307H257Q285 360 309
404T351 471Q368 494 386 507T428 521Q451 521 463 509T476 480Q476 462 466 450T433 437Q423 437 417 440T405 448T396 456T386 460Q379 460 371 453T355 435Q333 405 312 370T261 278Q269 237 279 189T299 105Q305 81 310 67T322 47T342 46T376 65L404 84L409
77Q365 32 336 12T287 -8Q261 -8 251 9T230 67L200 212H199Q185 186 172 160T145 111T121 70T101 40Q84 17 66 4T24 -10Q1 -10 -11 2T-24 31Q-24 49 -14 61T19 74Q29 74 35 71T47 63T56 55T66 51Q79 51 97 75Q119 105 142 146T195 244Z" />
<glyph unicode="y" glyph-name="y" horiz-adv-x="442" d="M188 405Q200 321 208 227T221 48H224Q267 106 301 159T358 257T394 335T406 391Q406 406 399 415T383 433T367 452T359 478Q359 497 371 509T401 521Q422 521 435 507T449 467Q449 422 432 370T383 260T311
140T221 12Q174 -52 137 -94T69 -162T10 -197T-47 -207Q-77 -207 -94 -193T-112 -157Q-112 -138 -99 -126T-65 -113Q-49 -113 -41 -121T-26 -139T-13 -157T4 -166Q29 -166 64 -138T154 -43Q144 100 133 209T111 387Q106 416 102 433T90 458T73 464T47 450L17 429L12
436Q51 481 77 501T129 521Q157 521 168 494T188 405Z" />
<glyph unicode="z" glyph-name="z" horiz-adv-x="410" d="M246 -10Q220 -10 196 2T148 29T104 56T61 68Q44 68 31 52T-11 -8H-14L-39 15V18Q-19 33 -5 45T22 69T44 92T65 115L331 400Q300 406 270 416T213 436T160 454T114 462Q100 462 100 453Q100 448 106 445T121
438T136 426T143 406Q143 392 132 382T102 371Q82 371 71 383T60 415Q60 434 70 453T98 487T139 511T187 521Q212 521 236 508T282 480T322 452T355 439Q373 439 387 456T420 512H423L448 491V488Q423 469 401 445T361 401L89 109Q114 107 141 100T193 85T241 70T279
63Q292 63 302 65T322 74T343 93T369 126L378 121Q363 94 349 70T319 29T286 1T246 -10Z" />
<glyph unicode="{" glyph-name="braceleft" horiz-adv-x="309" d="M234 -130Q189 -125 158 -118T106 -101T77 -74T68 -33Q68 -9 83 27T118 100T152 171T168 222Q168 256 144 275T53 306L57 325Q131 326 165 348T199 410Q199 433 195 461T186 518T177 577T173 634Q173
662 184 680T221 710T285 727T378 735L377 727Q333 722 307 715T266 697T247 672T243 639Q243 615 244 586T248 527T251 468T253 415Q253 399 245 383T219 353T171 328T95 314V310Q159 297 187 274T216 216Q216 196 204 164T177 95T150 22T138 -44Q138 -61 142
-72T158 -92T188 -107T236 -123L234 -130V-130Z" />
<glyph unicode="|" glyph-name="bar" horiz-adv-x="175" d="M75 734H100V-130H75V734Z" />
<glyph unicode="}" glyph-name="braceright" horiz-adv-x="309" d="M94 735Q139 730 170 723T222 706T251 679T260 638Q260 614 245 578T210 505T176 434T160 383Q160 366 165 353T184 330T219 313T275 299L271 280Q197 279 163 257T129 195Q129 172 133 144T142
87T151 28T155 -29Q155 -57 144 -75T107 -105T43 -123T-50 -130L-49 -122Q-5 -117 21 -110T62 -92T80 -67T85 -34Q85 -10 84 19T80 78T77 137T75 190Q75 206 83 222T109 253T157 277T233 292V296Q169 309 141 331T112 389Q112 409 124 441T151 510T178 583T190
649Q190 666 186 677T170 696T140 712T92 728L94 735V735Z" />
<glyph unicode="~" glyph-name="asciitilde" horiz-adv-x="350" d="M29 232Q55 281 77 310T132 340Q149 340 166 335T202 324T237 312T270 307Q296 307 325 356L335 351Q309 301 286 272T233 243Q214 243 196 248T160 260T127 271T96 277Q80 277 67 264T40 227L29 232Z" />
<glyph unicode="&#xa0;" glyph-name="uni00A0" horiz-adv-x="206" />
<glyph unicode="&#xa1;" glyph-name="exclamdown" horiz-adv-x="240" d="M119 -29Q117 -56 102 -69T64 -82Q38 -82 23 -63T17 -9L148 433H158L119 -29ZM225 573Q225 552 210 537T174 522Q153 522 138 537T123 573Q123 594 138 609T174 624Q195 624 210 609T225 573Z" />
<glyph unicode="&#xa2;" glyph-name="cent" horiz-adv-x="434" d="M164 -10Q98 -10 56 28T14 142Q14 212 36 274T96 387T182 470T283 515L299 596H320L305 519Q311 520 317 520T331 521Q388 521 414 501T440 450Q440 428 428 416T395 403Q369 403 356 417T341
473Q340 501 315 501Q311 501 308 501T301 500L208 22Q230 25 249 31T285 48T319 74T355 107L362 99Q333 63 294 33T203 -6L183 -108H163L182 -9Q177 -9 173 -9T164 -10ZM94 138Q94 81 119 51T183 21H188L279 495Q242 483 209 448T150 365T109 257T94 138Z" />
<glyph unicode="&#xa3;" glyph-name="sterling" horiz-adv-x="459" d="M47 369H117Q115 398 115 426T114 481Q114 526 130 566T176 637T249 685T346 703Q413 703 442 682T472 629Q472 611 460 599T428 586Q392 586 384 630Q379 660 370 671T330 683Q282 683 246
642T199 516Q195 487 194 447T190 369H365L360 348H189L186 259Q183 227 175 204T152 160T111 120T49 77V72H310Q325 72 336 74T357 84T380 107T411 150H418L374 0H-27L-16 56Q25 77 52 96T94 139T116 190T122 258Q122 274 121 297T118 348H42L47 369Z" />
<glyph unicode="&#xa5;" glyph-name="yen" horiz-adv-x="519" d="M67 321H221L125 614Q119 631 115 642T107 661T95 672T78 679L60 684L62 693H275L273 684L249 677Q243 675 235 673T219 666T206 654T200 637Q200 627 202 616T211 585L290 341H292L442 583Q455
603 461 619T468 645Q468 656 461 662T435 675L407 684L409 693H584L582 684L559 673Q542 665 532 659T514 642T494 616T465 571L306 321H460L457 301H301L285 213H440L437 193H281L258 64Q253 39 260 30T295 16L331 9L330 0H87L89 9L129 17Q154 22 162 30T176
63L200 193H43L47 213H203L220 301H63L67 321Z" />
<glyph unicode="&#xa6;" glyph-name="brokenbar" horiz-adv-x="203" d="M131 329H106V734H131V329ZM106 253H131V-130H106V253Z" />
<glyph unicode="&#xa7;" glyph-name="section" horiz-adv-x="508" d="M341 12Q347 -5 347 -31Q347 -65 333 -96T294 -152T234 -190T157 -204Q92 -204 63 -182T34 -129Q34 -111 45 -99T76 -87Q94 -87 105 -98T120 -136Q123 -165 134 -175T169 -186Q193 -186 214
-177T250 -152T275 -112T284 -61Q284 -36 276 -14T251 31T214 78T165 133Q135 166 113 192T75 243T51 289T43 335Q43 381 72 419T167 483Q164 491 163 502T161 526Q161 560 175 591T214 647T274 685T351 699Q416 699 445 677T474 624Q474 606 463 594T432 582Q414
582 403 593T388 631Q385 660 374 670T339 681Q315 681 294 672T258 647T233 607T224 556Q224 530 232 508T257 464T294 417T343 362Q373 329 395 303T433 252T457 206T465 160Q465 114 436 76T341 12ZM337 24Q367 41 384 68T402 122Q402 145 395 165T372 206T336
251T287 308Q251 350 219 389T171 471Q141 454 124 427T106 373Q106 350 113 330T136 289T172 244T221 187Q257 145 289 106T337 24Z" />
<glyph unicode="&#xa8;" glyph-name="dieresis" horiz-adv-x="450" d="M182 591Q160 591 146 605T132 639Q132 660 146 673T181 687Q202 687 216 673T230 639Q230 619 217 605T182 591ZM353 591Q331 591 317 605T303 639Q303 660 317 673T352 687Q374 687 387
673T401 639Q401 619 388 605T353 591Z" />
<glyph unicode="&#xa9;" glyph-name="copyright" horiz-adv-x="765" d="M395 138Q359 138 327 149T270 186T231 249T216 341Q216 399 233 439T277 505T340 541T414 552Q449 552 476 548T522 538L527 422H517Q510 443 503 462T488 495Q477 518 458 525T407 533Q347
533 317 491T287 353Q287 250 314 203T397 156Q438 156 459 166T490 194Q500 213 505 230T519 270H528L522 164Q503 154 470 146T395 138ZM42 343Q42 417 70 482T146 595T258 671T397 699Q471 699 535 671T648 595T723 482T751 343Q751 269 724 204T648 91T536
15T397 -13Q323 -13 259 15T146 91T70 204T42 343ZM67 343Q67 275 93 215T164 109T269 38T397 11Q465 11 525 37T629 109T700 214T726 343Q726 411 700 471T630 577T525 648T397 674Q329 674 269 648T164 577T93 472T67 343Z" />
<glyph unicode="&#xaa;" glyph-name="ordfeminine" horiz-adv-x="432" d="M144 269Q100 269 78 299T56 376Q56 443 80 502T140 604T221 673T304 699Q329 698 352 690T393 665H396L436 702L444 698Q439 688 434 671Q429 656 423 632T410 573L372 366Q369 352 369
342Q367 316 380 316T425 333L450 346L454 339Q442 328 427 316T396 295T364 279T333 272Q316 272 305 283T293 316Q293 334 298 357T309 398H306Q291 377 274 354T236 312T192 281T144 269ZM172 306Q190 306 209 318T247 349T283 391T316 436L354 634Q349 653
337 667T298 681Q270 681 240 657T184 592T143 497T125 382Q125 349 136 328T172 306Z" />
<glyph unicode="&#xab;" glyph-name="guillemotleft" horiz-adv-x="384" d="M168 249L172 266L368 445H378L245 248L315 60H305L168 249ZM22 249L26 266L222 445H232L99 248L169 60H159L22 249Z" />
<glyph unicode="&#xae;" glyph-name="registered" horiz-adv-x="383" d="M57 519Q57 556 71 589T109 647T166 686T237 700Q274 700 307 686T365 647T404 589T418 519Q418 481 404 449T365 392T307 353T237 339Q199 339 167 353T110 391T71 448T57 519ZM79 519Q79
486 91 457T125 406T175 372T237 359Q270 359 299 371T349 404T383 455T396 519Q396 552 384 581T350 632T299 667T237 680Q204 680 175 667T125 633T92 582T79 519ZM150 434L165 437Q170 439 171 442T173 453V591Q173 600 172 603T165 608L151 611V618H237Q310
618 310 568Q310 548 299 536T268 519V517Q277 498 289 480T312 447Q315 444 318 441T326 436L337 434V426H285Q269 446 258 467T237 509H210V453Q210 445 211 442T219 437L233 434V426H150V434ZM231 521Q254 521 263 533T273 565Q273 605 233 605H210V521H231Z"
/>
<glyph unicode="&#xaf;" glyph-name="macron" horiz-adv-x="450" d="M156 640H380L374 602H149L156 640Z" />
<glyph unicode="&#xb0;" glyph-name="degree" horiz-adv-x="292" d="M79 581Q79 606 88 628T114 666T152 692T199 702Q224 702 246 693T284 667T310 628T320 581Q320 556 311 534T285 496T246 471T199 461Q174 461 152 470T114 496T89 534T79 581ZM102 581Q102
539 129 511T199 483Q241 483 269 511T297 581Q297 623 269 651T199 680Q157 680 130 652T102 581Z" />
<glyph unicode="&#xb2;" glyph-name="twosuperior" horiz-adv-x="252" d="M24 378Q55 401 82 422T131 462Q174 500 199 539T224 621Q224 656 210 670T178 684Q161 684 153 677T143 655Q140 635 133 624T108 613Q79 613 79 640Q79 664 106 682T177 700Q231 700
259 675T287 610Q287 577 271 550T225 497T156 448T70 397V394H199Q209 394 215 395T226 401T237 414T250 435H258L234 350H18L24 378Z" />
<glyph unicode="&#xb3;" glyph-name="threesuperior" horiz-adv-x="258" d="M135 345Q82 345 57 361T32 400Q32 412 39 421T61 430Q86 430 92 399Q97 377 105 369T136 361Q168 361 188 389T208 459Q208 470 206 480T197 499T180 513T152 518H131L134 535H153Q191
535 210 562T229 631Q229 684 182 684Q166 684 160 679T149 659Q143 635 136 626T111 617Q85 617 85 645Q85 664 107 682T176 700Q236 700 263 676T290 619Q290 584 264 561T192 529V526Q230 521 251 502T273 451Q273 430 264 411T237 378T194 354T135 345Z" />
<glyph unicode="&#xb4;" glyph-name="acute" horiz-adv-x="451" d="M169 575L165 582L287 687Q303 702 318 702Q336 702 346 690T357 664Q357 652 350 641T326 624L169 575Z" />
<glyph unicode="&#xb6;" glyph-name="paragraph" horiz-adv-x="501" d="M273 348Q267 347 259 347T239 348Q160 348 115 389T69 502Q69 542 83 577T125 638T193 678T287 693H549L547 684L497 674Q479 670 473 660T460 616L334 -100H306L441 670H358L223 -100H195L273
348Z" />
<glyph unicode="&#xb7;" glyph-name="periodcentered" horiz-adv-x="204" d="M56 338Q56 360 72 376T110 392Q132 392 148 376T164 338Q164 316 148 300T110 284Q88 284 72 300T56 338Z" />
<glyph unicode="&#xb8;" glyph-name="cedilla" horiz-adv-x="450" d="M81 -196Q134 -185 157 -167T180 -126Q180 -112 167 -104T130 -91L126 -83L186 0H216L172 -52Q198 -56 220 -70T242 -114Q242 -152 201 -173T81 -205V-196V-196Z" />
<glyph unicode="&#xb9;" glyph-name="onesuperior" horiz-adv-x="188" d="M38 358L57 363Q73 367 78 372T88 398L130 633L86 639L87 646Q125 654 149 666T197 699L202 698L149 397Q145 377 148 372T165 363L185 358L183 350H36L38 358Z" />
<glyph unicode="&#xba;" glyph-name="ordmasculine" horiz-adv-x="417" d="M214 272Q176 272 148 285T101 321T73 373T63 435Q63 499 83 548T136 631T206 682T280 699Q317 699 345 686T393 650T421 598T431 537Q431 471 411 422T359 339T289 289T214 272ZM212
292Q245 292 272 314T318 375T348 464T359 570Q359 621 340 651T280 682Q247 682 221 660T175 601T145 513T134 406Q134 351 153 322T212 292Z" />
<glyph unicode="&#xbb;" glyph-name="guillemotright" horiz-adv-x="383" d="M216 256L212 239L16 60H6L139 257L69 445H79L216 256ZM361 256L357 239L161 60H151L284 257L214 445H224L361 256Z" />
<glyph unicode="&#xbc;" glyph-name="onequarter" horiz-adv-x="580" d="M38 358L57 363Q73 367 78 372T88 398L130 633L86 639L87 646Q125 654 149 666T197 699L202 698L149 397Q145 377 148 372T165 363L185 358L183 350H36L38 358ZM574 714H601L21 -50H-8L574
714ZM378 9L398 13Q412 16 414 22T421 48L430 100H290L294 119L502 343H533L495 125H545L538 100H490L481 47Q477 27 480 21T494 13L515 9L513 0H376L378 9ZM434 125L459 264H457L327 126V125H434Z" />
<glyph unicode="&#xbd;" glyph-name="onehalf" horiz-adv-x="580" d="M38 358L57 363Q73 367 78 372T88 398L130 633L86 639L87 646Q125 654 149 666T197 699L202 698L149 397Q145 377 148 372T165 363L185 358L183 350H36L38 358ZM554 714H581L1 -50H-28L554
714ZM292 28Q323 51 350 72T399 112Q442 150 467 189T492 271Q492 306 478 320T446 334Q429 334 421 327T411 305Q408 285 401 274T376 263Q347 263 347 290Q347 314 374 332T445 350Q499 350 527 325T555 260Q555 227 539 200T493 147T424 98T338 47V44H467Q477
44 483 45T494 51T505 64T518 85H526L502 0H286L292 28Z" />
<glyph unicode="&#xbe;" glyph-name="threequarters" horiz-adv-x="590" d="M603 714H630L50 -50H21L603 714ZM388 9L408 13Q422 16 424 22T431 48L440 100H300L304 119L512 343H543L505 125H555L548 100H500L491 47Q487 27 490 21T504 13L525 9L523 0H386L388
9ZM444 125L469 264H467L337 126V125H444ZM135 345Q82 345 57 361T32 400Q32 412 39 421T61 430Q86 430 92 399Q97 377 105 369T136 361Q168 361 188 389T208 459Q208 470 206 480T197 499T180 513T152 518H131L134 535H153Q191 535 210 562T229 631Q229 684 182
684Q166 684 160 679T149 659Q143 635 136 626T111 617Q85 617 85 645Q85 664 107 682T176 700Q236 700 263 676T290 619Q290 584 264 561T192 529V526Q230 521 251 502T273 451Q273 430 264 411T237 378T194 354T135 345Z" />
<glyph unicode="&#xbf;" glyph-name="questiondown" horiz-adv-x="364" d="M263 236Q157 222 109 175T61 61Q61 28 71 5T98 -34T134 -56T174 -64Q197 -64 206 -56T224 -22Q232 2 244 11T270 21Q288 21 299 11T311 -17Q311 -27 305 -38T286 -60T250 -76T195 -83Q159
-83 126 -72T68 -40T27 14T12 89Q12 139 31 177T84 243T160 288T252 312L274 434H296L263 236ZM349 573Q349 552 334 537T298 522Q277 522 262 537T247 573Q247 594 262 609T298 624Q319 624 334 609T349 573Z" />
<glyph unicode="&#xc0;" glyph-name="Agrave" horiz-adv-x="577" d="M-54 9L-39 13Q-24 17 -15 21T5 37T26 69T57 126L352 693H389L467 111Q471 82 474 66T482 40T497 25T521 14L535 9L533 0H317L319 9L342 15Q359 20 368 24T382 39Q387 49 387 65T384 107L365
261H155L82 119Q57 70 57 49Q57 32 68 26T95 15L119 9L117 0H-56L-54 9ZM166 282H362L325 587H322L166 282ZM460 722L289 768Q273 772 263 782T252 805Q252 820 262 831T288 842Q301 842 318 831L464 730L460 722Z" />
<glyph unicode="&#xc1;" glyph-name="Aacute" horiz-adv-x="577" d="M-54 9L-39 13Q-24 17 -15 21T5 37T26 69T57 126L352 693H389L467 111Q471 82 474 66T482 40T497 25T521 14L535 9L533 0H317L319 9L342 15Q359 20 368 24T382 39Q387 49 387 65T384 107L365
261H155L82 119Q57 70 57 49Q57 32 68 26T95 15L119 9L117 0H-56L-54 9ZM166 282H362L325 587H322L166 282ZM283 732L429 831Q446 842 459 842Q477 842 486 831T496 805Q496 792 486 782T459 768L287 724L283 732Z" />
<glyph unicode="&#xc2;" glyph-name="Acircumflex" horiz-adv-x="577" d="M-54 9L-39 13Q-24 17 -15 21T5 37T26 69T57 126L352 693H389L467 111Q471 82 474 66T482 40T497 25T521 14L535 9L533 0H317L319 9L342 15Q359 20 368 24T382 39Q387 49 387 65T384 107L365
261H155L82 119Q57 70 57 49Q57 32 68 26T95 15L119 9L117 0H-56L-54 9ZM166 282H362L325 587H322L166 282ZM234 728L374 846H405L496 729L491 723L380 779L238 722L234 728Z" />
<glyph unicode="&#xc3;" glyph-name="Atilde" horiz-adv-x="577" d="M-54 9L-39 13Q-24 17 -15 21T5 37T26 69T57 126L352 693H389L467 111Q471 82 474 66T482 40T497 25T521 14L535 9L533 0H317L319 9L342 15Q359 20 368 24T382 39Q387 49 387 65T384 107L365
261H155L82 119Q57 70 57 49Q57 32 68 26T95 15L119 9L117 0H-56L-54 9ZM166 282H362L325 587H322L166 282ZM235 729Q246 754 255 773T274 805T297 824T328 831Q345 831 363 827T400 819T436 810T469 806Q485 806 498 816T526 851L535 847Q513 796 494 772T440
747Q423 747 406 750T371 758T336 767T304 771Q287 771 273 761T243 725L235 729Z" />
<glyph unicode="&#xc4;" glyph-name="Adieresis" horiz-adv-x="577" d="M-54 9L-39 13Q-24 17 -15 21T5 37T26 69T57 126L352 693H389L467 111Q471 82 474 66T482 40T497 25T521 14L535 9L533 0H317L319 9L342 15Q359 20 368 24T382 39Q387 49 387 65T384 107L365
261H155L82 119Q57 70 57 49Q57 32 68 26T95 15L119 9L117 0H-56L-54 9ZM166 282H362L325 587H322L166 282ZM293 737Q272 737 259 751T245 784Q245 804 258 817T293 830Q313 830 326 817T340 783Q340 765 327 751T293 737ZM461 737Q440 737 426 751T412 784Q412
804 425 817T460 830Q481 830 494 817T508 783Q508 765 495 751T461 737Z" />
<glyph unicode="&#xc5;" glyph-name="Aring" horiz-adv-x="577" d="M-54 9L-39 13Q-24 17 -15 21T5 37T26 69T57 126L352 693H389L467 111Q471 82 474 66T482 40T497 25T521 14L535 9L533 0H317L319 9L342 15Q359 20 368 24T382 39Q387 49 387 65T384 107L365
261H155L82 119Q57 70 57 49Q57 32 68 26T95 15L119 9L117 0H-56L-54 9ZM166 282H362L325 587H322L166 282ZM300 797Q300 829 322 851T380 874Q415 874 438 852T461 797Q461 765 438 743T380 721Q345 721 323 743T300 797ZM323 797Q323 774 338 757T380 740Q406
740 422 757T438 797Q438 820 422 837T380 855Q354 855 339 838T323 797Z" />
<glyph unicode="&#xc6;" glyph-name="AE" horiz-adv-x="841" d="M841 535H832Q824 557 815 579T798 617Q787 637 778 648T753 665T713 672T651 674Q609 674 586 672T549 665L498 370H552Q583 370 602 372T634 378T654 390T667 407Q675 423 681 436T697 474H706L665
247H656Q654 271 654 281T651 306Q649 322 644 330T627 343T592 349T534 350H494L454 123Q447 84 446 63T455 33T492 21T566 19Q606 19 631 21T672 29T700 45T723 70Q733 82 744 98T767 130T787 163T805 192H815L762 0H277L278 8L317 16Q340 21 348 30T362 62L395
250H197L93 97Q76 73 71 61T65 41Q65 30 74 26T100 17L132 9L131 0H-56L-54 9L-38 14Q-19 20 -7 25T16 42T40 71T75 121L452 670L437 674L388 684L389 693H839L841 535ZM211 271H398L462 630Q462 633 462 635T464 641H463L211 271Z" />
<glyph unicode="&#xc7;" glyph-name="Ccedilla" horiz-adv-x="569" d="M292 -10Q165 -10 97 61T28 258Q28 352 57 433T138 575T259 669T407 703Q470 703 510 694T581 668L564 505H554Q547 531 540 556T523 607Q514 631 504 645T479 668T446 680T402 683Q334 683
281 647T191 549T135 408T116 241Q116 124 164 67T296 9Q348 9 382 29T442 78Q463 103 480 132T519 201H529L485 22Q456 8 407 -1T292 -10ZM139 -196Q192 -185 215 -167T238 -126Q238 -112 225 -104T188 -91L184 -83L244 0H274L230 -52Q256 -56 278 -70T300 -114Q300
-152 259 -173T139 -205V-196V-196Z" />
<glyph unicode="&#xc8;" glyph-name="Egrave" horiz-adv-x="533" d="M456 722L285 768Q269 772 259 782T248 805Q248 820 258 831T284 842Q297 842 314 831L460 730L456 722ZM-20 8L19 16Q42 21 50 30T64 62L164 630Q169 655 163 663T134 676L100 684L101 693H541L543
535H534Q526 557 517 579T500 617Q489 637 480 648T455 665T415 672T353 674Q311 674 288 672T251 665L200 370H254Q285 370 304 372T336 378T356 390T369 407Q377 423 383 436T399 474H408L367 247H358Q356 271 356 281T353 306Q351 322 346 330T329 343T294 349T236
350H196L156 123Q149 84 148 63T157 33T194 21T268 19Q308 19 333 21T374 29T402 45T425 70Q435 82 446 98T469 130T489 163T507 192H517L464 0H-21L-20 8Z" />
<glyph unicode="&#xc9;" glyph-name="Eacute" horiz-adv-x="533" d="M250 732L396 831Q413 842 426 842Q444 842 453 831T463 805Q463 792 453 782T426 768L254 724L250 732ZM-30 8L9 16Q32 21 40 30T54 62L154 630Q159 655 153 663T124 676L90 684L91 693H531L533
535H524Q516 557 507 579T490 617Q479 637 470 648T445 665T405 672T343 674Q301 674 278 672T241 665L190 370H244Q275 370 294 372T326 378T346 390T359 407Q367 423 373 436T389 474H398L357 247H348Q346 271 346 281T343 306Q341 322 336 330T319 343T284 349T226
350H186L146 123Q139 84 138 63T147 33T184 21T258 19Q298 19 323 21T364 29T392 45T415 70Q425 82 436 98T459 130T479 163T497 192H507L454 0H-31L-30 8Z" />
<glyph unicode="&#xca;" glyph-name="Ecircumflex" horiz-adv-x="533" d="M221 728L361 846H392L483 729L478 723L367 779L225 722L221 728ZM-20 8L19 16Q42 21 50 30T64 62L164 630Q169 655 163 663T134 676L100 684L101 693H541L543 535H534Q526 557 517 579T500
617Q489 637 480 648T455 665T415 672T353 674Q311 674 288 672T251 665L200 370H254Q285 370 304 372T336 378T356 390T369 407Q377 423 383 436T399 474H408L367 247H358Q356 271 356 281T353 306Q351 322 346 330T329 343T294 349T236 350H196L156 123Q149 84
148 63T157 33T194 21T268 19Q308 19 333 21T374 29T402 45T425 70Q435 82 446 98T469 130T489 163T507 192H517L464 0H-21L-20 8Z" />
<glyph unicode="&#xcb;" glyph-name="Edieresis" horiz-adv-x="533" d="M-20 8L19 16Q42 21 50 30T64 62L164 630Q169 655 163 663T134 676L100 684L101 693H541L543 535H534Q526 557 517 579T500 617Q489 637 480 648T455 665T415 672T353 674Q311 674 288 672T251
665L200 370H254Q285 370 304 372T336 378T356 390T369 407Q377 423 383 436T399 474H408L367 247H358Q356 271 356 281T353 306Q351 322 346 330T329 343T294 349T236 350H196L156 123Q149 84 148 63T157 33T194 21T268 19Q308 19 333 21T374 29T402 45T425 70Q435
82 446 98T469 130T489 163T507 192H517L464 0H-21L-20 8ZM279 737Q258 737 245 751T231 784Q231 804 244 817T279 830Q299 830 312 817T326 783Q326 765 313 751T279 737ZM447 737Q426 737 412 751T398 784Q398 804 411 817T446 830Q467 830 480 817T494 783Q494
765 481 751T447 737Z" />
<glyph unicode="&#xcc;" glyph-name="Igrave" horiz-adv-x="265" d="M159 630Q164 656 159 663T130 676L90 684L92 693H326L324 684L286 676Q263 671 254 664T241 630L141 64Q136 38 142 30T174 16L206 9L204 0H-31L-29 9L14 18Q26 21 33 24T46 31T54 43T59 64L159
630ZM567 722L396 768Q380 772 370 782T359 805Q359 820 369 831T395 842Q408 842 425 831L571 730L567 722Z" />
<glyph unicode="&#xcd;" glyph-name="Iacute" horiz-adv-x="265" d="M159 630Q164 656 159 663T130 676L90 684L92 693H326L324 684L286 676Q263 671 254 664T241 630L141 64Q136 38 142 30T174 16L206 9L204 0H-31L-29 9L14 18Q26 21 33 24T46 31T54 43T59 64L159
630ZM381 732L527 831Q544 842 557 842Q575 842 584 831T594 805Q594 792 584 782T557 768L385 724L381 732Z" />
<glyph unicode="&#xce;" glyph-name="Icircumflex" horiz-adv-x="265" d="M159 630Q164 656 159 663T130 676L90 684L92 693H326L324 684L286 676Q263 671 254 664T241 630L141 64Q136 38 142 30T174 16L206 9L204 0H-31L-29 9L14 18Q26 21 33 24T46 31T54 43T59
64L159 630ZM335 728L475 846H506L597 729L592 723L481 779L339 722L335 728Z" />
<glyph unicode="&#xcf;" glyph-name="Idieresis" horiz-adv-x="265" d="M159 630Q164 656 159 663T130 676L90 684L92 693H326L324 684L286 676Q263 671 254 664T241 630L141 64Q136 38 142 30T174 16L206 9L204 0H-31L-29 9L14 18Q26 21 33 24T46 31T54 43T59
64L159 630ZM398 737Q377 737 364 751T350 784Q350 804 363 817T398 830Q418 830 431 817T445 783Q445 765 432 751T398 737ZM566 737Q545 737 531 751T517 784Q517 804 530 817T565 830Q586 830 599 817T613 783Q613 765 600 751T566 737Z" />
<glyph unicode="&#xd0;" glyph-name="Eth" horiz-adv-x="625" d="M33 364H107L154 630Q159 655 153 663T124 676L90 684L91 693H339Q401 693 453 679T543 634T602 554T623 433Q623 334 593 254T510 117T383 31T224 0H-31L-30 8L9 16Q32 21 40 30T54 62L103 343H29L33
364ZM224 17Q308 17 367 52T463 146T518 281T535 439Q535 495 525 539T491 613T429 660T333 676Q294 676 276 674T242 667L188 364H380L376 343H185L140 85Q136 62 138 49T150 28T178 19T224 17Z" />
<glyph unicode="&#xd1;" glyph-name="Ntilde" horiz-adv-x="626" d="M274 729Q285 754 294 773T313 805T336 824T367 831Q384 831 402 827T439 819T475 810T508 806Q524 806 537 816T565 851L574 847Q552 796 533 772T479 747Q462 747 445 750T410 758T375 767T343
771Q326 771 312 761T282 725L274 729ZM574 607Q577 626 577 637T571 656T555 668T527 678L504 684L506 693H685L683 684L656 677Q641 673 632 669T616 657T607 639T600 611L490 -5H461L183 630H180L84 86Q81 67 81 55T87 36T103 24T131 15L156 9L154 0H-32L-30
9L2 16Q25 21 38 35T57 82L154 630Q159 655 153 663T124 676L89 684L91 693H244L488 136H490L574 607Z" />
<glyph unicode="&#xd2;" glyph-name="Ograve" horiz-adv-x="636" d="M474 722L303 768Q287 772 277 782T266 805Q266 820 276 831T302 842Q315 842 332 831L478 730L474 722ZM286 -10Q233 -10 187 10T106 68T52 158T32 275Q32 369 62 447T141 583T254 671T386
703Q443 703 488 681T566 619T615 527T632 411Q632 319 603 242T526 108T416 21T286 -10ZM290 10Q345 10 392 42T472 133T525 272T544 450Q544 490 538 531T515 607T467 662T386 683Q329 683 280 650T196 558T140 420T119 248Q119 204 126 161T152 85T204 31T290
10Z" />
<glyph unicode="&#xd3;" glyph-name="Oacute" horiz-adv-x="636" d="M304 732L450 831Q467 842 480 842Q498 842 507 831T517 805Q517 792 507 782T480 768L308 724L304 732ZM286 -10Q233 -10 187 10T106 68T52 158T32 275Q32 369 62 447T141 583T254 671T386
703Q443 703 488 681T566 619T615 527T632 411Q632 319 603 242T526 108T416 21T286 -10ZM290 10Q345 10 392 42T472 133T525 272T544 450Q544 490 538 531T515 607T467 662T386 683Q329 683 280 650T196 558T140 420T119 248Q119 204 126 161T152 85T204 31T290
10Z" />
<glyph unicode="&#xd4;" glyph-name="Ocircumflex" horiz-adv-x="636" d="M254 728L394 846H425L516 729L511 723L400 779L258 722L254 728ZM286 -10Q233 -10 187 10T106 68T52 158T32 275Q32 369 62 447T141 583T254 671T386 703Q443 703 488 681T566 619T615
527T632 411Q632 319 603 242T526 108T416 21T286 -10ZM290 10Q345 10 392 42T472 133T525 272T544 450Q544 490 538 531T515 607T467 662T386 683Q329 683 280 650T196 558T140 420T119 248Q119 204 126 161T152 85T204 31T290 10Z" />
<glyph unicode="&#xd5;" glyph-name="Otilde" horiz-adv-x="636" d="M262 729Q273 754 282 773T301 805T324 824T355 831Q372 831 390 827T427 819T463 810T496 806Q512 806 525 816T553 851L562 847Q540 796 521 772T467 747Q450 747 433 750T398 758T363 767T331
771Q314 771 300 761T270 725L262 729ZM286 -10Q233 -10 187 10T106 68T52 158T32 275Q32 369 62 447T141 583T254 671T386 703Q443 703 488 681T566 619T615 527T632 411Q632 319 603 242T526 108T416 21T286 -10ZM290 10Q345 10 392 42T472 133T525 272T544 450Q544
490 538 531T515 607T467 662T386 683Q329 683 280 650T196 558T140 420T119 248Q119 204 126 161T152 85T204 31T290 10Z" />
<glyph unicode="&#xd6;" glyph-name="Odieresis" horiz-adv-x="636" d="M319 737Q298 737 285 751T271 784Q271 804 284 817T319 830Q339 830 352 817T366 783Q366 765 353 751T319 737ZM487 737Q466 737 452 751T438 784Q438 804 451 817T486 830Q507 830 520
817T534 783Q534 765 521 751T487 737ZM286 -10Q233 -10 187 10T106 68T52 158T32 275Q32 369 62 447T141 583T254 671T386 703Q443 703 488 681T566 619T615 527T632 411Q632 319 603 242T526 108T416 21T286 -10ZM290 10Q345 10 392 42T472 133T525 272T544 450Q544
490 538 531T515 607T467 662T386 683Q329 683 280 650T196 558T140 420T119 248Q119 204 126 161T152 85T204 31T290 10Z" />
<glyph unicode="&#xd7;" glyph-name="multiply" horiz-adv-x="416" d="M222 349L368 504L386 486L239 330L385 176L367 158L222 312L77 158L59 176L204 330L58 486L76 504L222 349Z" />
<glyph unicode="&#xd8;" glyph-name="Oslash" horiz-adv-x="636" d="M-2 -60L103 72Q70 110 51 161T32 275Q32 369 62 447T141 583T254 671T386 703Q437 703 478 685T551 635L626 730H653L565 620Q597 580 614 527T632 411Q632 319 603 242T526 108T416 21T286
-10Q237 -10 194 7T117 57L24 -60H-2ZM119 248Q119 213 123 179T138 116L519 596Q502 634 471 658T386 683Q329 683 280 650T196 558T140 420T119 248ZM290 10Q345 10 392 42T472 133T525 272T544 450Q544 481 541 512T528 573L147 94Q165 56 199 33T290 10Z" />
<glyph unicode="&#xd9;" glyph-name="Ugrave" horiz-adv-x="622" d="M496 722L325 768Q309 772 299 782T288 805Q288 820 298 831T324 842Q337 842 354 831L500 730L496 722ZM584 607Q587 626 587 637T582 656T566 668T537 678L513 684L515 693H694L692 684L664
677Q638 670 627 658T609 611L537 206Q529 162 514 123T471 54T402 7T300 -10Q29 -10 72 238L140 628Q145 654 139 662T110 676L76 684L78 693H311L309 684L266 676Q243 671 234 662T221 628L153 243Q142 183 148 141T175 71T231 32T317 20Q366 20 400 35T458 77T494
140T515 220L584 607Z" />
<glyph unicode="&#xda;" glyph-name="Uacute" horiz-adv-x="622" d="M318 732L464 831Q481 842 494 842Q512 842 521 831T531 805Q531 792 521 782T494 768L322 724L318 732ZM584 607Q587 626 587 637T582 656T566 668T537 678L513 684L515 693H694L692 684L664
677Q638 670 627 658T609 611L537 206Q529 162 514 123T471 54T402 7T300 -10Q29 -10 72 238L140 628Q145 654 139 662T110 676L76 684L78 693H311L309 684L266 676Q243 671 234 662T221 628L153 243Q142 183 148 141T175 71T231 32T317 20Q366 20 400 35T458 77T494
140T515 220L584 607Z" />
<glyph unicode="&#xdb;" glyph-name="Ucircumflex" horiz-adv-x="622" d="M268 728L408 846H439L530 729L525 723L414 779L272 722L268 728ZM584 607Q587 626 587 637T582 656T566 668T537 678L513 684L515 693H694L692 684L664 677Q638 670 627 658T609 611L537
206Q529 162 514 123T471 54T402 7T300 -10Q29 -10 72 238L140 628Q145 654 139 662T110 676L76 684L78 693H311L309 684L266 676Q243 671 234 662T221 628L153 243Q142 183 148 141T175 71T231 32T317 20Q366 20 400 35T458 77T494 140T515 220L584 607Z" />
<glyph unicode="&#xdc;" glyph-name="Udieresis" horiz-adv-x="622" d="M584 607Q587 626 587 637T582 656T566 668T537 678L513 684L515 693H694L692 684L664 677Q638 670 627 658T609 611L537 206Q529 162 514 123T471 54T402 7T300 -10Q29 -10 72 238L140 628Q145
654 139 662T110 676L76 684L78 693H311L309 684L266 676Q243 671 234 662T221 628L153 243Q142 183 148 141T175 71T231 32T317 20Q366 20 400 35T458 77T494 140T515 220L584 607ZM334 737Q313 737 300 751T286 784Q286 804 299 817T334 830Q354 830 367 817T381
783Q381 765 368 751T334 737ZM502 737Q481 737 467 751T453 784Q453 804 466 817T501 830Q522 830 535 817T549 783Q549 765 536 751T502 737Z" />
<glyph unicode="&#xdd;" glyph-name="Yacute" horiz-adv-x="537" d="M104 9L144 17Q169 22 177 30T191 63L230 277L126 611Q120 629 116 640T107 658T94 670T77 677L54 684L56 693H280L278 684L238 674Q226 671 216 666T205 644Q205 630 214 600L300 309H303L468
573Q498 621 500 644Q500 656 493 662T471 674L439 684L441 693H624L622 684L605 678Q587 672 576 666T553 650T530 621T497 571L311 276L273 64Q268 39 275 30T310 16L346 9L345 0H102L104 9ZM275 732L421 831Q438 842 451 842Q469 842 478 831T488 805Q488 792
478 782T451 768L279 724L275 732Z" />
<glyph unicode="&#xde;" glyph-name="Thorn" horiz-adv-x="510" d="M136 64Q131 39 138 31T171 17L210 9L208 0H-31L-29 9L9 18Q32 23 41 32T54 65L154 630Q159 653 154 662T125 676L87 684L89 693H321L319 684L281 676Q269 674 262 671T249 664T241 651T236 630L222
552H297Q410 552 465 513T520 388Q520 339 502 300T452 234T375 193T277 178Q248 178 229 181T196 189L198 199Q261 188 306 199T381 238T424 304T438 390Q438 459 405 496T298 533Q251 533 217 523L136 64Z" />
<glyph unicode="&#xdf;" glyph-name="germandbls" horiz-adv-x="497" d="M247 358Q247 380 259 401T291 443T332 487T373 533T404 583T417 638Q417 689 394 712T339 736Q293 736 257 692T203 549L131 128Q103 -34 55 -119T-62 -205Q-99 -205 -119 -192T-139 -156Q-139
-139 -129 -127T-98 -115Q-80 -115 -71 -126T-54 -158Q-50 -170 -46 -176T-33 -183Q-26 -183 -18 -175T1 -140T22 -66T47 61L113 474H49L51 483L118 506L122 525Q149 650 206 702T344 755Q410 755 446 726T483 651Q483 625 469 601T434 554T389 510T343 470T308
433T294 399Q294 387 298 376T312 351T340 318T385 272Q424 231 443 199T463 131Q463 102 451 76T418 31T367 1T305 -10Q244 -10 213 12T181 65Q181 83 192 93T220 104Q241 104 251 93T267 53Q273 27 282 18T316 8Q354 8 378 31T403 100Q403 118 398 133T383 163T358
195T321 234Q297 259 283 276T260 306T250 331T247 358Z" />
<glyph unicode="&#xe0;" glyph-name="agrave" horiz-adv-x="516" d="M118 -10Q70 -10 45 21T19 106Q19 196 49 272T125 403T225 490T326 521Q365 521 396 510T446 486H449L489 522L497 519Q491 507 485 486Q479 468 472 439T455 364L403 102Q401 89 399 78T397
54Q397 37 411 38T460 59L488 75L493 68Q448 26 414 9T355 -8Q336 -8 325 4T314 40Q314 49 316 63T321 92T328 122T336 151H333Q316 126 293 98T242 45T183 6T118 -10ZM158 30Q177 30 200 42T247 76T294 124T338 182L398 459Q390 479 373 491T330 504Q289 504 248
471T174 382T121 257T100 114Q100 30 158 30ZM267 627Q250 632 243 643T236 667Q236 681 246 693T275 705Q289 705 306 690L428 582L424 575L267 627Z" />
<glyph unicode="&#xe1;" glyph-name="aacute" horiz-adv-x="516" d="M118 -10Q70 -10 45 21T19 106Q19 196 49 272T125 403T225 490T326 521Q365 521 396 510T446 486H449L489 522L497 519Q491 507 485 486Q479 468 472 439T455 364L403 102Q401 89 399 78T397
54Q397 37 411 38T460 59L488 75L493 68Q448 26 414 9T355 -8Q336 -8 325 4T314 40Q314 49 316 63T321 92T328 122T336 151H333Q316 126 293 98T242 45T183 6T118 -10ZM158 30Q177 30 200 42T247 76T294 124T338 182L398 459Q390 479 373 491T330 504Q289 504 248
471T174 382T121 257T100 114Q100 30 158 30ZM281 575L277 582L399 687Q415 702 430 702Q448 702 458 690T469 664Q469 652 462 641T438 624L281 575Z" />
<glyph unicode="&#xe2;" glyph-name="acircumflex" horiz-adv-x="516" d="M118 -10Q70 -10 45 21T19 106Q19 196 49 272T125 403T225 490T326 521Q365 521 396 510T446 486H449L489 522L497 519Q491 507 485 486Q479 468 472 439T455 364L403 102Q401 89 399 78T397
54Q397 37 411 38T460 59L488 75L493 68Q448 26 414 9T355 -8Q336 -8 325 4T314 40Q314 49 316 63T321 92T328 122T336 151H333Q316 126 293 98T242 45T183 6T118 -10ZM158 30Q177 30 200 42T247 76T294 124T338 182L398 459Q390 479 373 491T330 504Q289 504 248
471T174 382T121 257T100 114Q100 30 158 30ZM217 575L355 704H385L462 573L456 568L360 637L222 569L217 575Z" />
<glyph unicode="&#xe3;" glyph-name="atilde" horiz-adv-x="516" d="M118 -10Q70 -10 45 21T19 106Q19 196 49 272T125 403T225 490T326 521Q365 521 396 510T446 486H449L489 522L497 519Q491 507 485 486Q479 468 472 439T455 364L403 102Q401 89 399 78T397
54Q397 37 411 38T460 59L488 75L493 68Q448 26 414 9T355 -8Q336 -8 325 4T314 40Q314 49 316 63T321 92T328 122T336 151H333Q316 126 293 98T242 45T183 6T118 -10ZM158 30Q177 30 200 42T247 76T294 124T338 182L398 459Q390 479 373 491T330 504Q289 504 248
471T174 382T121 257T100 114Q100 30 158 30ZM214 579Q225 604 234 623T254 654T277 672T308 678Q325 678 340 674T369 664T397 654T426 649Q455 649 485 698L494 695Q472 644 454 620T401 596Q384 596 369 601T340 611T312 622T283 627Q266 627 252 614T222 576L214
579Z" />
<glyph unicode="&#xe4;" glyph-name="adieresis" horiz-adv-x="516" d="M118 -10Q70 -10 45 21T19 106Q19 196 49 272T125 403T225 490T326 521Q365 521 396 510T446 486H449L489 522L497 519Q491 507 485 486Q479 468 472 439T455 364L403 102Q401 89 399 78T397
54Q397 37 411 38T460 59L488 75L493 68Q448 26 414 9T355 -8Q336 -8 325 4T314 40Q314 49 316 63T321 92T328 122T336 151H333Q316 126 293 98T242 45T183 6T118 -10ZM158 30Q177 30 200 42T247 76T294 124T338 182L398 459Q390 479 373 491T330 504Q289 504 248
471T174 382T121 257T100 114Q100 30 158 30ZM265 591Q243 591 229 605T215 639Q215 660 229 673T264 687Q285 687 299 673T313 639Q313 619 300 605T265 591ZM436 591Q414 591 400 605T386 639Q386 660 400 673T435 687Q457 687 470 673T484 639Q484 619 471 605T436
591Z" />
<glyph unicode="&#xe5;" glyph-name="aring" horiz-adv-x="516" d="M118 -10Q70 -10 45 21T19 106Q19 196 49 272T125 403T225 490T326 521Q365 521 396 510T446 486H449L489 522L497 519Q491 507 485 486Q479 468 472 439T455 364L403 102Q401 89 399 78T397
54Q397 37 411 38T460 59L488 75L493 68Q448 26 414 9T355 -8Q336 -8 325 4T314 40Q314 49 316 63T321 92T328 122T336 151H333Q316 126 293 98T242 45T183 6T118 -10ZM158 30Q177 30 200 42T247 76T294 124T338 182L398 459Q390 479 373 491T330 504Q289 504 248
471T174 382T121 257T100 114Q100 30 158 30ZM261 654Q261 686 283 708T341 731Q376 731 399 709T422 654Q422 622 399 600T341 578Q306 578 284 600T261 654ZM284 654Q284 631 299 614T341 597Q367 597 383 614T399 654Q399 677 383 694T341 712Q315 712 300 695T284
654Z" />
<glyph unicode="&#xe6;" glyph-name="ae" horiz-adv-x="695" d="M427 -10Q373 -10 337 16T289 88Q279 75 264 58T229 26T184 1T128 -10Q76 -10 46 18T16 95Q16 135 35 162T91 207T182 237T306 260L321 353Q332 430 313 466T236 503Q210 503 195 494T175 461Q167
430 157 417T124 403Q88 403 88 438Q88 458 100 473T132 499T178 515T233 521Q310 521 348 489T381 385Q421 444 472 482T582 521Q638 521 666 497T695 433Q695 401 677 375T621 326T522 286T378 253Q370 225 366 196T362 138Q362 83 386 53T452 22Q500 22 537
43T617 103L624 95Q608 75 588 57T542 23T488 -1T427 -10ZM159 23Q192 23 224 44T286 104Q284 110 284 116T284 131Q284 161 288 189T300 243Q242 232 202 220T138 192T102 155T91 103Q91 23 159 23ZM570 503Q548 503 522 485T469 434T420 360T382 268Q451 282
497 298T572 339Q596 361 606 387T616 440Q616 473 604 488T570 503Z" />
<glyph unicode="&#xe7;" glyph-name="ccedilla" horiz-adv-x="416" d="M159 -10Q90 -10 54 29T18 139Q18 216 45 285T116 406T214 490T321 521Q371 521 397 502T424 453Q424 435 413 422T383 408Q358 408 348 422T332 474Q327 501 305 501Q267 501 230 470T163
387T116 271T98 138Q98 78 120 51T187 23Q213 23 234 29T274 46T311 73T348 107L355 99Q319 54 272 22T159 -10ZM270 -196Q323 -185 346 -167T369 -126Q369 -112 356 -104T319 -91L315 -83L375 0H405L361 -52Q387 -56 409 -70T431 -114Q431 -152 390 -173T270 -205V-196V-196Z"
/>
<glyph unicode="&#xe8;" glyph-name="egrave" horiz-adv-x="432" d="M164 -10Q91 -10 55 31T19 141Q19 187 31 233T64 321T113 399T175 463T243 505T315 521Q375 521 403 495T432 431Q432 402 414 373T356 318T256 269T110 232Q105 209 102 186T99 138Q99 83 123
53T189 22Q237 22 274 43T354 103L361 95Q345 75 325 57T279 23T225 -1T164 -10ZM307 503Q284 503 256 483T200 428T150 347T113 248Q185 262 231 282T306 329Q330 351 341 382T353 439Q353 474 340 488T307 503ZM242 627Q225 632 218 643T211 667Q211 681 221
693T250 705Q264 705 281 690L403 582L399 575L242 627Z" />
<glyph unicode="&#xe9;" glyph-name="eacute" horiz-adv-x="432" d="M254 575L250 582L372 687Q388 702 403 702Q421 702 431 690T442 664Q442 652 435 641T411 624L254 575ZM164 -10Q91 -10 55 31T19 141Q19 187 31 233T64 321T113 399T175 463T243 505T315 521Q375
521 403 495T432 431Q432 402 414 373T356 318T256 269T110 232Q105 209 102 186T99 138Q99 83 123 53T189 22Q237 22 274 43T354 103L361 95Q345 75 325 57T279 23T225 -1T164 -10ZM307 503Q284 503 256 483T200 428T150 347T113 248Q185 262 231 282T306 329Q330
351 341 382T353 439Q353 474 340 488T307 503Z" />
<glyph unicode="&#xea;" glyph-name="ecircumflex" horiz-adv-x="432" d="M189 575L327 704H357L434 573L428 568L332 637L194 569L189 575ZM164 -10Q91 -10 55 31T19 141Q19 187 31 233T64 321T113 399T175 463T243 505T315 521Q375 521 403 495T432 431Q432
402 414 373T356 318T256 269T110 232Q105 209 102 186T99 138Q99 83 123 53T189 22Q237 22 274 43T354 103L361 95Q345 75 325 57T279 23T225 -1T164 -10ZM307 503Q284 503 256 483T200 428T150 347T113 248Q185 262 231 282T306 329Q330 351 341 382T353 439Q353
474 340 488T307 503Z" />
<glyph unicode="&#xeb;" glyph-name="edieresis" horiz-adv-x="432" d="M242 591Q220 591 206 605T192 639Q192 660 206 673T241 687Q262 687 276 673T290 639Q290 619 277 605T242 591ZM413 591Q391 591 377 605T363 639Q363 660 377 673T412 687Q434 687 447
673T461 639Q461 619 448 605T413 591ZM164 -10Q91 -10 55 31T19 141Q19 187 31 233T64 321T113 399T175 463T243 505T315 521Q375 521 403 495T432 431Q432 402 414 373T356 318T256 269T110 232Q105 209 102 186T99 138Q99 83 123 53T189 22Q237 22 274 43T354
103L361 95Q345 75 325 57T279 23T225 -1T164 -10ZM307 503Q284 503 256 483T200 428T150 347T113 248Q185 262 231 282T306 329Q330 351 341 382T353 439Q353 474 340 488T307 503Z" />
<glyph unicode="&#xec;" glyph-name="igrave" horiz-adv-x="250" d="M81 -8Q58 -8 49 5T39 37Q39 54 41 67T51 109L118 407Q124 434 124 452Q124 465 112 467T67 448L39 429L34 436Q60 462 80 478T117 504T145 517T166 521Q184 521 195 510T207 481Q207 465 201
439T188 380L125 103Q123 92 120 79T117 53Q117 39 132 38T182 58L210 75L215 68Q136 -8 81 -8ZM351 627Q334 632 327 643T320 667Q320 681 330 693T359 705Q373 705 390 690L512 582L508 575L351 627Z" />
<glyph unicode="&#xed;" glyph-name="iacute" horiz-adv-x="250" d="M364 575L360 582L482 687Q498 702 513 702Q531 702 541 690T552 664Q552 652 545 641T521 624L364 575ZM81 -8Q58 -8 49 5T39 37Q39 54 41 67T51 109L118 407Q124 434 124 452Q124 465 112
467T67 448L39 429L34 436Q60 462 80 478T117 504T145 517T166 521Q184 521 195 510T207 481Q207 465 201 439T188 380L125 103Q123 92 120 79T117 53Q117 39 132 38T182 58L210 75L215 68Q136 -8 81 -8Z" />
<glyph unicode="&#xee;" glyph-name="icircumflex" horiz-adv-x="250" d="M301 575L439 704H469L546 573L540 568L444 637L306 569L301 575ZM81 -8Q58 -8 49 5T39 37Q39 54 41 67T51 109L118 407Q124 434 124 452Q124 465 112 467T67 448L39 429L34 436Q60 462
80 478T117 504T145 517T166 521Q184 521 195 510T207 481Q207 465 201 439T188 380L125 103Q123 92 120 79T117 53Q117 39 132 38T182 58L210 75L215 68Q136 -8 81 -8Z" />
<glyph unicode="&#xef;" glyph-name="idieresis" horiz-adv-x="250" d="M353 591Q331 591 317 605T303 639Q303 660 317 673T352 687Q373 687 387 673T401 639Q401 619 388 605T353 591ZM524 591Q502 591 488 605T474 639Q474 660 488 673T523 687Q545 687 558
673T572 639Q572 619 559 605T524 591ZM81 -8Q58 -8 49 5T39 37Q39 54 41 67T51 109L118 407Q124 434 124 452Q124 465 112 467T67 448L39 429L34 436Q60 462 80 478T117 504T145 517T166 521Q184 521 195 510T207 481Q207 465 201 439T188 380L125 103Q123 92
120 79T117 53Q117 39 132 38T182 58L210 75L215 68Q136 -8 81 -8Z" />
<glyph unicode="&#xf0;" glyph-name="eth" horiz-adv-x="493" d="M158 609L270 659Q222 708 153 746L156 754Q197 739 234 720T305 675L421 728L427 712L321 663Q389 608 430 530T471 349Q471 269 452 203T397 90T312 17T203 -10Q157 -10 123 7T67 52T33 118T21
196Q21 278 45 339T106 440T190 501T281 521Q309 521 333 513T372 489Q359 530 337 569T282 646L166 593L158 609ZM205 8Q241 8 274 33T333 104T374 213T390 350Q390 421 365 462T289 503Q250 503 216 475T156 400T116 291T101 158Q101 84 126 46T205 8Z" />
<glyph unicode="&#xf1;" glyph-name="ntilde" horiz-adv-x="527" d="M364 -8Q325 -8 325 33Q325 50 328 69T337 109L388 335Q397 376 401 403T403 446T394 468T373 475Q353 475 329 461T279 424T227 373T177 319L106 0H30L116 407Q118 418 120 430T122 452Q122
464 111 467T65 448L37 429L32 436Q80 486 112 503T164 521Q178 521 189 512T200 483Q200 470 198 453T192 416T184 378T176 344H178Q208 380 238 412T296 468T353 507T407 521Q444 521 462 499T480 436Q480 420 475 393T462 329L411 103Q409 92 406 78T403 53Q403
39 417 39T468 59L496 75L501 68Q475 45 455 30T419 7T390 -5T364 -8ZM203 579Q214 604 223 623T243 654T266 672T297 678Q314 678 329 674T358 664T386 654T415 649Q444 649 474 698L483 695Q461 644 443 620T390 596Q373 596 358 601T329 611T301 622T272 627Q255
627 241 614T211 576L203 579Z" />
<glyph unicode="&#xf2;" glyph-name="ograve" horiz-adv-x="491" d="M197 -10Q158 -10 126 5T70 48T34 111T21 191Q21 270 47 331T113 435T201 499T293 521Q332 521 365 506T421 463T457 400T470 320Q470 239 444 177T379 74T291 11T197 -10ZM197 8Q237 8 272
35T333 110T374 220T390 351Q390 430 366 466T293 503Q255 503 220 477T159 404T117 295T101 160Q101 81 125 45T197 8ZM226 627Q209 632 202 643T195 667Q195 681 205 693T234 705Q248 705 265 690L387 582L383 575L226 627Z" />
<glyph unicode="&#xf3;" glyph-name="oacute" horiz-adv-x="491" d="M242 575L238 582L360 687Q376 702 391 702Q409 702 419 690T430 664Q430 652 423 641T399 624L242 575ZM197 -10Q158 -10 126 5T70 48T34 111T21 191Q21 270 47 331T113 435T201 499T293 521Q332
521 365 506T421 463T457 400T470 320Q470 239 444 177T379 74T291 11T197 -10ZM197 8Q237 8 272 35T333 110T374 220T390 351Q390 430 366 466T293 503Q255 503 220 477T159 404T117 295T101 160Q101 81 125 45T197 8Z" />
<glyph unicode="&#xf4;" glyph-name="ocircumflex" horiz-adv-x="491" d="M180 575L318 704H348L425 573L419 568L323 637L185 569L180 575ZM197 -10Q158 -10 126 5T70 48T34 111T21 191Q21 270 47 331T113 435T201 499T293 521Q332 521 365 506T421 463T457 400T470
320Q470 239 444 177T379 74T291 11T197 -10ZM197 8Q237 8 272 35T333 110T374 220T390 351Q390 430 366 466T293 503Q255 503 220 477T159 404T117 295T101 160Q101 81 125 45T197 8Z" />
<glyph unicode="&#xf5;" glyph-name="otilde" horiz-adv-x="491" d="M197 -10Q158 -10 126 5T70 48T34 111T21 191Q21 270 47 331T113 435T201 499T293 521Q332 521 365 506T421 463T457 400T470 320Q470 239 444 177T379 74T291 11T197 -10ZM197 8Q237 8 272
35T333 110T374 220T390 351Q390 430 366 466T293 503Q255 503 220 477T159 404T117 295T101 160Q101 81 125 45T197 8ZM178 579Q189 604 198 623T218 654T241 672T272 678Q289 678 304 674T333 664T361 654T390 649Q419 649 449 698L458 695Q436 644 418 620T365
596Q348 596 333 601T304 611T276 622T247 627Q230 627 216 614T186 576L178 579Z" />
<glyph unicode="&#xf6;" glyph-name="odieresis" horiz-adv-x="491" d="M232 591Q210 591 196 605T182 639Q182 660 196 673T231 687Q252 687 266 673T280 639Q280 619 267 605T232 591ZM403 591Q381 591 367 605T353 639Q353 660 367 673T402 687Q424 687 437
673T451 639Q451 619 438 605T403 591ZM197 -10Q158 -10 126 5T70 48T34 111T21 191Q21 270 47 331T113 435T201 499T293 521Q332 521 365 506T421 463T457 400T470 320Q470 239 444 177T379 74T291 11T197 -10ZM197 8Q237 8 272 35T333 110T374 220T390 351Q390
430 366 466T293 503Q255 503 220 477T159 404T117 295T101 160Q101 81 125 45T197 8Z" />
<glyph unicode="&#xf7;" glyph-name="divide" horiz-adv-x="425" d="M44 352H405V328H44V352ZM223 127Q202 127 187 143T172 180Q172 203 187 217T223 232Q243 232 258 218T274 180Q274 159 259 143T223 127ZM223 446Q202 446 187 462T172 498Q172 521 187 535T223
550Q243 550 258 536T274 498Q274 478 259 462T223 446Z" />
<glyph unicode="&#xf8;" glyph-name="oslash" horiz-adv-x="491" d="M76 41Q50 68 36 106T21 191Q21 270 47 331T113 435T201 499T293 521Q322 521 348 512T395 487L448 560H472L410 474Q439 446 454 407T470 320Q470 239 444 177T379 74T291 11T197 -10Q165 -10
139 0T90 27L27 -61H3L76 41ZM197 8Q237 8 272 35T333 110T374 220T390 351Q390 399 381 432L116 63Q138 8 197 8ZM101 160Q101 114 108 86L372 454Q350 503 293 503Q255 503 220 477T159 404T117 295T101 160Z" />
<glyph unicode="&#xf9;" glyph-name="ugrave" horiz-adv-x="511" d="M236 627Q219 632 212 643T205 667Q205 681 215 693T244 705Q258 705 275 690L397 582L393 575L236 627ZM119 -10Q89 -10 65 9T41 74Q41 94 44 116T56 176L110 413Q112 422 113 430T115 449Q115
464 101 465T58 448L30 429L25 436Q50 461 69 477T104 503T130 517T153 521Q194 521 194 476Q194 453 190 435T180 388L133 178Q124 136 121 108T121 63T132 39T153 32Q188 32 237 75T342 187L410 505H485L400 103Q397 88 395 77T393 57Q393 23 456 59L484 75L489
68Q441 23 410 8T354 -8Q337 -8 326 3T314 37Q314 63 322 95T339 156H337Q272 73 222 32T119 -10Z" />
<glyph unicode="&#xfa;" glyph-name="uacute" horiz-adv-x="511" d="M250 575L246 582L368 687Q384 702 399 702Q417 702 427 690T438 664Q438 652 431 641T407 624L250 575ZM119 -10Q89 -10 65 9T41 74Q41 94 44 116T56 176L110 413Q112 422 113 430T115 449Q115
464 101 465T58 448L30 429L25 436Q50 461 69 477T104 503T130 517T153 521Q194 521 194 476Q194 453 190 435T180 388L133 178Q124 136 121 108T121 63T132 39T153 32Q188 32 237 75T342 187L410 505H485L400 103Q397 88 395 77T393 57Q393 23 456 59L484 75L489
68Q441 23 410 8T354 -8Q337 -8 326 3T314 37Q314 63 322 95T339 156H337Q272 73 222 32T119 -10Z" />
<glyph unicode="&#xfb;" glyph-name="ucircumflex" horiz-adv-x="511" d="M184 575L322 704H352L429 573L423 568L327 637L189 569L184 575ZM119 -10Q89 -10 65 9T41 74Q41 94 44 116T56 176L110 413Q112 422 113 430T115 449Q115 464 101 465T58 448L30 429L25
436Q50 461 69 477T104 503T130 517T153 521Q194 521 194 476Q194 453 190 435T180 388L133 178Q124 136 121 108T121 63T132 39T153 32Q188 32 237 75T342 187L410 505H485L400 103Q397 88 395 77T393 57Q393 23 456 59L484 75L489 68Q441 23 410 8T354 -8Q337
-8 326 3T314 37Q314 63 322 95T339 156H337Q272 73 222 32T119 -10Z" />
<glyph unicode="&#xfc;" glyph-name="udieresis" horiz-adv-x="511" d="M237 591Q215 591 201 605T187 639Q187 660 201 673T236 687Q257 687 271 673T285 639Q285 619 272 605T237 591ZM408 591Q386 591 372 605T358 639Q358 660 372 673T407 687Q429 687 442
673T456 639Q456 619 443 605T408 591ZM119 -10Q89 -10 65 9T41 74Q41 94 44 116T56 176L110 413Q112 422 113 430T115 449Q115 464 101 465T58 448L30 429L25 436Q50 461 69 477T104 503T130 517T153 521Q194 521 194 476Q194 453 190 435T180 388L133 178Q124
136 121 108T121 63T132 39T153 32Q188 32 237 75T342 187L410 505H485L400 103Q397 88 395 77T393 57Q393 23 456 59L484 75L489 68Q441 23 410 8T354 -8Q337 -8 326 3T314 37Q314 63 322 95T339 156H337Q272 73 222 32T119 -10Z" />
<glyph unicode="&#xfd;" glyph-name="yacute" horiz-adv-x="442" d="M190 405Q202 321 210 227T223 48H226Q269 106 303 159T360 257T396 335T408 391Q408 406 401 415T385 433T369 452T361 478Q361 497 373 509T403 521Q424 521 437 507T451 467Q451 422 434
370T385 260T313 140T223 12Q176 -52 139 -94T71 -162T12 -197T-45 -207Q-75 -207 -92 -193T-110 -157Q-110 -138 -97 -126T-63 -113Q-47 -113 -39 -121T-24 -139T-11 -157T6 -166Q31 -166 66 -138T156 -43Q146 100 135 209T113 387Q108 416 104 433T92 458T75
464T49 450L19 429L14 436Q53 481 79 501T131 521Q159 521 170 494T190 405ZM211 575L207 582L329 687Q345 702 360 702Q378 702 388 690T399 664Q399 652 392 641T368 624L211 575Z" />
<glyph unicode="&#xfe;" glyph-name="thorn" horiz-adv-x="512" d="M166 345Q185 372 210 403T263 460T324 504T390 521Q441 521 467 484T493 378Q493 288 467 217T399 95T306 17T203 -10Q168 -10 143 -5T99 9Q97 -7 95 -23T88 -62L76 -124Q73 -140 73 -149T74
-165T83 -174T101 -179L143 -188L142 -196H-82L-80 -188L-42 -179Q-21 -174 -14 -164T-1 -124L153 667Q158 689 152 699T121 719L85 734L86 740L243 755L247 752Q243 736 239 717Q235 700 231 679T222 631L189 458Q181 419 176 392T164 345H166ZM205 7Q247 7 285
35T351 113T395 228T412 369Q412 427 399 454T359 481Q336 481 310 466T258 426T208 372T162 316L112 61Q140 7 205 7Z" />
<glyph unicode="&#xff;" glyph-name="ydieresis" horiz-adv-x="442" d="M190 405Q202 321 210 227T223 48H226Q269 106 303 159T360 257T396 335T408 391Q408 406 401 415T385 433T369 452T361 478Q361 497 373 509T403 521Q424 521 437 507T451 467Q451 422 434
370T385 260T313 140T223 12Q176 -52 139 -94T71 -162T12 -197T-45 -207Q-75 -207 -92 -193T-110 -157Q-110 -138 -97 -126T-63 -113Q-47 -113 -39 -121T-24 -139T-11 -157T6 -166Q31 -166 66 -138T156 -43Q146 100 135 209T113 387Q108 416 104 433T92 458T75
464T49 450L19 429L14 436Q53 481 79 501T131 521Q159 521 170 494T190 405ZM197 591Q175 591 161 605T147 639Q147 660 161 673T196 687Q217 687 231 673T245 639Q245 619 232 605T197 591ZM368 591Q346 591 332 605T318 639Q318 660 332 673T367 687Q389 687
402 673T416 639Q416 619 403 605T368 591Z" />
<glyph unicode="&#x100;" glyph-name="Amacron" horiz-adv-x="577" d="M-54 9L-39 13Q-24 17 -15 21T5 37T26 69T57 126L352 693H389L467 111Q471 82 474 66T482 40T497 25T521 14L535 9L533 0H317L319 9L342 15Q359 20 368 24T382 39Q387 49 387 65T384 107L365
261H155L82 119Q57 70 57 49Q57 32 68 26T95 15L119 9L117 0H-56L-54 9ZM166 282H362L325 587H322L166 282ZM259 792H508L500 754H252L259 792Z" />
<glyph unicode="&#x101;" glyph-name="amacron" horiz-adv-x="516" d="M118 -10Q70 -10 45 21T19 106Q19 196 49 272T125 403T225 490T326 521Q365 521 396 510T446 486H449L489 522L497 519Q491 507 485 486Q479 468 472 439T455 364L403 102Q401 89 399 78T397
54Q397 37 411 38T460 59L488 75L493 68Q448 26 414 9T355 -8Q336 -8 325 4T314 40Q314 49 316 63T321 92T328 122T336 151H333Q316 126 293 98T242 45T183 6T118 -10ZM158 30Q177 30 200 42T247 76T294 124T338 182L398 459Q390 479 373 491T330 504Q289 504 248
471T174 382T121 257T100 114Q100 30 158 30ZM236 640H460L454 602H229L236 640Z" />
<glyph unicode="&#x102;" glyph-name="Abreve" horiz-adv-x="577" d="M-54 9L-39 13Q-24 17 -15 21T5 37T26 69T57 126L352 693H389L467 111Q471 82 474 66T482 40T497 25T521 14L535 9L533 0H317L319 9L342 15Q359 20 368 24T382 39Q387 49 387 65T384 107L365
261H155L82 119Q57 70 57 49Q57 32 68 26T95 15L119 9L117 0H-56L-54 9ZM166 282H362L325 587H322L166 282ZM372 732Q343 732 323 741T291 767T275 804T270 849L277 851Q285 820 310 804T375 787Q417 787 447 804T487 851L494 849Q492 825 484 804T461 767T424
742T372 732Z" />
<glyph unicode="&#x103;" glyph-name="abreve" horiz-adv-x="516" d="M118 -10Q70 -10 45 21T19 106Q19 196 49 272T125 403T225 490T326 521Q365 521 396 510T446 486H449L489 522L497 519Q491 507 485 486Q479 468 472 439T455 364L403 102Q401 89 399 78T397
54Q397 37 411 38T460 59L488 75L493 68Q448 26 414 9T355 -8Q336 -8 325 4T314 40Q314 49 316 63T321 92T328 122T336 151H333Q316 126 293 98T242 45T183 6T118 -10ZM158 30Q177 30 200 42T247 76T294 124T338 182L398 459Q390 479 373 491T330 504Q289 504 248
471T174 382T121 257T100 114Q100 30 158 30ZM338 580Q309 580 290 589T260 614T245 650T241 695L248 696Q263 634 341 634Q383 634 411 650T448 696L455 695Q453 671 446 650T424 614T388 589T338 580Z" />
<glyph unicode="&#x104;" glyph-name="Aogonek" horiz-adv-x="577" d="M365 261H155L82 119Q57 70 57 49Q57 32 68 26T95 15L119 9L117 0H-56L-54 9L-39 13Q-24 17 -15 21T5 37T26 69T57 126L352 693H389L467 112Q471 83 474 67T482 40T497 25T521 14L535 9L533
0H476Q438 0 410 -12T362 -43T334 -84T324 -127Q324 -174 368 -174Q378 -174 388 -172T407 -165L406 -174Q391 -188 371 -196T335 -205Q300 -205 284 -186T267 -139Q267 -115 279 -94T309 -56T351 -24T397 0L365 261ZM322 587L166 282H362L325 587H322Z" />
<glyph unicode="&#x105;" glyph-name="aogonek" horiz-adv-x="516" d="M312 -205Q282 -205 264 -188T245 -144Q245 -123 259 -102T294 -63T335 -30T371 -7L355 -8Q337 -8 326 3T314 40Q314 49 316 63T321 92T328 122T336 151H333Q316 126 293 98T242 45T183 6T118
-10Q70 -10 45 21T19 106Q19 196 49 272T125 403T225 490T326 521Q365 521 396 510T446 486H449L489 522L497 519Q491 507 485 486Q479 468 472 439T455 364L403 102Q401 89 399 78T397 54Q397 37 411 38T460 59L488 75L493 68Q471 49 450 34T411 4Q392 -10 373
-25T338 -55T312 -89T302 -127Q302 -174 345 -174Q355 -174 365 -172T385 -165L383 -175Q368 -189 348 -197T312 -205ZM158 30Q177 30 200 42T247 76T294 124T338 182L398 459Q390 479 373 491T330 504Q289 504 248 471T174 382T121 257T100 114Q100 30 158 30Z"
/>
<glyph unicode="&#x106;" glyph-name="Cacute" horiz-adv-x="569" d="M292 -10Q165 -10 97 61T28 258Q28 352 57 433T138 575T259 669T407 703Q470 703 510 694T581 668L564 505H554Q547 531 540 556T523 607Q514 631 504 645T479 668T446 680T402 683Q334 683
281 647T191 549T135 408T116 241Q116 124 164 67T296 9Q348 9 382 29T442 78Q463 103 480 132T519 201H529L485 22Q456 8 407 -1T292 -10ZM311 732L457 831Q474 842 487 842Q505 842 514 831T524 805Q524 792 514 782T487 768L315 724L311 732Z" />
<glyph unicode="&#x107;" glyph-name="cacute" horiz-adv-x="416" d="M261 575L257 582L379 687Q395 702 410 702Q428 702 438 690T449 664Q449 652 442 641T418 624L261 575ZM159 -10Q90 -10 54 29T18 139Q18 216 45 285T116 406T214 490T321 521Q371 521 397
502T424 453Q424 435 413 422T383 408Q358 408 348 422T332 474Q327 501 305 501Q267 501 230 470T163 387T116 271T98 138Q98 78 120 51T187 23Q213 23 234 29T274 46T311 73T348 107L355 99Q319 54 272 22T159 -10Z" />
<glyph unicode="&#x108;" glyph-name="Ccircumflex" horiz-adv-x="569" d="M261 728L401 846H432L523 729L518 723L407 779L265 722L261 728ZM292 -10Q165 -10 97 61T28 258Q28 352 57 433T138 575T259 669T407 703Q470 703 510 694T581 668L564 505H554Q547 531
540 556T523 607Q514 631 504 645T479 668T446 680T402 683Q334 683 281 647T191 549T135 408T116 241Q116 124 164 67T296 9Q348 9 382 29T442 78Q463 103 480 132T519 201H529L485 22Q456 8 407 -1T292 -10Z" />
<glyph unicode="&#x109;" glyph-name="ccircumflex" horiz-adv-x="416" d="M187 823L325 952H355L432 821L426 816L330 885L192 817L187 823ZM159 -10Q90 -10 54 29T18 139Q18 216 45 285T116 406T214 490T321 521Q371 521 397 502T424 453Q424 435 413 422T383
408Q358 408 348 422T332 474Q327 501 305 501Q267 501 230 470T163 387T116 271T98 138Q98 78 120 51T187 23Q213 23 234 29T274 46T311 73T348 107L355 99Q319 54 272 22T159 -10Z" />
<glyph unicode="&#x10a;" glyph-name="Cdotaccent" horiz-adv-x="569" d="M292 -10Q165 -10 97 61T28 258Q28 352 57 433T138 575T259 669T407 703Q470 703 510 694T581 668L564 505H554Q547 531 540 556T523 607Q514 631 504 645T479 668T446 680T402 683Q334
683 281 647T191 549T135 408T116 241Q116 124 164 67T296 9Q348 9 382 29T442 78Q463 103 480 132T519 201H529L485 22Q456 8 407 -1T292 -10ZM407 735Q385 735 370 750T354 786Q354 807 369 822T407 837Q427 837 442 822T457 786Q457 766 442 751T407 735Z" />
<glyph unicode="&#x10b;" glyph-name="cdotaccent" horiz-adv-x="416" d="M159 -10Q90 -10 54 29T18 139Q18 216 45 285T116 406T214 490T321 521Q371 521 397 502T424 453Q424 435 413 422T383 408Q358 408 348 422T332 474Q327 501 305 501Q267 501 230 470T163
387T116 271T98 138Q98 78 120 51T187 23Q213 23 234 29T274 46T311 73T348 107L355 99Q319 54 272 22T159 -10ZM270 634Q270 656 285 671T322 686Q344 686 359 671T374 634Q374 612 359 597T322 582Q300 582 285 597T270 634Z" />
<glyph unicode="&#x10c;" glyph-name="Ccaron" horiz-adv-x="569" d="M550 847L410 729H379L288 846L293 852L404 796L546 853L550 847ZM292 -10Q165 -10 97 61T28 258Q28 352 57 433T138 575T259 669T407 703Q470 703 510 694T581 668L564 505H554Q547 531 540
556T523 607Q514 631 504 645T479 668T446 680T402 683Q334 683 281 647T191 549T135 408T116 241Q116 124 164 67T296 9Q348 9 382 29T442 78Q463 103 480 132T519 201H529L485 22Q456 8 407 -1T292 -10Z" />
<glyph unicode="&#x10d;" glyph-name="ccaron" horiz-adv-x="416" d="M459 705L321 576H291L214 707L220 712L316 643L454 711L459 705ZM159 -10Q90 -10 54 29T18 139Q18 216 45 285T116 406T214 490T321 521Q371 521 397 502T424 453Q424 435 413 422T383 408Q358
408 348 422T332 474Q327 501 305 501Q267 501 230 470T163 387T116 271T98 138Q98 78 120 51T187 23Q213 23 234 29T274 46T311 73T348 107L355 99Q319 54 272 22T159 -10Z" />
<glyph unicode="&#x10e;" glyph-name="Dcaron" horiz-adv-x="625" d="M520 847L380 729H349L258 846L263 852L374 796L516 853L520 847ZM224 17Q308 17 367 52T463 146T518 281T535 439Q535 495 525 539T491 613T429 660T333 676Q294 676 276 674T242 667L140
85Q136 62 138 49T150 28T178 19T224 17ZM91 693H339Q401 693 453 679T543 634T602 554T623 433Q623 334 593 254T510 117T383 31T224 0H-31L-30 8L9 16Q32 21 40 30T54 62L154 630Q159 655 153 663T124 676L90 684L91 693Z" />
<glyph unicode="&#x10f;" glyph-name="dcaron" horiz-adv-x="532" d="M545 594L571 722Q574 736 582 747T608 759Q622 759 632 750T643 726Q643 706 628 688L552 591L545 594ZM409 102Q407 91 404 78T401 53Q401 39 415 39T466 59L494 75L499 68Q454 25 421 9T364
-8Q344 -8 333 3T322 39Q322 48 324 62T330 92T338 123T346 151H343Q321 119 297 90T246 39T188 4T122 -10Q74 -10 47 24T19 116Q19 198 48 271T122 400T222 488T329 521Q357 521 377 518T413 509H417Q418 519 420 530Q422 540 424 553T429 581L447 667Q452 690
446 699T415 719L374 734L375 741L535 755L539 752Q535 734 531 715Q527 698 523 676T514 631L409 102ZM163 30Q185 30 209 42T257 76T304 124T348 182L405 463Q382 504 330 504Q289 504 248 471T174 382T121 257T100 114Q100 67 116 49T163 30Z" />
<glyph unicode="&#x110;" glyph-name="Dcroat" horiz-adv-x="625" d="M33 364H107L154 630Q159 655 153 663T124 676L90 684L91 693H339Q401 693 453 679T543 634T602 554T623 433Q623 334 593 254T510 117T383 31T224 0H-31L-30 8L9 16Q32 21 40 30T54 62L103
343H29L33 364ZM224 17Q308 17 367 52T463 146T518 281T535 439Q535 495 525 539T491 613T429 660T333 676Q294 676 276 674T242 667L188 364H380L376 343H185L140 85Q136 62 138 49T150 28T178 19T224 17Z" />
<glyph unicode="&#x111;" glyph-name="dcroat" horiz-adv-x="532" d="M513 628H579L576 610H510L409 102Q407 91 404 78T401 53Q401 39 415 39T466 59L494 75L499 68Q454 25 421 9T364 -8Q344 -8 333 3T322 39Q322 48 324 62T330 92T338 123T346 151H343Q321 119
297 90T246 39T188 4T122 -10Q74 -10 47 24T19 116Q19 198 48 271T122 400T222 488T329 521Q357 521 377 518T413 509H416Q417 519 419 530Q421 540 423 553T429 581L435 610H274L277 628H439L447 667Q452 690 446 699T415 719L374 734L375 741L535 755L539 752Q535
734 531 715Q527 698 523 676T514 631L513 628ZM163 30Q185 30 209 42T257 76T304 124T348 182L405 463Q382 504 330 504Q289 504 248 471T174 382T121 257T100 114Q100 67 116 49T163 30Z" />
<glyph unicode="&#x112;" glyph-name="Emacron" horiz-adv-x="533" d="M-30 8L9 16Q32 21 40 30T54 62L154 630Q159 655 153 663T124 676L90 684L91 693H531L533 535H524Q516 557 507 579T490 617Q479 637 470 648T445 665T405 672T343 674Q301 674 278 672T241
665L190 370H244Q275 370 294 372T326 378T346 390T359 407Q367 423 373 436T389 474H398L357 247H348Q346 271 346 281T343 306Q341 322 336 330T319 343T284 349T226 350H186L146 123Q139 84 138 63T147 33T184 21T258 19Q298 19 323 21T364 29T392 45T415 70Q425
82 436 98T459 130T479 163T497 192H507L454 0H-31L-30 8ZM232 792H481L473 754H225L232 792Z" />
<glyph unicode="&#x113;" glyph-name="emacron" horiz-adv-x="432" d="M164 -10Q91 -10 55 31T19 141Q19 187 31 233T64 321T113 399T175 463T243 505T315 521Q375 521 403 495T432 431Q432 402 414 373T356 318T256 269T110 232Q105 209 102 186T99 138Q99 83
123 53T189 22Q237 22 274 43T354 103L361 95Q345 75 325 57T279 23T225 -1T164 -10ZM307 503Q284 503 256 483T200 428T150 347T113 248Q185 262 231 282T306 329Q330 351 341 382T353 439Q353 474 340 488T307 503ZM209 640H433L427 602H202L209 640Z" />
<glyph unicode="&#x114;" glyph-name="Ebreve" horiz-adv-x="533" d="M-30 8L9 16Q32 21 40 30T54 62L154 630Q159 655 153 663T124 676L90 684L91 693H531L533 535H524Q516 557 507 579T490 617Q479 637 470 648T445 665T405 672T343 674Q301 674 278 672T241
665L190 370H244Q275 370 294 372T326 378T346 390T359 407Q367 423 373 436T389 474H398L357 247H348Q346 271 346 281T343 306Q341 322 336 330T319 343T284 349T226 350H186L146 123Q139 84 138 63T147 33T184 21T258 19Q298 19 323 21T364 29T392 45T415 70Q425
82 436 98T459 130T479 163T497 192H507L454 0H-31L-30 8ZM346 732Q317 732 297 741T265 767T249 804T244 849L251 851Q259 820 284 804T349 787Q391 787 421 804T461 851L468 849Q466 825 458 804T435 767T398 742T346 732Z" />
<glyph unicode="&#x115;" glyph-name="ebreve" horiz-adv-x="432" d="M164 -10Q91 -10 55 31T19 141Q19 187 31 233T64 321T113 399T175 463T243 505T315 521Q375 521 403 495T432 431Q432 402 414 373T356 318T256 269T110 232Q105 209 102 186T99 138Q99 83
123 53T189 22Q237 22 274 43T354 103L361 95Q345 75 325 57T279 23T225 -1T164 -10ZM307 503Q284 503 256 483T200 428T150 347T113 248Q185 262 231 282T306 329Q330 351 341 382T353 439Q353 474 340 488T307 503ZM317 580Q288 580 269 589T239 614T224 650T220
695L227 696Q242 634 320 634Q362 634 390 650T427 696L434 695Q432 671 425 650T403 614T367 589T317 580Z" />
<glyph unicode="&#x116;" glyph-name="Edotaccent" horiz-adv-x="533" d="M350 735Q328 735 313 750T297 786Q297 807 312 822T350 837Q370 837 385 822T400 786Q400 766 385 751T350 735ZM-30 8L9 16Q32 21 40 30T54 62L154 630Q159 655 153 663T124 676L90 684L91
693H531L533 535H524Q516 557 507 579T490 617Q479 637 470 648T445 665T405 672T343 674Q301 674 278 672T241 665L190 370H244Q275 370 294 372T326 378T346 390T359 407Q367 423 373 436T389 474H398L357 247H348Q346 271 346 281T343 306Q341 322 336 330T319
343T284 349T226 350H186L146 123Q139 84 138 63T147 33T184 21T258 19Q298 19 323 21T364 29T392 45T415 70Q425 82 436 98T459 130T479 163T497 192H507L454 0H-31L-30 8Z" />
<glyph unicode="&#x117;" glyph-name="edotaccent" horiz-adv-x="432" d="M164 -10Q91 -10 55 31T19 141Q19 187 31 233T64 321T113 399T175 463T243 505T315 521Q375 521 403 495T432 431Q432 402 414 373T356 318T256 269T110 232Q105 209 102 186T99 138Q99
83 123 53T189 22Q237 22 274 43T354 103L361 95Q345 75 325 57T279 23T225 -1T164 -10ZM307 503Q284 503 256 483T200 428T150 347T113 248Q185 262 231 282T306 329Q330 351 341 382T353 439Q353 474 340 488T307 503ZM270 634Q270 656 285 671T322 686Q344 686
359 671T374 634Q374 612 359 597T322 582Q300 582 285 597T270 634Z" />
<glyph unicode="&#x118;" glyph-name="Eogonek" horiz-adv-x="533" d="M360 0Q343 -14 327 -29T298 -60T276 -92T267 -127Q264 -174 310 -174Q320 -174 330 -172T350 -165L348 -175Q333 -189 313 -197T277 -205Q242 -205 225 -186T209 -139Q210 -116 224 -96T259
-57T303 -25T345 0H-31L-30 8L9 16Q32 21 40 30T54 62L154 630Q159 655 153 663T124 676L90 684L91 693H531L533 535H524Q516 557 507 579T490 617Q479 637 470 648T445 665T405 672T343 674Q301 674 278 672T241 665L190 370H244Q275 370 294 372T326 378T346
390T359 407Q367 423 373 436T389 474H398L357 247H348Q346 271 346 281T343 306Q341 322 336 330T319 343T284 349T226 350H186L146 123Q139 84 138 63T147 33T184 21T258 19Q298 19 323 21T364 29T392 45T415 70Q425 82 436 98T459 130T479 163T497 192H507L454
0H360Z" />
<glyph unicode="&#x119;" glyph-name="eogonek" horiz-adv-x="432" d="M164 -10Q91 -10 55 31T19 141Q19 187 31 233T64 321T113 399T175 463T243 505T315 521Q375 521 403 495T432 429Q432 400 413 372T355 317T255 269T110 232Q105 211 102 186T99 138Q99 81
124 52T189 22Q239 22 277 45T354 101L361 92Q347 78 331 64T298 36Q274 17 247 -2T198 -41T160 -84T145 -131Q145 -152 157 -163T189 -174Q210 -174 229 -166L227 -175Q211 -190 191 -197T156 -205Q124 -205 106 -187T87 -141Q87 -116 102 -95T138 -57T182 -27T224
-3Q197 -10 164 -10ZM307 503Q282 503 255 483T201 427T152 346T114 248Q156 257 186 266T238 285T276 306T306 329Q330 349 341 381T353 439Q353 474 340 488T307 503Z" />
<glyph unicode="&#x11a;" glyph-name="Ecaron" horiz-adv-x="533" d="M499 847L359 729H328L237 846L242 852L353 796L495 853L499 847ZM-30 8L9 16Q32 21 40 30T54 62L154 630Q159 655 153 663T124 676L90 684L91 693H531L533 535H524Q516 557 507 579T490 617Q479
637 470 648T445 665T405 672T343 674Q301 674 278 672T241 665L190 370H244Q275 370 294 372T326 378T346 390T359 407Q367 423 373 436T389 474H398L357 247H348Q346 271 346 281T343 306Q341 322 336 330T319 343T284 349T226 350H186L146 123Q139 84 138 63T147
33T184 21T258 19Q298 19 323 21T364 29T392 45T415 70Q425 82 436 98T459 130T479 163T497 192H507L454 0H-31L-30 8Z" />
<glyph unicode="&#x11b;" glyph-name="ecaron" horiz-adv-x="432" d="M461 705L323 576H293L216 707L222 712L318 643L456 711L461 705ZM164 -10Q91 -10 55 31T19 141Q19 187 31 233T64 321T113 399T175 463T243 505T315 521Q375 521 403 495T432 431Q432 402
414 373T356 318T256 269T110 232Q105 209 102 186T99 138Q99 83 123 53T189 22Q237 22 274 43T354 103L361 95Q345 75 325 57T279 23T225 -1T164 -10ZM307 503Q284 503 256 483T200 428T150 347T113 248Q185 262 231 282T306 329Q330 351 341 382T353 439Q353
474 340 488T307 503Z" />
<glyph unicode="&#x11c;" glyph-name="Gcircumflex" horiz-adv-x="618" d="M268 728L408 846H439L530 729L525 723L414 779L272 722L268 728ZM306 -10Q252 -10 203 4T115 51T54 136T31 263Q31 368 65 450T155 588T281 673T422 703Q527 703 600 675L583 504H573Q555
576 539 614Q524 650 498 666T415 683Q357 683 304 656T209 575T144 440T119 249Q119 199 129 156T161 80T220 28T308 9Q346 9 379 18T435 41L465 211Q468 224 468 232T464 245T453 252T435 257L396 265L398 274H620L618 265L589 257Q578 254 571 251T558 243T549
230T543 208L511 23Q477 9 429 0T306 -10Z" />
<glyph unicode="&#x11d;" glyph-name="gcircumflex" horiz-adv-x="461" d="M147 575L285 704H315L392 573L386 568L290 637L152 569L147 575ZM148 -203Q109 -203 73 -196T9 -173T-36 -135T-53 -81Q-53 -30 -15 1T89 49V51Q44 70 44 113Q44 145 67 168T128 208V210Q98
227 81 255T64 322Q64 368 81 404T125 467T188 507T258 521Q291 521 317 512T363 485Q386 506 409 521T458 537Q480 537 492 525T505 493Q505 476 494 465T467 453Q441 453 429 483Q425 494 419 496T406 497T391 488T373 474V472Q391 455 400 431T410 374Q410 329
394 295T350 236T288 200T216 187Q178 187 144 200Q127 190 114 174T100 141Q100 119 114 113T155 104L265 95Q404 83 404 -16Q404 -51 387 -84T337 -144T257 -187T148 -203ZM160 -184Q204 -184 237 -174T292 -145T326 -104T338 -56Q338 -16 318 4T249 30L110 43Q93
36 77 25T47 -1T27 -35T19 -76Q19 -125 54 -154T160 -184ZM217 205Q245 205 267 219T305 258T329 320T338 399Q338 450 320 476T256 503Q227 503 205 487T168 442T144 378T136 302Q136 205 217 205Z" />
<glyph unicode="&#x11e;" glyph-name="Gbreve" horiz-adv-x="618" d="M420 732Q391 732 371 741T339 767T323 804T318 849L325 851Q333 820 358 804T423 787Q465 787 495 804T535 851L542 849Q540 825 532 804T509 767T472 742T420 732ZM306 -10Q252 -10 203 4T115
51T54 136T31 263Q31 368 65 450T155 588T281 673T422 703Q527 703 600 675L583 504H573Q555 576 539 614Q524 650 498 666T415 683Q357 683 304 656T209 575T144 440T119 249Q119 199 129 156T161 80T220 28T308 9Q346 9 379 18T435 41L465 211Q468 224 468 232T464
245T453 252T435 257L396 265L398 274H620L618 265L589 257Q578 254 571 251T558 243T549 230T543 208L511 23Q477 9 429 0T306 -10Z" />
<glyph unicode="&#x11f;" glyph-name="gbreve" horiz-adv-x="461" d="M148 -203Q109 -203 73 -196T9 -173T-36 -135T-53 -81Q-53 -30 -15 1T89 49V51Q44 70 44 113Q44 145 67 168T128 208V210Q98 227 81 255T64 322Q64 368 81 404T125 467T188 507T258 521Q291
521 317 512T363 485Q386 506 409 521T458 537Q480 537 492 525T505 493Q505 476 494 465T467 453Q441 453 429 483Q425 494 419 496T406 497T391 488T373 474V472Q391 455 400 431T410 374Q410 329 394 295T350 236T288 200T216 187Q178 187 144 200Q127 190 114
174T100 141Q100 119 114 113T155 104L265 95Q404 83 404 -16Q404 -51 387 -84T337 -144T257 -187T148 -203ZM160 -184Q204 -184 237 -174T292 -145T326 -104T338 -56Q338 -16 318 4T249 30L110 43Q93 36 77 25T47 -1T27 -35T19 -76Q19 -125 54 -154T160 -184ZM217
205Q245 205 267 219T305 258T329 320T338 399Q338 450 320 476T256 503Q227 503 205 487T168 442T144 378T136 302Q136 205 217 205ZM273 580Q244 580 225 589T195 614T180 650T176 695L183 696Q198 634 276 634Q318 634 346 650T383 696L390 695Q388 671 381
650T359 614T323 589T273 580Z" />
<glyph unicode="&#x120;" glyph-name="Gdotaccent" horiz-adv-x="618" d="M412 735Q390 735 375 750T359 786Q359 807 374 822T412 837Q432 837 447 822T462 786Q462 766 447 751T412 735ZM306 -10Q252 -10 203 4T115 51T54 136T31 263Q31 368 65 450T155 588T281
673T422 703Q527 703 600 675L583 504H573Q555 576 539 614Q524 650 498 666T415 683Q357 683 304 656T209 575T144 440T119 249Q119 199 129 156T161 80T220 28T308 9Q346 9 379 18T435 41L465 211Q468 224 468 232T464 245T453 252T435 257L396 265L398 274H620L618
265L589 257Q578 254 571 251T558 243T549 230T543 208L511 23Q477 9 429 0T306 -10Z" />
<glyph unicode="&#x121;" glyph-name="gdotaccent" horiz-adv-x="461" d="M148 -203Q109 -203 73 -196T9 -173T-36 -135T-53 -81Q-53 -30 -15 1T89 49V51Q44 70 44 113Q44 145 67 168T128 208V210Q98 227 81 255T64 322Q64 368 81 404T125 467T188 507T258 521Q291
521 317 512T363 485Q386 506 409 521T458 537Q480 537 492 525T505 493Q505 476 494 465T467 453Q441 453 429 483Q425 494 419 496T406 497T391 488T373 474V472Q391 455 400 431T410 374Q410 329 394 295T350 236T288 200T216 187Q178 187 144 200Q127 190 114
174T100 141Q100 119 114 113T155 104L265 95Q404 83 404 -16Q404 -51 387 -84T337 -144T257 -187T148 -203ZM160 -184Q204 -184 237 -174T292 -145T326 -104T338 -56Q338 -16 318 4T249 30L110 43Q93 36 77 25T47 -1T27 -35T19 -76Q19 -125 54 -154T160 -184ZM217
205Q245 205 267 219T305 258T329 320T338 399Q338 450 320 476T256 503Q227 503 205 487T168 442T144 378T136 302Q136 205 217 205ZM225 880Q225 902 240 917T277 932Q299 932 314 917T329 880Q329 858 314 843T277 828Q255 828 240 843T225 880Z" />
<glyph unicode="&#x122;" glyph-name="Gcommaaccent" horiz-adv-x="618" d="M183 -202Q235 -189 257 -168T282 -120Q271 -129 252 -129Q235 -129 225 -119T215 -90Q215 -71 229 -60T262 -48Q287 -48 302 -62T318 -102Q318 -143 283 -172T185 -210L183 -202ZM306
-10Q252 -10 203 4T115 51T54 136T31 263Q31 368 65 450T155 588T281 673T422 703Q527 703 600 675L583 504H573Q555 576 539 614Q524 650 498 666T415 683Q357 683 304 656T209 575T144 440T119 249Q119 199 129 156T161 80T220 28T308 9Q346 9 379 18T435 41L465
211Q468 224 468 232T464 245T453 252T435 257L396 265L398 274H620L618 265L589 257Q578 254 571 251T558 243T549 230T543 208L511 23Q477 9 429 0T306 -10Z" />
<glyph unicode="&#x123;" glyph-name="gcommaaccent" horiz-adv-x="461" d="M350 991Q298 978 276 957T251 909Q256 914 264 916T281 918Q298 918 308 908T318 879Q318 860 304 849T271 837Q246 837 231 851T215 891Q215 932 250 961T348 999L350 991ZM148 -203Q109
-203 73 -196T9 -173T-36 -135T-53 -81Q-53 -30 -15 1T89 49V51Q44 70 44 113Q44 145 67 168T128 208V210Q98 227 81 255T64 322Q64 368 81 404T125 467T188 507T258 521Q291 521 317 512T363 485Q386 506 409 521T458 537Q480 537 492 525T505 493Q505 476 494
465T467 453Q441 453 429 483Q425 494 419 496T406 497T391 488T373 474V472Q391 455 400 431T410 374Q410 329 394 295T350 236T288 200T216 187Q178 187 144 200Q127 190 114 174T100 141Q100 119 114 113T155 104L265 95Q404 83 404 -16Q404 -51 387 -84T337
-144T257 -187T148 -203ZM160 -184Q204 -184 237 -174T292 -145T326 -104T338 -56Q338 -16 318 4T249 30L110 43Q93 36 77 25T47 -1T27 -35T19 -76Q19 -125 54 -154T160 -184ZM217 205Q245 205 267 219T305 258T329 320T338 399Q338 450 320 476T256 503Q227 503
205 487T168 442T144 378T136 302Q136 205 217 205Z" />
<glyph unicode="&#x124;" glyph-name="Hcircumflex" horiz-adv-x="661" d="M-29 9L9 17Q21 20 28 22T41 29T49 42T54 63L154 630Q159 656 153 663T124 676L90 684L91 693H325L323 684L280 676Q268 674 261 671T248 664T240 651T235 630L188 364H508L555 630Q560
656 555 663T526 676L486 684L488 693H722L720 684L682 676Q659 671 650 664T637 630L537 64Q532 38 538 30T570 16L602 9L600 0H365L367 9L410 18Q422 21 429 24T442 31T450 43T455 64L505 343H184L136 64Q132 41 136 32T169 16L204 9L203 0H-31L-29 9ZM284 728L424
846H455L546 729L541 723L430 779L288 722L284 728Z" />
<glyph unicode="&#x125;" glyph-name="hcircumflex" horiz-adv-x="516" d="M353 -8Q314 -8 314 33Q314 50 317 69T326 109L377 335Q386 376 390 403T392 445T383 467T362 474Q342 474 318 460T268 423T216 373T166 319L95 0H19L158 667Q163 690 156 699T126 719L90
734L91 740L246 755L250 752Q246 736 242 717Q238 700 234 679T225 631L192 460Q184 422 178 395T165 344H167Q197 380 227 412T285 468T342 507T396 521Q433 521 451 499T469 436Q469 420 464 393T451 329L400 103Q398 92 395 78T392 53Q392 39 406 39T457 59L485
75L490 68Q464 45 444 30T408 7T379 -5T353 -8ZM184 774L324 892H355L446 775L441 769L330 825L188 768L184 774Z" />
<glyph unicode="&#x126;" glyph-name="Hbar" horiz-adv-x="661" d="M59 522H706L702 502H54L59 522ZM-29 9L9 17Q21 20 28 22T41 29T49 42T54 63L154 630Q159 656 153 663T124 676L90 684L91 693H325L323 684L280 676Q268 674 261 671T248 664T240 651T235 630L188
364H508L555 630Q560 656 555 663T526 676L486 684L488 693H722L720 684L682 676Q659 671 650 664T637 630L537 64Q532 38 538 30T570 16L602 9L600 0H365L367 9L410 18Q422 21 429 24T442 31T450 43T455 64L505 343H184L136 64Q132 41 136 32T169 16L204 9L203
0H-31L-29 9Z" />
<glyph unicode="&#x127;" glyph-name="hbar" horiz-adv-x="516" d="M62 628H358L354 610H58L62 628ZM353 -8Q314 -8 314 33Q314 50 317 69T326 109L377 335Q386 376 390 403T392 445T383 467T362 474Q342 474 318 460T268 423T216 373T166 319L95 0H19L158 667Q163
690 156 699T126 719L90 734L91 740L246 755L250 752Q246 736 242 717Q238 700 234 679T225 631L192 460Q184 422 178 395T165 344H167Q197 380 227 412T285 468T342 507T396 521Q433 521 451 499T469 436Q469 420 464 393T451 329L400 103Q398 92 395 78T392 53Q392
39 406 39T457 59L485 75L490 68Q464 45 444 30T408 7T379 -5T353 -8Z" />
<glyph unicode="&#x128;" glyph-name="Itilde" horiz-adv-x="265" d="M159 630Q164 656 159 663T130 676L90 684L92 693H326L324 684L286 676Q263 671 254 664T241 630L141 64Q136 38 142 30T174 16L206 9L204 0H-31L-29 9L14 18Q26 21 33 24T46 31T54 43T59 64L159
630ZM334 729Q345 754 354 773T373 805T396 824T427 831Q444 831 462 827T499 819T535 810T568 806Q584 806 597 816T625 851L634 847Q612 796 593 772T539 747Q522 747 505 750T470 758T435 767T403 771Q386 771 372 761T342 725L334 729Z" />
<glyph unicode="&#x129;" glyph-name="itilde" horiz-adv-x="250" d="M81 -8Q58 -8 49 5T39 37Q39 54 41 67T51 109L118 407Q124 434 124 452Q124 465 112 467T67 448L39 429L34 436Q60 462 80 478T117 504T145 517T166 521Q184 521 195 510T207 481Q207 465 201
439T188 380L125 103Q123 92 120 79T117 53Q117 39 132 38T182 58L210 75L215 68Q136 -8 81 -8ZM298 579Q309 604 318 623T338 654T361 672T392 678Q409 678 424 674T453 664T481 654T510 649Q539 649 569 698L578 695Q556 644 538 620T485 596Q468 596 453 601T424
611T396 622T367 627Q350 627 336 614T306 576L298 579Z" />
<glyph unicode="&#x12a;" glyph-name="Imacron" horiz-adv-x="265" d="M159 630Q164 656 159 663T130 676L90 684L92 693H326L324 684L286 676Q263 671 254 664T241 630L141 64Q136 38 142 30T174 16L206 9L204 0H-31L-29 9L14 18Q26 21 33 24T46 31T54 43T59
64L159 630ZM358 792H607L599 754H351L358 792Z" />
<glyph unicode="&#x12b;" glyph-name="imacron" horiz-adv-x="250" d="M79 636H281L274 594H71L79 636ZM81 -8Q58 -8 49 5T39 37Q39 54 41 67T51 109L118 407Q124 434 124 452Q124 465 112 467T67 448L39 429L34 436Q60 462 80 478T117 504T145 517T166 521Q184
521 195 510T207 481Q207 465 201 439T188 380L125 103Q123 92 120 79T117 53Q117 39 132 38T182 58L210 75L215 68Q136 -8 81 -8Z" />
<glyph unicode="&#x12c;" glyph-name="Ibreve" horiz-adv-x="265" d="M159 630Q164 656 159 663T130 676L90 684L92 693H326L324 684L286 676Q263 671 254 664T241 630L141 64Q136 38 142 30T174 16L206 9L204 0H-31L-29 9L14 18Q26 21 33 24T46 31T54 43T59 64L159
630ZM472 732Q443 732 423 741T391 767T375 804T370 849L377 851Q385 820 410 804T475 787Q517 787 547 804T587 851L594 849Q592 825 584 804T561 767T524 742T472 732Z" />
<glyph unicode="&#x12d;" glyph-name="ibreve" horiz-adv-x="250" d="M81 -8Q58 -8 49 5T39 37Q39 54 41 67T51 109L118 407Q124 434 124 452Q124 465 112 467T67 448L39 429L34 436Q60 462 80 478T117 504T145 517T166 521Q184 521 195 510T207 481Q207 465 201
439T188 380L125 103Q123 92 120 79T117 53Q117 39 132 38T182 58L210 75L215 68Q136 -8 81 -8ZM434 580Q405 580 386 589T356 614T341 650T337 695L344 696Q359 634 437 634Q479 634 507 650T544 696L551 695Q549 671 542 650T520 614T484 589T434 580Z" />
<glyph unicode="&#x12e;" glyph-name="Iogonek" horiz-adv-x="265" d="M133 0Q102 -29 78 -62T53 -127Q51 -174 97 -174Q107 -174 117 -172T137 -165L135 -175Q119 -189 99 -197T64 -205Q29 -205 12 -186T-5 -140Q-4 -119 8 -99T38 -61T78 -27T120 0H-31L-29 9L14
18Q26 21 33 23T46 31T54 43T59 64L159 630Q164 656 159 663T130 676L90 684L92 693H326L324 684L286 676Q263 671 254 664T241 630L141 64Q136 38 142 30T174 16L206 9L204 0H133Z" />
<glyph unicode="&#x12f;" glyph-name="iogonek" horiz-adv-x="250" d="M45 -205Q13 -205 -5 -188T-24 -143Q-24 -122 -12 -102T19 -64T60 -30T104 -5Q90 -8 80 -8Q57 -8 48 5T39 37Q39 54 41 67T51 109L118 407Q124 434 124 452Q124 465 112 467T67 448L39 429L34
436Q60 462 80 478T117 504T145 517T166 521Q184 521 195 510T207 481Q207 465 201 439T188 380L125 103Q123 92 120 79T117 53Q117 39 132 38T182 58L210 75L215 68Q196 51 183 41T159 22Q138 7 116 -10T76 -45T46 -84T34 -127Q34 -174 78 -174Q88 -174 98 -172T118
-165L116 -175Q100 -189 80 -197T45 -205ZM188 605Q165 605 151 620T137 655Q137 675 151 689T187 704Q210 704 224 690T239 654Q239 635 225 620T188 605Z" />
<glyph unicode="&#x130;" glyph-name="Idotaccent" horiz-adv-x="265" d="M159 630Q164 656 159 663T130 676L90 684L92 693H326L324 684L286 676Q263 671 254 664T241 630L141 64Q136 38 142 30T174 16L206 9L204 0H-31L-29 9L14 18Q26 21 33 24T46 31T54 43T59
64L159 630ZM478 735Q456 735 441 750T425 786Q425 807 440 822T478 837Q498 837 513 822T528 786Q528 766 513 751T478 735Z" />
<glyph unicode="&#x131;" glyph-name="dotlessi" horiz-adv-x="250" d="M81 -8Q58 -8 49 5T39 37Q39 54 41 67T51 109L118 407Q124 434 124 452Q124 465 112 467T67 448L39 429L34 436Q60 462 80 478T117 504T145 517T166 521Q184 521 195 510T207 481Q207 465
201 439T188 380L125 103Q123 92 120 79T117 53Q117 39 132 38T182 58L210 75L215 68Q136 -8 81 -8Z" />
<glyph unicode="&#x132;" glyph-name="IJ" horiz-adv-x="577" d="M410 630Q415 656 410 663T381 676L341 684L343 693H577L575 684L537 676Q514 671 505 664T492 630L392 64Q387 38 393 30T425 16L457 9L455 0H220L222 9L265 18Q277 21 284 24T297 31T305 43T310
64L410 630ZM309 -10Q267 -10 245 6T222 47Q222 64 232 75T263 86Q285 86 294 74T307 39Q311 8 332 8Q353 8 367 40T390 118L480 630Q485 655 480 663T451 676L411 684L413 693H647L645 684L607 676Q596 673 589 671T576 664T567 651T562 630L483 190Q476 150 463
114T428 50T378 6T309 -10Z" />
<glyph unicode="&#x133;" glyph-name="ij" horiz-adv-x="492" d="M81 -8Q58 -8 49 5T39 37Q39 54 41 67T51 109L118 407Q124 434 124 452Q124 465 112 467T67 448L39 429L34 436Q60 462 80 478T117 504T145 517T166 521Q184 521 195 510T207 481Q207 465 201 439T188
380L125 103Q123 92 120 79T117 53Q117 39 132 38T182 58L210 75L215 68Q136 -8 81 -8ZM187 605Q164 605 150 620T136 655Q136 675 150 689T186 704Q209 704 223 690T238 654Q238 635 224 620T187 605ZM433 605Q410 605 396 620T381 655Q381 675 395 689T432 704Q454
704 468 690T483 654Q483 635 469 620T433 605ZM363 -12Q343 -116 297 -162T193 -208Q145 -208 122 -192T99 -148Q99 -130 110 -118T145 -105Q183 -105 189 -155Q191 -173 195 -182T212 -191Q231 -191 249 -162T281 -62L363 407Q365 421 367 432T369 452Q369 465
357 467T312 448L284 429L279 436Q305 462 325 478T362 504T390 517T411 521Q429 521 440 510T452 481Q452 464 447 438T436 380L363 -12Z" />
<glyph unicode="&#x134;" glyph-name="Jcircumflex" horiz-adv-x="321" d="M398 728L538 846H569L660 729L655 723L544 779L402 722L398 728ZM53 -10Q11 -10 -11 6T-34 47Q-34 64 -24 75T7 86Q29 86 38 74T51 39Q55 8 76 8Q97 8 111 40T134 118L224 630Q229 655
224 663T195 676L155 684L157 693H391L389 684L351 676Q340 673 333 671T320 664T311 651T306 630L227 190Q220 150 207 114T172 50T122 6T53 -10Z" />
<glyph unicode="&#x135;" glyph-name="jcircumflex" horiz-adv-x="242" d="M-57 -208Q-105 -208 -128 -192T-151 -148Q-151 -130 -140 -118T-105 -105Q-67 -105 -61 -155Q-59 -173 -55 -182T-38 -191Q-19 -191 -1 -162T31 -62L113 407Q115 421 117 432T119 452Q119
465 107 467T62 448L34 429L29 436Q55 462 75 478T112 504T140 517T161 521Q179 521 190 510T202 481Q202 464 197 438T186 380L113 -12Q93 -116 47 -162T-57 -208ZM296 575L434 704H464L541 573L535 568L439 637L301 569L296 575Z" />
<glyph unicode="&#x136;" glyph-name="Kcommaaccent" horiz-adv-x="573" d="M166 -202Q218 -189 240 -168T265 -120Q254 -129 235 -129Q218 -129 208 -119T198 -90Q198 -71 212 -60T245 -48Q270 -48 285 -62T301 -102Q301 -143 266 -172T168 -210L166 -202ZM405
0Q380 37 356 81T309 171T265 265T225 356L226 362L463 603Q477 617 484 628T492 650Q492 663 481 668T451 678L427 684L429 693H629L627 684L613 679Q590 671 576 665T549 650T522 628T485 592L293 399Q335 301 381 210T470 53Q481 35 492 27T524 14L544 9L542
0H405ZM154 630Q159 656 154 663T125 676L85 684L87 693H321L319 684L281 676Q258 671 249 664T236 630L136 64Q131 38 137 30T169 16L201 9L199 0H-31L-29 9L9 18Q21 21 28 23T41 31T49 43T54 64L154 630Z" />
<glyph unicode="&#x137;" glyph-name="kcommaaccent" horiz-adv-x="468" d="M339 -202Q391 -189 413 -168T438 -120Q427 -129 408 -129Q391 -129 381 -119T371 -90Q371 -71 385 -60T418 -48Q443 -48 458 -62T474 -102Q474 -143 439 -172T341 -210L339 -202ZM573
-8Q549 -8 535 7T503 61Q486 101 470 149T433 267V270Q465 316 497 361T562 441T625 499T685 521Q712 521 724 507T737 477Q737 457 726 445T694 432Q679 432 671 438T658 451T649 465T638 471Q628 471 611 458T574 424T532 375T489 317Q501 279 511 249T531 193T551
143T572 92Q580 73 587 62T605 46T628 45T662 61L688 76L693 69Q658 34 626 13T573 -8ZM412 667Q417 690 411 699T380 719L344 734L345 740L500 755L504 752Q501 736 497 717Q493 700 489 679T479 631L348 0H273L412 667Z" />
<glyph unicode="&#x139;" glyph-name="Lacute" horiz-adv-x="513" d="M375 732L521 831Q538 842 551 842Q569 842 578 831T588 805Q588 792 578 782T551 768L379 724L375 732ZM-30 8L9 16Q32 21 40 30T54 62L154 630Q159 655 153 663T124 676L89 684L91 693H326L323
682L280 673Q257 668 248 660T235 628L143 100Q139 76 141 61T154 36T186 24T243 20Q280 20 304 21T343 28T370 43T395 71Q415 97 434 130T475 202H487L436 0H-31L-30 8Z" />
<glyph unicode="&#x13a;" glyph-name="lacute" horiz-adv-x="242" d="M370 788L516 887Q533 898 546 898Q564 898 573 887T583 861Q583 848 573 838T546 824L374 780L370 788ZM156 667Q161 690 155 699T124 719L88 734L89 740L244 755L248 752Q244 736 240 717Q236
700 232 679T223 631L120 103Q118 92 116 80T114 57Q114 40 129 39T186 64L214 81L219 74Q179 36 142 14T74 -8Q52 -8 43 4T34 33Q34 48 37 68T46 109L156 667Z" />
<glyph unicode="&#x13b;" glyph-name="Lcommaaccent" horiz-adv-x="513" d="M134 -202Q186 -189 208 -168T233 -120Q222 -129 203 -129Q186 -129 176 -119T166 -90Q166 -71 180 -60T213 -48Q238 -48 253 -62T269 -102Q269 -143 234 -172T136 -210L134 -202ZM-30
8L9 16Q32 21 40 30T54 62L154 630Q159 655 153 663T124 676L89 684L91 693H326L323 682L280 673Q257 668 248 660T235 628L143 100Q139 76 141 61T154 36T186 24T243 20Q280 20 304 21T343 28T370 43T395 71Q415 97 434 130T475 202H487L436 0H-31L-30 8Z" />
<glyph unicode="&#x13c;" glyph-name="lcommaaccent" horiz-adv-x="242" d="M-31 -202Q21 -189 43 -168T68 -120Q57 -129 38 -129Q21 -129 11 -119T1 -90Q1 -71 15 -60T48 -48Q73 -48 88 -62T104 -102Q104 -143 69 -172T-29 -210L-31 -202ZM156 667Q161 690 155
699T124 719L88 734L89 740L244 755L248 752Q244 736 240 717Q236 700 232 679T223 631L120 103Q118 92 116 80T114 57Q114 40 129 39T186 64L214 81L219 74Q179 36 142 14T74 -8Q52 -8 43 4T34 33Q34 48 37 68T46 109L156 667Z" />
<glyph unicode="&#x13d;" glyph-name="Lcaron" horiz-adv-x="513" d="M-30 8L9 16Q32 21 40 30T54 62L154 630Q159 655 153 663T124 676L89 684L91 693H326L323 682L280 673Q257 668 248 660T235 628L143 100Q139 76 141 61T154 36T186 24T243 20Q280 20 304 21T343
28T370 43T395 71Q415 97 434 130T475 202H487L436 0H-31L-30 8ZM336 800L362 928Q365 942 373 953T399 965Q413 965 423 956T434 932Q434 912 419 894L343 797L336 800Z" />
<glyph unicode="&#x13e;" glyph-name="lcaron" horiz-adv-x="242" d="M256 594L282 722Q285 736 293 747T319 759Q333 759 343 750T354 726Q354 706 339 688L263 591L256 594ZM156 667Q161 690 155 699T124 719L88 734L89 740L244 755L248 752Q244 736 240 717Q236
700 232 679T223 631L120 103Q118 92 116 80T114 57Q114 40 129 39T186 64L214 81L219 74Q179 36 142 14T74 -8Q52 -8 43 4T34 33Q34 48 37 68T46 109L156 667Z" />
<glyph unicode="&#x13f;" glyph-name="Ldot" horiz-adv-x="513" d="M-30 8L9 16Q32 21 40 30T54 62L154 630Q159 655 153 663T124 676L89 684L91 693H326L323 682L280 673Q257 668 248 660T235 628L143 100Q139 76 141 61T154 36T186 24T243 20Q280 20 304 21T343
28T370 43T395 71Q415 97 434 130T475 202H487L436 0H-31L-30 8ZM368 374Q368 397 383 412T422 428Q445 428 460 413T476 374Q476 351 461 336T422 320Q399 320 384 335T368 374Z" />
<glyph unicode="&#x140;" glyph-name="ldot" horiz-adv-x="256" d="M216 385Q216 405 230 420T266 435Q286 435 300 420T315 385Q315 364 301 350T266 335Q245 335 231 349T216 385ZM156 667Q161 690 155 699T124 719L88 734L89 740L244 755L248 752Q244 736 240
717Q236 700 232 679T223 631L120 103Q118 92 116 80T114 57Q114 40 129 39T186 64L214 81L219 74Q179 36 142 14T74 -8Q52 -8 43 4T34 33Q34 48 37 68T46 109L156 667Z" />
<glyph unicode="&#x141;" glyph-name="Lslash" horiz-adv-x="513" d="M14 283L98 314L154 630Q159 655 153 663T124 676L89 684L91 693H326L323 682L280 673Q257 668 248 660T235 628L186 347L398 426L393 403L182 324L143 100Q139 76 141 61T154 36T186 24T243
20Q280 20 304 21T343 28T370 43T395 71Q415 97 434 130T475 202H487L436 0H-31L-30 8L9 16Q32 21 40 30T54 62L94 291L9 259L14 283Z" />
<glyph unicode="&#x142;" glyph-name="lslash" horiz-adv-x="242" d="M20 351L102 393L156 667Q161 690 155 699T124 719L88 734L89 740L244 755L248 752Q244 736 240 717Q236 700 232 679T223 631L185 436L277 484L273 461L180 413L120 103Q118 92 116 80T114
57Q114 40 129 39T186 64L214 81L219 74Q179 36 142 14T74 -8Q52 -8 43 4T34 33Q34 48 37 68T46 109L97 370L16 328L20 351Z" />
<glyph unicode="&#x143;" glyph-name="Nacute" horiz-adv-x="626" d="M301 732L447 831Q464 842 477 842Q495 842 504 831T514 805Q514 792 504 782T477 768L305 724L301 732ZM574 607Q577 626 577 637T571 656T555 668T527 678L504 684L506 693H685L683 684L656
677Q641 673 632 669T616 657T607 639T600 611L490 -5H461L183 630H180L84 86Q81 67 81 55T87 36T103 24T131 15L156 9L154 0H-32L-30 9L2 16Q25 21 38 35T57 82L154 630Q159 655 153 663T124 676L89 684L91 693H244L488 136H490L574 607Z" />
<glyph unicode="&#x144;" glyph-name="nacute" horiz-adv-x="527" d="M272 575L268 582L390 687Q406 702 421 702Q439 702 449 690T460 664Q460 652 453 641T429 624L272 575ZM364 -8Q325 -8 325 33Q325 50 328 69T337 109L388 335Q397 376 401 403T403 446T394
468T373 475Q353 475 329 461T279 424T227 373T177 319L106 0H30L116 407Q118 418 120 430T122 452Q122 464 111 467T65 448L37 429L32 436Q80 486 112 503T164 521Q178 521 189 512T200 483Q200 470 198 453T192 416T184 378T176 344H178Q208 380 238 412T296
468T353 507T407 521Q444 521 462 499T480 436Q480 420 475 393T462 329L411 103Q409 92 406 78T403 53Q403 39 417 39T468 59L496 75L501 68Q475 45 455 30T419 7T390 -5T364 -8Z" />
<glyph unicode="&#x145;" glyph-name="Ncommaaccent" horiz-adv-x="626" d="M166 -202Q218 -189 240 -168T265 -120Q254 -129 235 -129Q218 -129 208 -119T198 -90Q198 -71 212 -60T245 -48Q270 -48 285 -62T301 -102Q301 -143 266 -172T168 -210L166 -202ZM574
607Q577 626 577 637T571 656T555 668T527 678L504 684L506 693H685L683 684L656 677Q641 673 632 669T616 657T607 639T600 611L490 -5H461L183 630H180L84 86Q81 67 81 55T87 36T103 24T131 15L156 9L154 0H-32L-30 9L2 16Q25 21 38 35T57 82L154 630Q159 655
153 663T124 676L89 684L91 693H244L488 136H490L574 607Z" />
<glyph unicode="&#x146;" glyph-name="ncommaaccent" horiz-adv-x="527" d="M128 -202Q180 -189 202 -168T227 -120Q216 -129 197 -129Q180 -129 170 -119T160 -90Q160 -71 174 -60T207 -48Q232 -48 247 -62T263 -102Q263 -143 228 -172T130 -210L128 -202ZM364
-8Q325 -8 325 33Q325 50 328 69T337 109L388 335Q397 376 401 403T403 446T394 468T373 475Q353 475 329 461T279 424T227 373T177 319L106 0H30L116 407Q118 418 120 430T122 452Q122 464 111 467T65 448L37 429L32 436Q80 486 112 503T164 521Q178 521 189 512T200
483Q200 470 198 453T192 416T184 378T176 344H178Q208 380 238 412T296 468T353 507T407 521Q444 521 462 499T480 436Q480 420 475 393T462 329L411 103Q409 92 406 78T403 53Q403 39 417 39T468 59L496 75L501 68Q475 45 455 30T419 7T390 -5T364 -8Z" />
<glyph unicode="&#x147;" glyph-name="Ncaron" horiz-adv-x="626" d="M545 847L405 729H374L283 846L288 852L399 796L541 853L545 847ZM574 607Q577 626 577 637T571 656T555 668T527 678L504 684L506 693H685L683 684L656 677Q641 673 632 669T616 657T607 639T600
611L490 -5H461L183 630H180L84 86Q81 67 81 55T87 36T103 24T131 15L156 9L154 0H-32L-30 9L2 16Q25 21 38 35T57 82L154 630Q159 655 153 663T124 676L89 684L91 693H244L488 136H490L574 607Z" />
<glyph unicode="&#x148;" glyph-name="ncaron" horiz-adv-x="527" d="M458 705L320 576H290L213 707L219 712L315 643L453 711L458 705ZM364 -8Q325 -8 325 33Q325 50 328 69T337 109L388 335Q397 376 401 403T403 446T394 468T373 475Q353 475 329 461T279 424T227
373T177 319L106 0H30L116 407Q118 418 120 430T122 452Q122 464 111 467T65 448L37 429L32 436Q80 486 112 503T164 521Q178 521 189 512T200 483Q200 470 198 453T192 416T184 378T176 344H178Q208 380 238 412T296 468T353 507T407 521Q444 521 462 499T480
436Q480 420 475 393T462 329L411 103Q409 92 406 78T403 53Q403 39 417 39T468 59L496 75L501 68Q475 45 455 30T419 7T390 -5T364 -8Z" />
<glyph unicode="&#x149;" glyph-name="napostrophe" horiz-adv-x="527" d="M364 -8Q325 -8 325 33Q325 50 328 69T337 109L388 335Q397 376 401 403T403 446T394 468T373 475Q353 475 329 461T279 424T227 373T177 319L106 0H30L116 407Q118 418 120 430T122 452Q122
464 111 467T65 448L37 429L32 436Q80 486 112 503T164 521Q178 521 189 512T200 483Q200 470 198 453T192 416T184 378T176 344H178Q208 380 238 412T296 468T353 507T407 521Q444 521 462 499T480 436Q480 420 475 393T462 329L411 103Q409 92 406 78T403 53Q403
39 417 39T468 59L496 75L501 68Q475 45 455 30T419 7T390 -5T364 -8ZM7 540Q59 553 81 574T106 622Q95 613 76 613Q59 613 49 623T39 652Q39 671 53 682T86 694Q111 694 126 680T142 640Q142 599 107 570T9 532L7 540Z" />
<glyph unicode="&#x14a;" glyph-name="Eng" horiz-adv-x="626" d="M494 19Q486 -28 474 -60T445 -113T406 -143T353 -152Q311 -152 290 -137T269 -95Q269 -76 280 -64T311 -52Q334 -52 344 -65T357 -103Q360 -117 362 -123T376 -130Q406 -130 430 -99T465 -4L183
630H180L84 86Q81 67 81 55T87 36T103 24T131 15L156 9L154 0H-32L-30 9L2 16Q25 21 38 35T57 82L154 630Q159 655 153 663T124 676L89 684L91 693H244L488 136H490L574 607Q577 626 577 637T571 656T555 668T527 678L504 684L506 693H685L683 684L656 677Q641
673 632 669T616 657T607 639T600 611L494 19Z" />
<glyph unicode="&#x14b;" glyph-name="eng" horiz-adv-x="519" d="M388 335Q396 376 399 403T402 446T393 468T373 475Q353 475 329 461T279 424T227 373T177 319L106 0H30L116 407Q118 418 120 431T122 452Q122 466 110 468T65 448L37 429L32 436Q80 486 112
503T164 521Q178 521 189 512T200 483Q200 470 198 453T192 416T184 378T176 344H178Q208 380 238 412T296 468T353 507T407 521Q444 521 462 499T480 436Q480 421 476 396T464 333L395 -2Q375 -99 329 -153T216 -208Q170 -208 148 -192T126 -148Q126 -128 138
-118T172 -107Q192 -107 202 -120T216 -155Q218 -173 222 -181T239 -190Q258 -190 276 -162T308 -62L388 335Z" />
<glyph unicode="&#x14c;" glyph-name="Omacron" horiz-adv-x="636" d="M281 792H530L522 754H274L281 792ZM286 -10Q233 -10 187 10T106 68T52 158T32 275Q32 369 62 447T141 583T254 671T386 703Q443 703 488 681T566 619T615 527T632 411Q632 319 603 242T526
108T416 21T286 -10ZM290 10Q345 10 392 42T472 133T525 272T544 450Q544 490 538 531T515 607T467 662T386 683Q329 683 280 650T196 558T140 420T119 248Q119 204 126 161T152 85T204 31T290 10Z" />
<glyph unicode="&#x14d;" glyph-name="omacron" horiz-adv-x="491" d="M196 640H420L414 602H189L196 640ZM197 -10Q158 -10 126 5T70 48T34 111T21 191Q21 270 47 331T113 435T201 499T293 521Q332 521 365 506T421 463T457 400T470 320Q470 239 444 177T379
74T291 11T197 -10ZM197 8Q237 8 272 35T333 110T374 220T390 351Q390 430 366 466T293 503Q255 503 220 477T159 404T117 295T101 160Q101 81 125 45T197 8Z" />
<glyph unicode="&#x14e;" glyph-name="Obreve" horiz-adv-x="636" d="M395 732Q366 732 346 741T314 767T298 804T293 849L300 851Q308 820 333 804T398 787Q440 787 470 804T510 851L517 849Q515 825 507 804T484 767T447 742T395 732ZM286 -10Q233 -10 187 10T106
68T52 158T32 275Q32 369 62 447T141 583T254 671T386 703Q443 703 488 681T566 619T615 527T632 411Q632 319 603 242T526 108T416 21T286 -10ZM290 10Q345 10 392 42T472 133T525 272T544 450Q544 490 538 531T515 607T467 662T386 683Q329 683 280 650T196 558T140
420T119 248Q119 204 126 161T152 85T204 31T290 10Z" />
<glyph unicode="&#x14f;" glyph-name="obreve" horiz-adv-x="491" d="M197 -10Q158 -10 126 5T70 48T34 111T21 191Q21 270 47 331T113 435T201 499T293 521Q332 521 365 506T421 463T457 400T470 320Q470 239 444 177T379 74T291 11T197 -10ZM197 8Q237 8 272
35T333 110T374 220T390 351Q390 430 366 466T293 503Q255 503 220 477T159 404T117 295T101 160Q101 81 125 45T197 8ZM305 580Q276 580 257 589T227 614T212 650T208 695L215 696Q230 634 308 634Q350 634 378 650T415 696L422 695Q420 671 413 650T391 614T355
589T305 580Z" />
<glyph unicode="&#x150;" glyph-name="Ohungarumlaut" horiz-adv-x="636" d="M301 734L380 853Q388 864 396 870T417 877Q433 877 444 867T455 841Q455 815 425 798L307 728L301 734ZM457 734L536 853Q544 864 552 870T573 877Q589 877 600 867T611 841Q611 815
581 798L463 728L457 734ZM286 -10Q233 -10 187 10T106 68T52 158T32 275Q32 369 62 447T141 583T254 671T386 703Q443 703 488 681T566 619T615 527T632 411Q632 319 603 242T526 108T416 21T286 -10ZM290 10Q345 10 392 42T472 133T525 272T544 450Q544 490 538
531T515 607T467 662T386 683Q329 683 280 650T196 558T140 420T119 248Q119 204 126 161T152 85T204 31T290 10Z" />
<glyph unicode="&#x151;" glyph-name="ohungarumlaut" horiz-adv-x="491" d="M207 573L287 699Q295 711 304 718T325 726Q342 726 353 715T364 686Q364 675 357 666T339 649L213 567L207 573ZM362 573L442 699Q450 711 459 718T480 726Q497 726 508 715T519 686Q519
675 512 666T494 649L368 567L362 573ZM197 -10Q158 -10 126 5T70 48T34 111T21 191Q21 270 47 331T113 435T201 499T293 521Q332 521 365 506T421 463T457 400T470 320Q470 239 444 177T379 74T291 11T197 -10ZM197 8Q237 8 272 35T333 110T374 220T390 351Q390
430 366 466T293 503Q255 503 220 477T159 404T117 295T101 160Q101 81 125 45T197 8Z" />
<glyph unicode="&#x152;" glyph-name="OE" horiz-adv-x="885" d="M883 693L885 535H876Q868 557 859 579T842 617Q831 637 822 648T799 665T761 672T699 674Q657 674 634 672T597 665L546 370H596Q627 370 646 372T678 378T698 390T711 407Q719 423 725 436T741
474H750L709 247H700Q698 271 698 281T695 306Q693 322 688 330T671 343T636 349T578 350H542L502 123Q495 84 494 63T503 33T540 21T614 19Q654 19 678 21T718 29T744 45T767 70Q777 82 788 98T811 130T831 163T849 192H859L806 0H304Q242 0 192 15T107 64T52
147T32 267Q32 363 62 441T145 576T268 662T418 693H883ZM422 674Q363 674 318 653T239 598T182 519T145 427T125 334T119 250Q119 184 133 140T173 68T231 30T302 19Q336 19 356 22T389 33T406 55T416 93L504 602Q508 626 507 640T496 662T469 672T422 674Z" />
<glyph unicode="&#x153;" glyph-name="oe" horiz-adv-x="781" d="M513 -10Q452 -10 422 15T383 89Q347 40 299 15T197 -10Q158 -10 126 5T71 48T34 111T21 191Q21 270 47 331T113 435T201 499T293 521Q367 521 404 477T448 362Q469 396 493 425T546 475T604 509T664
521Q724 521 752 495T781 431Q781 402 763 373T705 318T605 269T459 232Q454 209 451 186T448 138Q448 83 472 53T538 22Q586 22 623 43T703 103L710 95Q694 75 674 57T628 23T574 -1T513 -10ZM197 8Q236 8 271 35T332 107T374 213T390 342Q390 420 369 461T293
503Q255 503 220 477T159 404T117 295T101 160Q101 81 125 45T197 8ZM656 503Q633 503 605 483T549 428T499 347T462 248Q534 262 580 282T655 329Q679 351 690 382T702 439Q702 474 689 488T656 503Z" />
<glyph unicode="&#x154;" glyph-name="Racute" horiz-adv-x="568" d="M241 732L387 831Q404 842 417 842Q435 842 444 831T454 805Q454 792 444 782T417 768L245 724L241 732ZM-30 9L8 17Q30 22 40 31T54 63L154 630Q159 655 154 663T125 676L89 684L91 693H332Q435
693 482 651T530 535Q530 497 516 465T478 408T419 367T345 343V340Q361 300 379 260T416 182T453 111T487 50Q498 33 506 26T536 13L553 9L552 0H421Q373 81 337 163T269 334H184L137 70Q135 56 135 48T138 33T150 24T172 17L210 9L208 0H-32L-30 9ZM250 353Q303
353 340 368T401 409T435 469T446 542Q446 609 418 641T324 674Q302 674 280 673T243 667L188 358Q196 356 206 355Q214 354 225 354T250 353Z" />
<glyph unicode="&#x155;" glyph-name="racute" horiz-adv-x="390" d="M221 575L217 582L339 687Q355 702 370 702Q388 702 398 690T409 664Q409 652 402 641T378 624L221 575ZM116 407Q118 417 120 430T122 452Q122 466 110 468T65 448L37 429L32 436Q77 482 109
501T164 521Q180 521 190 511T200 483Q200 466 197 443T188 395T177 346T166 300H169Q193 340 218 379T268 450T319 501T366 521Q391 521 403 509T416 474Q416 454 404 440T372 425Q358 425 350 429T335 438T324 448T312 452Q305 452 291 439T256 400T213 341T165
265L106 0H30L116 407Z" />
<glyph unicode="&#x156;" glyph-name="Rcommaaccent" horiz-adv-x="568" d="M171 -202Q223 -189 245 -168T270 -120Q259 -129 240 -129Q223 -129 213 -119T203 -90Q203 -71 217 -60T250 -48Q275 -48 290 -62T306 -102Q306 -143 271 -172T173 -210L171 -202ZM-30
9L8 17Q30 22 40 31T54 63L154 630Q159 655 154 663T125 676L89 684L91 693H332Q435 693 482 651T530 535Q530 497 516 465T478 408T419 367T345 343V340Q361 300 379 260T416 182T453 111T487 50Q498 33 506 26T536 13L553 9L552 0H421Q373 81 337 163T269 334H184L137
70Q135 56 135 48T138 33T150 24T172 17L210 9L208 0H-32L-30 9ZM250 353Q303 353 340 368T401 409T435 469T446 542Q446 609 418 641T324 674Q302 674 280 673T243 667L188 358Q196 356 206 355Q214 354 225 354T250 353Z" />
<glyph unicode="&#x157;" glyph-name="rcommaaccent" horiz-adv-x="390" d="M-30 -202Q22 -189 44 -168T69 -120Q58 -129 39 -129Q22 -129 12 -119T2 -90Q2 -71 16 -60T49 -48Q74 -48 89 -62T105 -102Q105 -143 70 -172T-28 -210L-30 -202ZM116 407Q118 417 120
430T122 452Q122 466 110 468T65 448L37 429L32 436Q77 482 109 501T164 521Q180 521 190 511T200 483Q200 466 197 443T188 395T177 346T166 300H169Q193 340 218 379T268 450T319 501T366 521Q391 521 403 509T416 474Q416 454 404 440T372 425Q358 425 350 429T335
438T324 448T312 452Q305 452 291 439T256 400T213 341T165 265L106 0H30L116 407Z" />
<glyph unicode="&#x158;" glyph-name="Rcaron" horiz-adv-x="568" d="M476 847L336 729H305L214 846L219 852L330 796L472 853L476 847ZM-30 9L8 17Q30 22 40 31T54 63L154 630Q159 655 154 663T125 676L89 684L91 693H332Q435 693 482 651T530 535Q530 497 516
465T478 408T419 367T345 343V340Q361 300 379 260T416 182T453 111T487 50Q498 33 506 26T536 13L553 9L552 0H421Q373 81 337 163T269 334H184L137 70Q135 56 135 48T138 33T150 24T172 17L210 9L208 0H-32L-30 9ZM250 353Q303 353 340 368T401 409T435 469T446
542Q446 609 418 641T324 674Q302 674 280 673T243 667L188 358Q196 356 206 355Q214 354 225 354T250 353Z" />
<glyph unicode="&#x159;" glyph-name="rcaron" horiz-adv-x="390" d="M418 705L280 576H250L173 707L179 712L275 643L413 711L418 705ZM116 407Q118 417 120 430T122 452Q122 466 110 468T65 448L37 429L32 436Q77 482 109 501T164 521Q180 521 190 511T200 483Q200
466 197 443T188 395T177 346T166 300H169Q193 340 218 379T268 450T319 501T366 521Q391 521 403 509T416 474Q416 454 404 440T372 425Q358 425 350 429T335 438T324 448T312 452Q305 452 291 439T256 400T213 341T165 265L106 0H30L116 407Z" />
<glyph unicode="&#x15a;" glyph-name="Sacute" horiz-adv-x="475" d="M201 -10Q129 -10 83 5T6 43L21 207H30Q36 177 44 149T61 91Q67 71 76 56T100 30T139 14T197 9Q239 9 268 21T316 53T344 101T353 159Q353 183 346 204T323 245T282 287T221 334Q153 380 124
423T95 517Q95 560 113 594T160 653T229 690T310 703Q369 703 409 692T469 669L460 518H451Q442 551 434 574T417 617Q401 655 375 670T302 685Q273 685 248 676T204 648T175 605T164 547Q164 530 168 514T185 480T218 443T273 400Q317 370 346 344T394 294T419
245T427 194Q427 148 409 111T360 46T288 5T201 -10ZM221 732L367 831Q384 842 397 842Q415 842 424 831T434 805Q434 792 424 782T397 768L225 724L221 732Z" />
<glyph unicode="&#x15b;" glyph-name="sacute" horiz-adv-x="365" d="M178 575L174 582L296 687Q312 702 327 702Q345 702 355 690T366 664Q366 652 359 641T335 624L178 575ZM131 -10Q57 -10 24 12T-9 65Q-9 82 1 93T31 105Q48 105 59 96T78 57Q86 30 99 20T142
9Q163 9 181 16T212 37T234 69T242 108Q242 126 238 140T224 169T199 198T160 232Q109 274 90 306T70 372Q70 405 83 432T120 479T174 510T239 521Q296 521 328 502T360 454Q360 435 350 425T322 414Q301 414 291 426T273 463Q266 484 258 493T226 502Q205 502
187 494T157 473T137 441T130 404Q130 389 134 377T148 351T175 321T219 284Q264 249 286 217T308 145Q308 112 295 84T259 34T204 2T131 -10Z" />
<glyph unicode="&#x15c;" glyph-name="Scircumflex" horiz-adv-x="475" d="M172 728L312 846H343L434 729L429 723L318 779L176 722L172 728ZM201 -10Q129 -10 83 5T6 43L21 207H30Q36 177 44 149T61 91Q67 71 76 56T100 30T139 14T197 9Q239 9 268 21T316 53T344
101T353 159Q353 183 346 204T323 245T282 287T221 334Q153 380 124 423T95 517Q95 560 113 594T160 653T229 690T310 703Q369 703 409 692T469 669L460 518H451Q442 551 434 574T417 617Q401 655 375 670T302 685Q273 685 248 676T204 648T175 605T164 547Q164
530 168 514T185 480T218 443T273 400Q317 370 346 344T394 294T419 245T427 194Q427 148 409 111T360 46T288 5T201 -10Z" />
<glyph unicode="&#x15d;" glyph-name="scircumflex" horiz-adv-x="365" d="M371 575L509 704H539L616 573L610 568L514 637L376 569L371 575ZM131 -10Q57 -10 24 12T-9 65Q-9 82 1 93T31 105Q48 105 59 96T78 57Q86 30 99 20T142 9Q163 9 181 16T212 37T234 69T242
108Q242 126 238 140T224 169T199 198T160 232Q109 274 90 306T70 372Q70 405 83 432T120 479T174 510T239 521Q296 521 328 502T360 454Q360 435 350 425T322 414Q301 414 291 426T273 463Q266 484 258 493T226 502Q205 502 187 494T157 473T137 441T130 404Q130
389 134 377T148 351T175 321T219 284Q264 249 286 217T308 145Q308 112 295 84T259 34T204 2T131 -10Z" />
<glyph unicode="&#x15e;" glyph-name="Scedilla" horiz-adv-x="475" d="M201 -10Q129 -10 83 5T6 43L21 207H30Q36 177 44 149T61 91Q67 71 76 56T100 30T139 14T197 9Q239 9 268 21T316 53T344 101T353 159Q353 183 346 204T323 245T282 287T221 334Q153 380
124 423T95 517Q95 560 113 594T160 653T229 690T310 703Q369 703 409 692T469 669L460 518H451Q442 551 434 574T417 617Q401 655 375 670T302 685Q273 685 248 676T204 648T175 605T164 547Q164 530 168 514T185 480T218 443T273 400Q317 370 346 344T394 294T419
245T427 194Q427 148 409 111T360 46T288 5T201 -10ZM309 -196Q362 -185 385 -167T408 -126Q408 -112 395 -104T358 -91L354 -83L414 0H444L400 -52Q426 -56 448 -70T470 -114Q470 -152 429 -173T309 -205V-196V-196Z" />
<glyph unicode="&#x15f;" glyph-name="scedilla" horiz-adv-x="365" d="M131 -10Q57 -10 24 12T-9 65Q-9 82 1 93T31 105Q48 105 59 96T78 57Q86 30 99 20T142 9Q163 9 181 16T212 37T234 69T242 108Q242 126 238 140T224 169T199 198T160 232Q109 274 90 306T70
372Q70 405 83 432T120 479T174 510T239 521Q296 521 328 502T360 454Q360 435 350 425T322 414Q301 414 291 426T273 463Q266 484 258 493T226 502Q205 502 187 494T157 473T137 441T130 404Q130 389 134 377T148 351T175 321T219 284Q264 249 286 217T308 145Q308
112 295 84T259 34T204 2T131 -10ZM268 -196Q321 -185 344 -167T367 -126Q367 -112 354 -104T317 -91L313 -83L373 0H403L359 -52Q385 -56 407 -70T429 -114Q429 -152 388 -173T268 -205V-196V-196Z" />
<glyph unicode="&#x160;" glyph-name="Scaron" horiz-adv-x="475" d="M461 847L321 729H290L199 846L204 852L315 796L457 853L461 847ZM201 -10Q129 -10 83 5T6 43L21 207H30Q36 177 44 149T61 91Q67 71 76 56T100 30T139 14T197 9Q239 9 268 21T316 53T344 101T353
159Q353 183 346 204T323 245T282 287T221 334Q153 380 124 423T95 517Q95 560 113 594T160 653T229 690T310 703Q369 703 409 692T469 669L460 518H451Q442 551 434 574T417 617Q401 655 375 670T302 685Q273 685 248 676T204 648T175 605T164 547Q164 530 168
514T185 480T218 443T273 400Q317 370 346 344T394 294T419 245T427 194Q427 148 409 111T360 46T288 5T201 -10Z" />
<glyph unicode="&#x161;" glyph-name="scaron" horiz-adv-x="365" d="M642 705L504 576H474L397 707L403 712L499 643L637 711L642 705ZM131 -10Q57 -10 24 12T-9 65Q-9 82 1 93T31 105Q48 105 59 96T78 57Q86 30 99 20T142 9Q163 9 181 16T212 37T234 69T242
108Q242 126 238 140T224 169T199 198T160 232Q109 274 90 306T70 372Q70 405 83 432T120 479T174 510T239 521Q296 521 328 502T360 454Q360 435 350 425T322 414Q301 414 291 426T273 463Q266 484 258 493T226 502Q205 502 187 494T157 473T137 441T130 404Q130
389 134 377T148 351T175 321T219 284Q264 249 286 217T308 145Q308 112 295 84T259 34T204 2T131 -10Z" />
<glyph unicode="&#x162;" glyph-name="Tcommaaccent" horiz-adv-x="555" d="M135 -202Q187 -189 209 -168T234 -120Q223 -129 204 -129Q187 -129 177 -119T167 -90Q167 -71 181 -60T214 -48Q239 -48 254 -62T270 -102Q270 -143 235 -172T137 -210L135 -202ZM117
9L157 17Q182 22 191 31T205 65L313 672H293Q254 672 228 670T184 661T152 640T124 602Q110 578 99 557T72 505H60L103 693H607L591 505H579Q574 534 570 556T560 604Q555 626 548 639T525 660T485 669T417 672H394L287 66Q282 41 289 31T323 16L359 9L357 0H115L117
9Z" />
<glyph unicode="&#x163;" glyph-name="tcommaaccent" horiz-adv-x="294" d="M239 -202Q291 -189 313 -168T338 -120Q327 -129 308 -129Q291 -129 281 -119T271 -90Q271 -71 285 -60T318 -48Q343 -48 358 -62T374 -102Q374 -143 339 -172T241 -210L239 -202ZM90
-8Q65 -8 51 6T36 47Q36 61 38 78T45 112L122 474H52L54 483L128 504L146 588L219 616H227L204 505H318L310 474H197L122 117Q119 104 117 91T115 69Q115 33 139 36T229 84L251 99L258 91Q210 43 167 18T90 -8Z" />
<glyph unicode="&#x164;" glyph-name="Tcaron" horiz-adv-x="555" d="M512 847L372 729H341L250 846L255 852L366 796L508 853L512 847ZM117 9L157 17Q182 22 191 31T205 65L313 672H293Q254 672 228 670T184 661T152 640T124 602Q110 578 99 557T72 505H60L103
693H607L591 505H579Q574 534 570 556T560 604Q555 626 548 639T525 660T485 669T417 672H394L287 66Q282 41 289 31T323 16L359 9L357 0H115L117 9Z" />
<glyph unicode="&#x165;" glyph-name="tcaron" horiz-adv-x="294" d="M259 594L285 722Q288 736 296 747T322 759Q336 759 346 750T357 726Q357 706 342 688L266 591L259 594ZM90 -8Q65 -8 51 6T36 47Q36 61 38 78T45 112L122 474H52L54 483L128 504L146 588L219
616H227L204 505H318L310 474H197L122 117Q119 104 117 91T115 69Q115 33 139 36T229 84L251 99L258 91Q210 43 167 18T90 -8Z" />
<glyph unicode="&#x166;" glyph-name="Tbar" horiz-adv-x="555" d="M126 396H263L313 672H293Q254 672 228 670T184 661T152 640T124 602Q110 578 99 557T72 505H60L103 693H607L591 505H579Q574 534 570 556T560 604Q555 626 548 639T525 660T485 669T417 672H394L345
396H487L482 375H341L287 66Q282 41 289 31T323 16L359 9L357 0H115L117 9L157 17Q182 22 191 31T205 65L260 375H121L126 396Z" />
<glyph unicode="&#x167;" glyph-name="tbar" horiz-adv-x="294" d="M35 352H283L279 335H32L35 352ZM90 -8Q65 -8 51 6T36 47Q36 61 38 78T45 112L122 474H52L54 483L128 504L146 588L219 616H227L204 505H318L310 474H197L122 117Q119 104 117 91T115 69Q115
33 139 36T229 84L251 99L258 91Q210 43 167 18T90 -8Z" />
<glyph unicode="&#x168;" glyph-name="Utilde" horiz-adv-x="622" d="M584 607Q587 626 587 637T582 656T566 668T537 678L513 684L515 693H694L692 684L664 677Q638 670 627 658T609 611L537 206Q529 162 514 123T471 54T402 7T300 -10Q29 -10 72 238L140 628Q145
654 139 662T110 676L76 684L78 693H311L309 684L266 676Q243 671 234 662T221 628L153 243Q142 183 148 141T175 71T231 32T317 20Q366 20 400 35T458 77T494 140T515 220L584 607ZM274 729Q285 754 294 773T313 805T336 824T367 831Q384 831 402 827T439 819T475
810T508 806Q524 806 537 816T565 851L574 847Q552 796 533 772T479 747Q462 747 445 750T410 758T375 767T343 771Q326 771 312 761T282 725L274 729Z" />
<glyph unicode="&#x169;" glyph-name="utilde" horiz-adv-x="511" d="M192 579Q203 604 212 623T232 654T255 672T286 678Q303 678 318 674T347 664T375 654T404 649Q433 649 463 698L472 695Q450 644 432 620T379 596Q362 596 347 601T318 611T290 622T261 627Q244
627 230 614T200 576L192 579ZM119 -10Q89 -10 65 9T41 74Q41 94 44 116T56 176L110 413Q112 422 113 430T115 449Q115 464 101 465T58 448L30 429L25 436Q50 461 69 477T104 503T130 517T153 521Q194 521 194 476Q194 453 190 435T180 388L133 178Q124 136 121
108T121 63T132 39T153 32Q188 32 237 75T342 187L410 505H485L400 103Q397 88 395 77T393 57Q393 23 456 59L484 75L489 68Q441 23 410 8T354 -8Q337 -8 326 3T314 37Q314 63 322 95T339 156H337Q272 73 222 32T119 -10Z" />
<glyph unicode="&#x16a;" glyph-name="Umacron" horiz-adv-x="622" d="M584 607Q587 626 587 637T582 656T566 668T537 678L513 684L515 693H694L692 684L664 677Q638 670 627 658T609 611L537 206Q529 162 514 123T471 54T402 7T300 -10Q29 -10 72 238L140 628Q145
654 139 662T110 676L76 684L78 693H311L309 684L266 676Q243 671 234 662T221 628L153 243Q142 183 148 141T175 71T231 32T317 20Q366 20 400 35T458 77T494 140T515 220L584 607ZM297 792H546L538 754H290L297 792Z" />
<glyph unicode="&#x16b;" glyph-name="umacron" horiz-adv-x="511" d="M208 640H432L426 602H201L208 640ZM119 -10Q89 -10 65 9T41 74Q41 94 44 116T56 176L110 413Q112 422 113 430T115 449Q115 464 101 465T58 448L30 429L25 436Q50 461 69 477T104 503T130
517T153 521Q194 521 194 476Q194 453 190 435T180 388L133 178Q124 136 121 108T121 63T132 39T153 32Q188 32 237 75T342 187L410 505H485L400 103Q397 88 395 77T393 57Q393 23 456 59L484 75L489 68Q441 23 410 8T354 -8Q337 -8 326 3T314 37Q314 63 322 95T339
156H337Q272 73 222 32T119 -10Z" />
<glyph unicode="&#x16c;" glyph-name="Ubreve" horiz-adv-x="622" d="M584 607Q587 626 587 637T582 656T566 668T537 678L513 684L515 693H694L692 684L664 677Q638 670 627 658T609 611L537 206Q529 162 514 123T471 54T402 7T300 -10Q29 -10 72 238L140 628Q145
654 139 662T110 676L76 684L78 693H311L309 684L266 676Q243 671 234 662T221 628L153 243Q142 183 148 141T175 71T231 32T317 20Q366 20 400 35T458 77T494 140T515 220L584 607ZM410 732Q381 732 361 741T329 767T313 804T308 849L315 851Q323 820 348 804T413
787Q455 787 485 804T525 851L532 849Q530 825 522 804T499 767T462 742T410 732Z" />
<glyph unicode="&#x16d;" glyph-name="ubreve" horiz-adv-x="511" d="M312 580Q283 580 264 589T234 614T219 650T215 695L222 696Q237 634 315 634Q357 634 385 650T422 696L429 695Q427 671 420 650T398 614T362 589T312 580ZM119 -10Q89 -10 65 9T41 74Q41
94 44 116T56 176L110 413Q112 422 113 430T115 449Q115 464 101 465T58 448L30 429L25 436Q50 461 69 477T104 503T130 517T153 521Q194 521 194 476Q194 453 190 435T180 388L133 178Q124 136 121 108T121 63T132 39T153 32Q188 32 237 75T342 187L410 505H485L400
103Q397 88 395 77T393 57Q393 23 456 59L484 75L489 68Q441 23 410 8T354 -8Q337 -8 326 3T314 37Q314 63 322 95T339 156H337Q272 73 222 32T119 -10Z" />
<glyph unicode="&#x16e;" glyph-name="Uring" horiz-adv-x="622" d="M584 607Q587 626 587 637T582 656T566 668T537 678L513 684L515 693H694L692 684L664 677Q638 670 627 658T609 611L537 206Q529 162 514 123T471 54T402 7T300 -10Q29 -10 72 238L140 628Q145
654 139 662T110 676L76 684L78 693H311L309 684L266 676Q243 671 234 662T221 628L153 243Q142 183 148 141T175 71T231 32T317 20Q366 20 400 35T458 77T494 140T515 220L584 607ZM338 1040Q338 1072 360 1094T418 1117Q453 1117 476 1095T499 1040Q499 1008
476 986T418 964Q383 964 361 986T338 1040ZM361 1040Q361 1017 376 1000T418 983Q444 983 460 1000T476 1040Q476 1063 460 1080T418 1098Q392 1098 377 1081T361 1040Z" />
<glyph unicode="&#x16f;" glyph-name="uring" horiz-adv-x="511" d="M240 907Q240 939 262 961T320 984Q355 984 378 962T401 907Q401 875 378 853T320 831Q285 831 263 853T240 907ZM263 907Q263 884 278 867T320 850Q346 850 362 867T378 907Q378 930 362 947T320
965Q294 965 279 948T263 907ZM119 -10Q89 -10 65 9T41 74Q41 94 44 116T56 176L110 413Q112 422 113 430T115 449Q115 464 101 465T58 448L30 429L25 436Q50 461 69 477T104 503T130 517T153 521Q194 521 194 476Q194 453 190 435T180 388L133 178Q124 136 121
108T121 63T132 39T153 32Q188 32 237 75T342 187L410 505H485L400 103Q397 88 395 77T393 57Q393 23 456 59L484 75L489 68Q441 23 410 8T354 -8Q337 -8 326 3T314 37Q314 63 322 95T339 156H337Q272 73 222 32T119 -10Z" />
<glyph unicode="&#x170;" glyph-name="Uhungarumlaut" horiz-adv-x="622" d="M309 734L388 853Q396 864 404 870T425 877Q441 877 452 867T463 841Q463 815 433 798L315 728L309 734ZM465 734L544 853Q552 864 560 870T581 877Q597 877 608 867T619 841Q619 815
589 798L471 728L465 734ZM584 607Q587 626 587 637T582 656T566 668T537 678L513 684L515 693H694L692 684L664 677Q638 670 627 658T609 611L537 206Q529 162 514 123T471 54T402 7T300 -10Q29 -10 72 238L140 628Q145 654 139 662T110 676L76 684L78 693H311L309
684L266 676Q243 671 234 662T221 628L153 243Q142 183 148 141T175 71T231 32T317 20Q366 20 400 35T458 77T494 140T515 220L584 607Z" />
<glyph unicode="&#x171;" glyph-name="uhungarumlaut" horiz-adv-x="511" d="M210 573L290 699Q298 711 307 718T328 726Q345 726 356 715T367 686Q367 675 360 666T342 649L216 567L210 573ZM365 573L445 699Q453 711 462 718T483 726Q500 726 511 715T522 686Q522
675 515 666T497 649L371 567L365 573ZM119 -10Q89 -10 65 9T41 74Q41 94 44 116T56 176L110 413Q112 422 113 430T115 449Q115 464 101 465T58 448L30 429L25 436Q50 461 69 477T104 503T130 517T153 521Q194 521 194 476Q194 453 190 435T180 388L133 178Q124
136 121 108T121 63T132 39T153 32Q188 32 237 75T342 187L410 505H485L400 103Q397 88 395 77T393 57Q393 23 456 59L484 75L489 68Q441 23 410 8T354 -8Q337 -8 326 3T314 37Q314 63 322 95T339 156H337Q272 73 222 32T119 -10Z" />
<glyph unicode="&#x172;" glyph-name="Uogonek" horiz-adv-x="622" d="M272 -205Q237 -205 220 -186T203 -139Q203 -118 216 -98T250 -61T297 -30T349 -6Q339 -8 327 -9T300 -10Q29 -10 72 238L140 628Q145 654 139 662T110 676L76 684L78 693H311L309 684L266
676Q243 671 234 662T221 628L153 243Q142 183 148 141T175 71T231 32T317 20Q366 20 400 35T458 77T494 140T515 220L584 607Q587 626 587 637T582 656T566 668T537 678L513 684L515 693H694L692 684L664 677Q638 670 627 658T609 611L537 206Q524 137 495 88T405
8Q376 -6 350 -21T305 -54T274 -89T261 -127Q259 -174 305 -174Q314 -174 324 -172T345 -165L343 -175Q327 -189 307 -197T272 -205Z" />
<glyph unicode="&#x173;" glyph-name="uogonek" horiz-adv-x="511" d="M308 -205Q276 -205 258 -188T240 -145Q240 -119 253 -98T287 -61T331 -31T372 -7Q367 -8 362 -8T354 -8Q340 -8 327 1T314 37Q314 63 322 95T339 156H337Q272 73 222 32T119 -10Q89 -10 65
9T41 74Q41 94 44 116T56 176L110 413Q112 422 113 430T115 449Q115 463 101 465T58 448L30 429L25 436Q51 462 70 478T105 504T131 517T153 521Q194 521 194 476Q194 453 190 435T180 388L133 178Q124 136 121 108T121 63T132 39T153 32Q188 32 237 75T342 187L410
505H485L400 103Q397 88 395 77T393 57Q393 23 456 59L484 75L489 68Q470 51 452 37T419 11Q400 -3 379 -18T340 -50T310 -86T298 -127Q298 -174 341 -174Q351 -174 361 -172T381 -165L379 -175Q364 -189 345 -197T308 -205Z" />
<glyph unicode="&#x174;" glyph-name="Wcircumflex" horiz-adv-x="833" d="M355 728L495 846H526L617 729L612 723L501 779L359 722L355 728ZM115 586Q112 610 109 625T102 650T91 665T74 675L52 684L54 693H270L268 684L235 676Q202 669 194 651Q189 641 190
628T194 589L246 121H248L456 526L449 580Q445 609 442 626T433 654T421 668T402 677L380 684L382 693H595L593 684L572 678Q555 673 545 668T529 652Q524 641 524 626T525 589L580 126H583L786 576Q798 604 802 619T807 644Q807 668 775 678L756 684L758 693H923L921
684L898 675Q881 669 871 663T853 646T836 619T814 574L551 0H519L462 479H459L212 0H184L115 586Z" />
<glyph unicode="&#x175;" glyph-name="wcircumflex" horiz-adv-x="679" d="M257 575L395 704H425L502 573L496 568L400 637L262 569L257 575ZM429 403Q430 373 431 340T433 267T433 182T430 81H432Q472 124 508 171T572 262T616 341T632 394Q632 410 626 419T612
436T598 453T592 478Q592 497 604 509T634 521Q655 521 668 509T682 471Q682 405 611 285T386 0H359Q360 53 360 95T361 173T361 237T360 290H359Q341 259 318 224T268 151T211 75T149 0H116Q116 81 116 140T114 244T112 323T107 387Q102 444 89 458T43 450L13
429L8 436Q46 478 71 499T123 521Q154 521 165 492T182 407Q188 344 190 265T189 80H191Q237 138 281 201T358 327Q358 332 358 340T358 357T357 374T356 386Q352 445 340 458T298 450L268 429L263 436Q301 479 326 500T374 521Q402 521 414 492T429 403Z" />
<glyph unicode="&#x176;" glyph-name="Ycircumflex" horiz-adv-x="537" d="M104 9L144 17Q169 22 177 30T191 63L230 277L126 611Q120 629 116 640T107 658T94 670T77 677L54 684L56 693H280L278 684L238 674Q226 671 216 666T205 644Q205 630 214 600L300 309H303L468
573Q498 621 500 644Q500 656 493 662T471 674L439 684L441 693H624L622 684L605 678Q587 672 576 666T553 650T530 621T497 571L311 276L273 64Q268 39 275 30T310 16L346 9L345 0H102L104 9ZM214 728L354 846H385L476 729L471 723L360 779L218 722L214 728Z"
/>
<glyph unicode="&#x177;" glyph-name="ycircumflex" horiz-adv-x="442" d="M190 405Q202 321 210 227T223 48H226Q269 106 303 159T360 257T396 335T408 391Q408 406 401 415T385 433T369 452T361 478Q361 497 373 509T403 521Q424 521 437 507T451 467Q451 422
434 370T385 260T313 140T223 12Q176 -52 139 -94T71 -162T12 -197T-45 -207Q-75 -207 -92 -193T-110 -157Q-110 -138 -97 -126T-63 -113Q-47 -113 -39 -121T-24 -139T-11 -157T6 -166Q31 -166 66 -138T156 -43Q146 100 135 209T113 387Q108 416 104 433T92 458T75
464T49 450L19 429L14 436Q53 481 79 501T131 521Q159 521 170 494T190 405ZM167 575L305 704H335L412 573L406 568L310 637L172 569L167 575Z" />
<glyph unicode="&#x178;" glyph-name="Ydieresis" horiz-adv-x="537" d="M104 9L144 17Q169 22 177 30T191 63L230 277L126 611Q120 629 116 640T107 658T94 670T77 677L54 684L56 693H280L278 684L238 674Q226 671 216 666T205 644Q205 630 214 600L300 309H303L468
573Q498 621 500 644Q500 656 493 662T471 674L439 684L441 693H624L622 684L605 678Q587 672 576 666T553 650T530 621T497 571L311 276L273 64Q268 39 275 30T310 16L346 9L345 0H102L104 9ZM279 737Q258 737 245 751T231 784Q231 804 244 817T279 830Q299 830
312 817T326 783Q326 765 313 751T279 737ZM447 737Q426 737 412 751T398 784Q398 804 411 817T446 830Q467 830 480 817T494 783Q494 765 481 751T447 737Z" />
<glyph unicode="&#x179;" glyph-name="Zacute" horiz-adv-x="526" d="M259 732L405 831Q422 842 435 842Q453 842 462 831T472 805Q472 792 462 782T435 768L263 724L259 732ZM-20 22L472 667V671H396Q333 671 293 669T228 660T189 644T165 619Q149 597 133 567T99
505H89L124 693H568L562 671L72 25V21H146Q221 21 266 23T338 30T379 44T406 67Q422 85 440 116T480 192H490L453 0H-26L-20 22Z" />
<glyph unicode="&#x17a;" glyph-name="zacute" horiz-adv-x="410" d="M215 575L211 582L333 687Q349 702 364 702Q382 702 392 690T403 664Q403 652 396 641T372 624L215 575ZM246 -10Q220 -10 196 2T148 29T104 56T61 68Q44 68 31 52T-11 -8H-14L-39 15V18Q-19
33 -5 45T22 69T44 92T65 115L331 400Q300 406 270 416T213 436T160 454T114 462Q100 462 100 453Q100 448 106 445T121 438T136 426T143 406Q143 392 132 382T102 371Q82 371 71 383T60 415Q60 434 70 453T98 487T139 511T187 521Q212 521 236 508T282 480T322
452T355 439Q373 439 387 456T420 512H423L448 491V488Q423 469 401 445T361 401L89 109Q114 107 141 100T193 85T241 70T279 63Q292 63 302 65T322 74T343 93T369 126L378 121Q363 94 349 70T319 29T286 1T246 -10Z" />
<glyph unicode="&#x17b;" glyph-name="Zdotaccent" horiz-adv-x="526" d="M-20 22L472 667V671H396Q333 671 293 669T228 660T189 644T165 619Q149 597 133 567T99 505H89L124 693H568L562 671L72 25V21H146Q221 21 266 23T338 30T379 44T406 67Q422 85 440 116T480
192H490L453 0H-26L-20 22ZM347 735Q325 735 310 750T294 786Q294 807 309 822T347 837Q367 837 382 822T397 786Q397 766 382 751T347 735Z" />
<glyph unicode="&#x17c;" glyph-name="zdotaccent" horiz-adv-x="410" d="M246 -10Q220 -10 196 2T148 29T104 56T61 68Q44 68 31 52T-11 -8H-14L-39 15V18Q-19 33 -5 45T22 69T44 92T65 115L331 400Q300 406 270 416T213 436T160 454T114 462Q100 462 100 453Q100
448 106 445T121 438T136 426T143 406Q143 392 132 382T102 371Q82 371 71 383T60 415Q60 434 70 453T98 487T139 511T187 521Q212 521 236 508T282 480T322 452T355 439Q373 439 387 456T420 512H423L448 491V488Q423 469 401 445T361 401L89 109Q114 107 141
100T193 85T241 70T279 63Q292 63 302 65T322 74T343 93T369 126L378 121Q363 94 349 70T319 29T286 1T246 -10ZM228 634Q228 656 243 671T280 686Q302 686 317 671T332 634Q332 612 317 597T280 582Q258 582 243 597T228 634Z" />
<glyph unicode="&#x17d;" glyph-name="Zcaron" horiz-adv-x="526" d="M482 847L342 729H311L220 846L225 852L336 796L478 853L482 847ZM-20 22L472 667V671H396Q333 671 293 669T228 660T189 644T165 619Q149 597 133 567T99 505H89L124 693H568L562 671L72 25V21H146Q221
21 266 23T338 30T379 44T406 67Q422 85 440 116T480 192H490L453 0H-26L-20 22Z" />
<glyph unicode="&#x17e;" glyph-name="zcaron" horiz-adv-x="410" d="M427 705L289 576H259L182 707L188 712L284 643L422 711L427 705ZM246 -10Q220 -10 196 2T148 29T104 56T61 68Q44 68 31 52T-11 -8H-14L-39 15V18Q-19 33 -5 45T22 69T44 92T65 115L331 400Q300
406 270 416T213 436T160 454T114 462Q100 462 100 453Q100 448 106 445T121 438T136 426T143 406Q143 392 132 382T102 371Q82 371 71 383T60 415Q60 434 70 453T98 487T139 511T187 521Q212 521 236 508T282 480T322 452T355 439Q373 439 387 456T420 512H423L448
491V488Q423 469 401 445T361 401L89 109Q114 107 141 100T193 85T241 70T279 63Q292 63 302 65T322 74T343 93T369 126L378 121Q363 94 349 70T319 29T286 1T246 -10Z" />
<glyph unicode="&#x192;" glyph-name="florin" horiz-adv-x="352" d="M197 383H310L306 362H192L145 140Q111 -18 59 -105T-60 -193Q-99 -193 -118 -178T-138 -142Q-138 -126 -128 -114T-99 -102Q-81 -102 -73 -114T-60 -146Q-57 -161 -53 -167T-41 -174Q-32 -174
-23 -165T-4 -129T19 -54T49 73L110 362H46L50 383H115L134 471Q157 580 214 640T350 701Q392 701 413 683T434 643Q434 624 424 613T393 602Q375 602 363 612T346 653Q344 666 338 673T320 680Q294 680 269 639T221 495L197 383Z" />
<glyph unicode="&#x1fa;" glyph-name="Aringacute" horiz-adv-x="577" d="M-54 9L-39 13Q-24 17 -15 21T5 37T26 69T57 126L352 693H389L467 111Q471 82 474 66T482 40T497 25T521 14L535 9L533 0H317L319 9L342 15Q359 20 368 24T382 39Q387 49 387 65T384 107L365
261H155L82 119Q57 70 57 49Q57 32 68 26T95 15L119 9L117 0H-56L-54 9ZM166 282H362L325 587H322L166 282ZM298 893L444 992Q461 1003 474 1003Q492 1003 501 992T511 966Q511 953 501 943T474 929L302 885L298 893ZM295 797Q295 829 317 851T375 874Q410 874
433 852T456 797Q456 765 433 743T375 721Q340 721 318 743T295 797ZM318 797Q318 774 333 757T375 740Q401 740 417 757T433 797Q433 820 417 837T375 855Q349 855 334 838T318 797Z" />
<glyph unicode="&#x1fb;" glyph-name="aringacute" horiz-adv-x="516" d="M118 -10Q70 -10 45 21T19 106Q19 196 49 272T125 403T225 490T326 521Q365 521 396 510T446 486H449L489 522L497 519Q491 507 485 486Q479 468 472 439T455 364L403 102Q401 89 399 78T397
54Q397 37 411 38T460 59L488 75L493 68Q448 26 414 9T355 -8Q336 -8 325 4T314 40Q314 49 316 63T321 92T328 122T336 151H333Q316 126 293 98T242 45T183 6T118 -10ZM158 30Q177 30 200 42T247 76T294 124T338 182L398 459Q390 479 373 491T330 504Q289 504 248
471T174 382T121 257T100 114Q100 30 158 30ZM266 887Q266 919 288 941T346 964Q381 964 404 942T427 887Q427 855 404 833T346 811Q311 811 289 833T266 887ZM289 887Q289 864 304 847T346 830Q372 830 388 847T404 887Q404 910 388 927T346 945Q320 945 305 928T289
887ZM269 742L415 841Q432 852 445 852Q463 852 472 841T482 815Q482 802 472 792T445 778L273 734L269 742Z" />
<glyph unicode="&#x1fc;" glyph-name="AEacute" horiz-adv-x="841" d="M559 732L705 831Q722 842 735 842Q753 842 762 831T772 805Q772 792 762 782T735 768L563 724L559 732ZM841 535H832Q824 557 815 579T798 617Q787 637 778 648T753 665T713 672T651 674Q609
674 586 672T549 665L498 370H552Q583 370 602 372T634 378T654 390T667 407Q675 423 681 436T697 474H706L665 247H656Q654 271 654 281T651 306Q649 322 644 330T627 343T592 349T534 350H494L454 123Q447 84 446 63T455 33T492 21T566 19Q606 19 631 21T672
29T700 45T723 70Q733 82 744 98T767 130T787 163T805 192H815L762 0H277L278 8L317 16Q340 21 348 30T362 62L395 250H197L93 97Q76 73 71 61T65 41Q65 30 74 26T100 17L132 9L131 0H-56L-54 9L-38 14Q-19 20 -7 25T16 42T40 71T75 121L452 670L437 674L388 684L389
693H839L841 535ZM211 271H398L462 630Q462 633 462 635T464 641H463L211 271Z" />
<glyph unicode="&#x1fd;" glyph-name="aeacute" horiz-adv-x="695" d="M388 575L384 582L506 687Q522 702 537 702Q555 702 565 690T576 664Q576 652 569 641T545 624L388 575ZM427 -10Q373 -10 337 16T289 88Q279 75 264 58T229 26T184 1T128 -10Q76 -10 46 18T16
95Q16 135 35 162T91 207T182 237T306 260L321 353Q332 430 313 466T236 503Q210 503 195 494T175 461Q167 430 157 417T124 403Q88 403 88 438Q88 458 100 473T132 499T178 515T233 521Q310 521 348 489T381 385Q421 444 472 482T582 521Q638 521 666 497T695
433Q695 401 677 375T621 326T522 286T378 253Q370 225 366 196T362 138Q362 83 386 53T452 22Q500 22 537 43T617 103L624 95Q608 75 588 57T542 23T488 -1T427 -10ZM159 23Q192 23 224 44T286 104Q284 110 284 116T284 131Q284 161 288 189T300 243Q242 232 202
220T138 192T102 155T91 103Q91 23 159 23ZM570 503Q548 503 522 485T469 434T420 360T382 268Q451 282 497 298T572 339Q596 361 606 387T616 440Q616 473 604 488T570 503Z" />
<glyph unicode="&#x1fe;" glyph-name="Oslashacute" horiz-adv-x="636" d="M-2 -60L101 69Q69 104 51 153T32 265Q32 359 61 439T139 577T252 669T385 703Q436 703 478 686T552 637L626 730H653L567 622Q632 545 632 421Q632 329 604 250T529 113T419 23T287 -10Q236
-10 193 6T115 55L24 -60H-2ZM119 248Q119 213 123 180T138 116L519 596Q502 634 471 658T385 683Q324 683 275 650T192 558T138 420T119 248ZM291 10Q350 10 397 42T476 133T526 272T544 450Q544 481 541 512T528 573L147 95Q166 57 200 34T291 10ZM297 738L453
843Q461 849 470 853T488 857Q506 857 517 846T528 816Q528 799 517 790T489 776L300 729L297 738Z" />
<glyph unicode="&#x1ff;" glyph-name="oslashacute" horiz-adv-x="491" d="M76 41Q50 68 36 106T21 191Q21 270 47 331T113 435T201 499T293 521Q322 521 348 512T395 487L448 560H472L410 474Q439 446 454 407T470 320Q470 239 444 177T379 74T291 11T197 -10Q165
-10 139 0T90 27L27 -61H3L76 41ZM197 8Q237 8 272 35T333 110T374 220T390 351Q390 399 381 432L116 63Q138 8 197 8ZM101 160Q101 114 108 86L372 454Q350 503 293 503Q255 503 220 477T159 404T117 295T101 160ZM241 575L237 582L359 687Q375 702 390 702Q408
702 418 690T429 664Q429 652 422 641T398 624L241 575Z" />
<glyph unicode="&#x218;" glyph-name="Scommaaccent" horiz-adv-x="475" d="M329 -202Q381 -189 403 -168T428 -120Q417 -129 398 -129Q381 -129 371 -119T361 -90Q361 -71 375 -60T408 -48Q433 -48 448 -62T464 -102Q464 -143 429 -172T331 -210L329 -202ZM201
-10Q129 -10 83 5T6 43L21 207H30Q36 177 44 149T61 91Q67 71 76 56T100 30T139 14T197 9Q239 9 268 21T316 53T344 101T353 159Q353 183 346 204T323 245T282 287T221 334Q153 380 124 423T95 517Q95 560 113 594T160 653T229 690T310 703Q369 703 409 692T469
669L460 518H451Q442 551 434 574T417 617Q401 655 375 670T302 685Q273 685 248 676T204 648T175 605T164 547Q164 530 168 514T185 480T218 443T273 400Q317 370 346 344T394 294T419 245T427 194Q427 148 409 111T360 46T288 5T201 -10Z" />
<glyph unicode="&#x219;" glyph-name="scommaaccent" horiz-adv-x="365" d="M278 -202Q330 -189 352 -168T377 -120Q366 -129 347 -129Q330 -129 320 -119T310 -90Q310 -71 324 -60T357 -48Q382 -48 397 -62T413 -102Q413 -143 378 -172T280 -210L278 -202ZM131
-10Q57 -10 24 12T-9 65Q-9 82 1 93T31 105Q48 105 59 96T78 57Q86 30 99 20T142 9Q163 9 181 16T212 37T234 69T242 108Q242 126 238 140T224 169T199 198T160 232Q109 274 90 306T70 372Q70 405 83 432T120 479T174 510T239 521Q296 521 328 502T360 454Q360
435 350 425T322 414Q301 414 291 426T273 463Q266 484 258 493T226 502Q205 502 187 494T157 473T137 441T130 404Q130 389 134 377T148 351T175 321T219 284Q264 249 286 217T308 145Q308 112 295 84T259 34T204 2T131 -10Z" />
<glyph unicode="&#x21a;" glyph-name="uni021A" horiz-adv-x="555" d="M135 -202Q187 -189 209 -168T234 -120Q223 -129 204 -129Q187 -129 177 -119T167 -90Q167 -71 181 -60T214 -48Q239 -48 254 -62T270 -102Q270 -143 235 -172T137 -210L135 -202ZM117 9L157
17Q182 22 191 31T205 65L313 672H293Q254 672 228 670T184 661T152 640T124 602Q110 578 99 557T72 505H60L103 693H607L591 505H579Q574 534 570 556T560 604Q555 626 548 639T525 660T485 669T417 672H394L287 66Q282 41 289 31T323 16L359 9L357 0H115L117
9Z" />
<glyph unicode="&#x21b;" glyph-name="uni021B" horiz-adv-x="294" d="M239 -202Q291 -189 313 -168T338 -120Q327 -129 308 -129Q291 -129 281 -119T271 -90Q271 -71 285 -60T318 -48Q343 -48 358 -62T374 -102Q374 -143 339 -172T241 -210L239 -202ZM90 -8Q65
-8 51 6T36 47Q36 61 38 78T45 112L122 474H52L54 483L128 504L146 588L219 616H227L204 505H318L310 474H197L122 117Q119 104 117 91T115 69Q115 33 139 36T229 84L251 99L258 91Q210 43 167 18T90 -8Z" />
<glyph unicode="&#x237;" glyph-name="uni0237" horiz-adv-x="242" d="M-57 -208Q-105 -208 -128 -192T-151 -148Q-151 -130 -140 -118T-105 -105Q-67 -105 -61 -155Q-59 -173 -55 -182T-38 -191Q-19 -191 -1 -162T31 -62L113 407Q115 421 117 432T119 452Q119
465 107 467T62 448L34 429L29 436Q55 462 75 478T112 504T140 517T161 521Q179 521 190 510T202 481Q202 464 197 438T186 380L113 -12Q93 -116 47 -162T-57 -208Z" />
<glyph unicode="&#x2c6;" glyph-name="circumflex" horiz-adv-x="450" d="M139 575L277 704H307L384 573L378 568L282 637L144 569L139 575Z" />
<glyph unicode="&#x2c7;" glyph-name="caron" horiz-adv-x="450" d="M402 705L264 576H234L157 707L163 712L259 643L397 711L402 705Z" />
<glyph unicode="&#x2d8;" glyph-name="breve" horiz-adv-x="450" d="M260 580Q231 580 212 589T182 614T167 650T163 695L170 696Q185 634 263 634Q305 634 333 650T370 696L377 695Q375 671 368 650T346 614T310 589T260 580Z" />
<glyph unicode="&#x2d9;" glyph-name="dotaccent" horiz-adv-x="450" d="M207 634Q207 656 222 671T259 686Q281 686 296 671T311 634Q311 612 296 597T259 582Q237 582 222 597T207 634Z" />
<glyph unicode="&#x2da;" glyph-name="ring" horiz-adv-x="450" d="M182 654Q182 686 204 708T262 731Q297 731 320 709T343 654Q343 622 320 600T262 578Q227 578 205 600T182 654ZM205 654Q205 631 220 614T262 597Q288 597 304 614T320 654Q320 677 304 694T262
712Q236 712 221 695T205 654Z" />
<glyph unicode="&#x2db;" glyph-name="ogonek" horiz-adv-x="450" d="M166 -205Q131 -205 116 -188T100 -146Q100 -123 115 -101T153 -59T199 -24T239 0H249Q232 -14 216 -29T187 -60T166 -92T158 -127Q158 -174 202 -174Q211 -174 221 -172T241 -165L240 -174Q229
-187 209 -196T166 -205Z" />
<glyph unicode="&#x2dc;" glyph-name="tilde" horiz-adv-x="450" d="M134 579Q145 604 154 623T174 654T197 672T228 678Q245 678 260 674T289 664T317 654T346 649Q375 649 405 698L414 695Q392 644 374 620T321 596Q304 596 289 601T260 611T232 622T203 627Q186
627 172 614T142 576L134 579Z" />
<glyph unicode="&#x2dd;" glyph-name="hungarumlaut" horiz-adv-x="450" d="M149 573L229 699Q237 711 246 718T267 726Q284 726 295 715T306 686Q306 675 299 666T281 649L155 567L149 573ZM304 573L384 699Q392 711 401 718T422 726Q439 726 450 715T461 686Q461
675 454 666T436 649L310 567L304 573Z" />
</font>
</defs>
</svg>
